<svg xmlns="http://www.w3.org/2000/svg" width="220" height="200" fill="none"><g fill="#525252" clip-path="url(#a)"><path d="M187.183 204.261c-6.541 0-11.543 0-16.256.029-1.531 0-2.969-.346-3.154-2.857-.224-3.154-.575-6.363-.912-9.464-.17-1.589-.341-3.178-.487-4.768-.254-2.579-.488-5.153-.722-7.703l-.35-3.784.755-.234c.6-.19 1.175-.351 1.731-.487a23.864 23.864 0 0 0 3.041-.976c9.359-4.115 14.137-11.443 14.137-21.779v-40.18c0-.361-.03-.741-.064-1.17h-13.468l.087-1.058c.449-5.471.044-10.985-5.903-14.296l-1.131-.633.922-.912c3.524-3.496 5.45-7.138 5.893-11.136.229-2.561.307-5.133.234-7.703v-2.082a17.823 17.823 0 0 0-4.587-12.072c-3.953-4.471-8.642-6.739-13.931-6.739-1.277.006-2.549.13-3.803.371-7.253 1.365-12.186 5.627-14.623 12.677-1.628 4.641-1.248 9.614-.878 14.422v.185a17.029 17.029 0 0 0 6.035 11.95 37.804 37.804 0 0 0 4.139 2.926c.584.38 1.189.77 1.784 1.175h.38l.244.614a1.198 1.198 0 0 1-.317 1.248l-2.257 2.267c-4.772 4.793-9.71 9.751-14.624 14.588a3.41 3.41 0 0 1-1.594.785c-.403.09-.815.138-1.228.141-2.272.035-4.495.039-6.176.039h-11.748l-.127-.828c-.975-6.383-4.338-10.093-10.578-11.668-2.666-.668-5.362-1.462-7.93-2.218l-2.618-.771a3.435 3.435 0 0 1-1.848-.999c-.999-1.282-.21-6.875.863-7.977a18.114 18.114 0 0 0 5.22-10.833 55.64 55.64 0 0 0 .171-6.568V73.55a18.1 18.1 0 0 0-4.738-12.69c-3.948-4.423-8.613-6.661-13.868-6.661a20.83 20.83 0 0 0-3.9.385c-7.18 1.395-12.064 5.617-14.516 12.56-1.755 4.987-1.282 10.307-.824 15.456v.131a14.316 14.316 0 0 0 3.9 8.83c2.466 2.525 2.686 5.27 2.574 7.616-.078 1.687-.78 2.579-2.345 2.988-2.632.688-5.294 1.463-7.867 2.19l-2.774.794c-7.175 2.048-10.407 6.295-10.407 13.769v12.072H23.53v18.006h6.302v55.26H4.655c-1.296 0-2.613-.054-3.9-.102l-.755-.03V209h205v-4.734l-17.817-.005Zm-15.798-56.177c.2-6.728.19-13.588.18-20.219v-12.092h8.677v36.777c-.029 8.742-4.962 15.358-13.161 17.703-1.312.397-2.671.61-4.041.634-11.168.034-22.102.034-33.669.034h-.975v-8.634H143.8c4.07 0 8.876-.025 13.649-.195 7.224-.249 13.722-6.792 13.936-14.008Zm-33.04-66.796c-.073-1.117-.044-2.238 0-3.14V77.178c-.278-4.803.049-8.703 2.52-12.155a14.58 14.58 0 0 1 11.772-6.104c1.032-.001 2.061.117 3.066.35 6.05 1.395 10.417 6.246 10.876 12.068.394 5.031.204 9.234-.58 12.852a12.371 12.371 0 0 1-4.719 7.153 14.223 14.223 0 0 1-8.531 2.866c-.441 0-.882-.023-1.321-.068-7.048-.692-12.542-6.1-13.083-12.837v-.015Zm-30.315 40.955h3.793c5.479 0 11.299 0 16.968-.058a3.678 3.678 0 0 0 2.291-.936c4.616-4.525 9.262-9.167 13.761-13.652 2.042-2.043 4.085-4.081 6.098-6.08a10.845 10.845 0 0 1 2.237-1.863 4.881 4.881 0 0 1 2.409-.677 4.67 4.67 0 0 1 3.928 2.421 4.676 4.676 0 0 1-.063 4.614l-.029.049a9.443 9.443 0 0 1-1.55 1.828l-3.9 3.901c-5.776 5.792-11.753 11.784-17.685 17.596l-.039.039a5.77 5.77 0 0 1-3.588 1.424c-2.3.048-4.757.068-7.96.068H100.406a9.84 9.84 0 0 1-2.486-.322 4.154 4.154 0 0 1 .059-8.035c.857-.206 1.736-.31 2.617-.312h7.459l-.025-.005ZM58.241 80.854a35.066 35.066 0 0 1 0-2.867V76.93c-.307-4.515-.087-9.22 3.486-13.086 2.993-3.237 6.483-4.876 10.363-4.876 1.468.01 2.927.23 4.334.654 5.956 1.75 9.52 5.928 10.026 11.765.425 4.983.259 9.127-.487 12.676-1.253 5.802-6.975 10.176-13.303 10.176-.523 0-1.045-.03-1.564-.093-7.161-.907-12.44-6.363-12.855-13.291Zm18.777 25.085a8.085 8.085 0 0 1-4.572 1.619 7.658 7.658 0 0 1-4.173-1.375c-3.222-2.063-3.9-3.608-3.26-7.513l.18-1.117 1.082.346a19.98 19.98 0 0 0 12.254 0l.941-.302.288.946c.936 3.042.014 5.529-2.74 7.396Zm-35.204 9.751c.175-2.554 2.077-4.573 5.206-5.538 5.02-1.541 8.92-2.643 12.64-3.584.16-.041.323-.06.487-.058a4.42 4.42 0 0 1 2.754 1.345c2.774 2.872 6.172 4.452 9.56 4.452 1.64-.002 3.26-.369 4.742-1.073a16.01 16.01 0 0 0 3.179-2.218c.643-.532 1.31-1.078 2.023-1.57a4.9 4.9 0 0 1 2.437-.922c.179-.002.358.02.531.064a274.5 274.5 0 0 1 12.245 3.491c3.29.975 5.055 3.057 5.396 6.338l.108.975-.975.093c-5.484.531-8.658 1.667-10.286 3.681-1.433 1.77-1.857 4.388-1.38 8.552l.123 1.087H41.726v-.975c0-1.385 0-2.76-.039-4.14-.044-3.296-.092-6.679.132-10.005l-.005.005Zm-13.668 28.464v-8.41H133.29v8.41H28.146Zm21.56 59.97.692-1.409c.283-.565.546-1.116.81-1.653.677-1.409 1.32-2.735 2.052-4.022l.034-.063.044-.054a3.08 3.08 0 0 1 1.023-.848c.41-.21.861-.327 1.321-.342 7.8 0 15.667-.039 23.447-.039 7.78 0 15.662 0 23.442.039H102.673a3.296 3.296 0 0 1 2.374 1.429l.034.054c.702 1.209 1.306 2.437 1.95 3.783.263.556.536 1.121.829 1.707l.697 1.409-58.851.009Zm73.664-46.459H53.503v4.529h69.824v42.028h-4.714c-1.355 0-2.398-.029-3.383-.093-1.263-.083-2.155-1.716-2.252-1.906a356.8 356.8 0 0 1-5.245-10.473 1.263 1.263 0 0 0-1.424-.897 12951.077 12951.077 0 0 1-54.341 0c-.839 0-1.121.166-1.463.858-1.501 3.145-3.197 6.533-5.337 10.663-.322.639-1.14 1.731-2.14 1.785-1 .053-2.033.078-3.412.078H34.873v-41.96h9.749v-4.588h-9.75v-8.63h88.498v8.606Zm4.943-8.679h9.944v-2.867c0-3.169.03-6.168-.048-9.171a5.739 5.739 0 0 1 1.925-4.622c6.21-6.109 13.415-13.223 20.376-20.37a34.192 34.192 0 0 0 3.256-4.091c.487-.648.912-1.268 1.37-1.863l1.745-2.272v41.511c0 8.011-4.436 12.424-12.474 12.424h-26.094v-8.679Zm0 55.177v-28.366h18.777l.088.878c.872 8.776 1.745 17.503 2.632 26.377l.107 1.072-21.604.039Zm33.893.127h-2.964c-1.169 0-2.062 0-2.9-.049h-.102l-.103-.024a2.219 2.219 0 0 1-1.564-1.482l-.03-.098v-.097a4901.98 4901.98 0 0 1-2.115-21.034l-.566-5.685h8.584l2.852 28.43-1.092.039Z"/><path d="M187.183 204.261c-6.541 0-11.543 0-16.256.029-1.531 0-2.969-.346-3.154-2.857-.224-3.154-.575-6.363-.912-9.464-.17-1.589-.341-3.178-.487-4.768-.254-2.579-.488-5.153-.722-7.703l-.35-3.784.755-.234c.6-.19 1.175-.351 1.731-.487a23.864 23.864 0 0 0 3.041-.976c9.359-4.115 14.137-11.443 14.137-21.779v-40.18c0-.361-.03-.741-.064-1.17h-13.468l.087-1.058c.449-5.471.044-10.985-5.903-14.296l-1.131-.633.922-.912c3.524-3.496 5.45-7.138 5.893-11.136.229-2.561.307-5.133.234-7.703v-2.082a17.823 17.823 0 0 0-4.587-12.072c-3.953-4.471-8.642-6.739-13.931-6.739-1.277.006-2.549.13-3.803.371-7.253 1.365-12.186 5.627-14.623 12.677-1.628 4.641-1.248 9.614-.878 14.422v.185a17.029 17.029 0 0 0 6.035 11.95 37.804 37.804 0 0 0 4.139 2.926c.584.38 1.189.77 1.784 1.175h.38l.244.614a1.198 1.198 0 0 1-.317 1.248l-2.257 2.267c-4.772 4.793-9.71 9.751-14.624 14.588a3.41 3.41 0 0 1-1.594.785c-.403.09-.815.138-1.228.141-2.272.035-4.495.039-6.176.039h-11.748l-.127-.828c-.975-6.383-4.338-10.093-10.578-11.668-2.666-.668-5.362-1.462-7.93-2.218l-2.618-.771a3.435 3.435 0 0 1-1.848-.999c-.999-1.282-.21-6.875.863-7.977a18.114 18.114 0 0 0 5.22-10.833 55.64 55.64 0 0 0 .171-6.568V73.55a18.1 18.1 0 0 0-4.738-12.69c-3.948-4.423-8.613-6.661-13.868-6.661a20.83 20.83 0 0 0-3.9.385c-7.18 1.395-12.064 5.617-14.516 12.56-1.755 4.987-1.282 10.307-.824 15.456v.131a14.316 14.316 0 0 0 3.9 8.83c2.466 2.525 2.686 5.27 2.574 7.616-.078 1.687-.78 2.579-2.345 2.988-2.632.688-5.294 1.463-7.867 2.19l-2.774.794c-7.175 2.048-10.407 6.295-10.407 13.769v12.072H23.53v18.006h6.302v55.26H4.655c-1.296 0-2.613-.054-3.9-.102l-.755-.03V209h205v-4.734l-17.817-.005Zm-15.798-56.177c.2-6.728.19-13.588.18-20.219v-12.092h8.677v36.777c-.029 8.742-4.962 15.358-13.161 17.703-1.312.397-2.671.61-4.041.634-11.168.034-22.102.034-33.669.034h-.975v-8.634H143.8c4.07 0 8.876-.025 13.649-.195 7.224-.249 13.722-6.792 13.936-14.008Zm-33.04-66.796c-.073-1.117-.044-2.238 0-3.14V77.178c-.278-4.803.049-8.703 2.52-12.155a14.58 14.58 0 0 1 11.772-6.104c1.032-.001 2.061.117 3.066.35 6.05 1.395 10.417 6.246 10.876 12.068.394 5.031.204 9.234-.58 12.852a12.371 12.371 0 0 1-4.719 7.153 14.223 14.223 0 0 1-8.531 2.866c-.441 0-.882-.023-1.321-.068-7.048-.692-12.542-6.1-13.083-12.837v-.015Zm-30.315 40.955h3.793c5.479 0 11.299 0 16.968-.058a3.678 3.678 0 0 0 2.291-.936c4.616-4.525 9.262-9.167 13.761-13.652 2.042-2.043 4.085-4.081 6.098-6.08a10.845 10.845 0 0 1 2.237-1.863 4.881 4.881 0 0 1 2.409-.677 4.67 4.67 0 0 1 3.928 2.421 4.676 4.676 0 0 1-.063 4.614l-.029.049a9.443 9.443 0 0 1-1.55 1.828l-3.9 3.901c-5.776 5.792-11.753 11.784-17.685 17.596l-.039.039a5.77 5.77 0 0 1-3.588 1.424c-2.3.048-4.757.068-7.96.068H100.406a9.84 9.84 0 0 1-2.486-.322 4.154 4.154 0 0 1 .059-8.035c.857-.206 1.736-.31 2.617-.312h7.459l-.025-.005ZM58.241 80.854a35.066 35.066 0 0 1 0-2.867V76.93c-.307-4.515-.087-9.22 3.486-13.086 2.993-3.237 6.483-4.876 10.363-4.876 1.468.01 2.927.23 4.334.654 5.956 1.75 9.52 5.928 10.026 11.765.425 4.983.259 9.127-.487 12.676-1.253 5.802-6.975 10.176-13.303 10.176-.523 0-1.045-.03-1.564-.093-7.161-.907-12.44-6.363-12.855-13.291Zm18.777 25.085a8.085 8.085 0 0 1-4.572 1.619 7.658 7.658 0 0 1-4.173-1.375c-3.222-2.063-3.9-3.608-3.26-7.513l.18-1.117 1.082.346a19.98 19.98 0 0 0 12.254 0l.941-.302.288.946c.936 3.042.014 5.529-2.74 7.396Zm-35.204 9.751c.175-2.554 2.077-4.573 5.206-5.538 5.02-1.541 8.92-2.643 12.64-3.584.16-.041.323-.06.487-.058a4.42 4.42 0 0 1 2.754 1.345c2.774 2.872 6.172 4.452 9.56 4.452 1.64-.002 3.26-.369 4.742-1.073a16.01 16.01 0 0 0 3.179-2.218c.643-.532 1.31-1.078 2.023-1.57a4.9 4.9 0 0 1 2.437-.922c.179-.002.358.02.531.064a274.5 274.5 0 0 1 12.245 3.491c3.29.975 5.055 3.057 5.396 6.338l.108.975-.975.093c-5.484.531-8.658 1.667-10.286 3.681-1.433 1.77-1.857 4.388-1.38 8.552l.123 1.087H41.726v-.975c0-1.385 0-2.76-.039-4.14-.044-3.296-.092-6.679.132-10.005l-.005.005Zm-13.668 28.464v-8.41H133.29v8.41H28.146Zm21.56 59.97.692-1.409c.283-.565.546-1.116.81-1.653.677-1.409 1.32-2.735 2.052-4.022l.034-.063.044-.054a3.08 3.08 0 0 1 1.023-.848c.41-.21.861-.327 1.321-.342 7.8 0 15.667-.039 23.447-.039 7.78 0 15.662 0 23.442.039H102.673a3.296 3.296 0 0 1 2.374 1.429l.034.054c.702 1.209 1.306 2.437 1.95 3.783.263.556.536 1.121.829 1.707l.697 1.409-58.851.009Zm73.664-46.459H53.503v4.529h69.824v42.028h-4.714c-1.355 0-2.398-.029-3.383-.093-1.263-.083-2.155-1.716-2.252-1.906a356.8 356.8 0 0 1-5.245-10.473 1.263 1.263 0 0 0-1.424-.897 12951.077 12951.077 0 0 1-54.341 0c-.839 0-1.121.166-1.463.858-1.501 3.145-3.197 6.533-5.337 10.663-.322.639-1.14 1.731-2.14 1.785-1 .053-2.033.078-3.412.078H34.873v-41.96h9.749v-4.588h-9.75v-8.63h88.498v8.606Zm4.943-8.679h9.944v-2.867c0-3.169.03-6.168-.048-9.171a5.739 5.739 0 0 1 1.925-4.622c6.21-6.109 13.415-13.223 20.376-20.37a34.192 34.192 0 0 0 3.256-4.091c.487-.648.912-1.268 1.37-1.863l1.745-2.272v41.511c0 8.011-4.436 12.424-12.474 12.424h-26.094v-8.679Zm0 55.177v-28.366h18.777l.088.878c.872 8.776 1.745 17.503 2.632 26.377l.107 1.072-21.604.039Zm33.893.127h-2.964c-1.169 0-2.062 0-2.9-.049h-.102l-.103-.024a2.219 2.219 0 0 1-1.564-1.482l-.03-.098v-.097a4901.98 4901.98 0 0 1-2.115-21.034l-.566-5.685h8.584l2.852 28.43-1.092.039Z"/><path d="M80.918 13v29.585h22.091v18.196c.234-.195.463-.38.693-.58 2.031-1.687 4.06-3.379 6.088-5.076 4.358-3.647 8.862-7.415 13.366-11.072a6.825 6.825 0 0 1 3.973-1.463c4.996-.058 9.905-.063 13.624-.063h13.8V13H80.918Zm69.365 25.139h-12.489c-3.548 0-8.228 0-12.917.068a4.615 4.615 0 0 0-2.642.931c-2.633 2.097-5.27 4.31-7.8 6.45-1.213 1.015-2.437 2.034-3.641 3.043-.307.258-.629.488-1.038.81l-.805.614-1.569 1.214v-13.14H85.354v-20.74h64.929v20.75Z"/><path d="M80.918 13v29.585h22.091v18.196c.234-.195.463-.38.693-.58 2.031-1.687 4.06-3.379 6.088-5.076 4.358-3.647 8.862-7.415 13.366-11.072a6.825 6.825 0 0 1 3.973-1.463c4.996-.058 9.905-.063 13.624-.063h13.8V13H80.918Zm69.365 25.139h-12.489c-3.548 0-8.228 0-12.917.068a4.615 4.615 0 0 0-2.642.931c-2.633 2.097-5.27 4.31-7.8 6.45-1.213 1.015-2.437 2.034-3.641 3.043-.307.258-.629.488-1.038.81l-.805.614-1.569 1.214v-13.14H85.354v-20.74h64.929v20.75Z"/><path d="M129.308 25.599h-23.072v4.149h23.072v-4.15Z"/><path d="M129.308 25.599h-23.072v4.149h23.072v-4.15ZM97.77 25.628h-4.217v4.144h4.216v-4.144Z"/><path d="M97.77 25.628h-4.217v4.144h4.216v-4.144ZM141.967 25.599h-4.129v4.149h4.129v-4.15Z"/><path d="M141.967 25.599h-4.129v4.149h4.129v-4.15Z"/></g><defs><clipPath id="a"><path fill="#fff" d="M0 0h220v200H0z"/></clipPath></defs></svg>