<svg xmlns="http://www.w3.org/2000/svg" width="220" height="200" fill="none"><path fill="#525252" d="M191.722 20.475a1.365 1.365 0 0 0-.206-1.873 1.428 1.428 0 0 0-.949-.602h-.19a1.406 1.406 0 0 0-.825.289c-.542.386-1.045.826-1.501 1.311l-.165.165A359191.054 359191.054 0 0 1 29.79 177.851c-.42.437-.825.899-1.212 1.385l-.083.091-.074.107-.421.512V182h2.079l.363-.28c.43-.319.838-.667 1.221-1.04C84.678 127.674 137.695 74.663 190.716 21.646a7.635 7.635 0 0 0 1.006-1.171ZM147.945 178.637c0-.414-.05-.828 0-1.284v-2.219c-.066-1.442-.6-1.98-1.96-1.98h-27.436c-.967 0-1.876.232-1.96 1.955v3.462H86.401v-38.523a6.97 6.97 0 0 0-.242-2.071 1.343 1.343 0 0 0-.509-.737 1.342 1.342 0 0 0-.776-.24h-.325c-.35.003-.69.126-.96.348a1.48 1.48 0 0 0-.5.919 4.99 4.99 0 0 0-.083 1.176v39.973c0 1.342.333 2.079 1.142 2.543l.076.041h34.609l.084-.05c1.042-.621 1.092-1.582 1.092-3.362v-2.03h24.5l.05 1.077v.878c0 1.483.041 2.65 1.009 3.412l.092.075h1.143c.876-.447 1.243-1.209 1.193-2.485v-.662l-.051-.216ZM180.969 131.763a6.547 6.547 0 0 0-.143-1.497 1.44 1.44 0 0 0-.574-.971 1.5 1.5 0 0 0-1.11-.28 1.547 1.547 0 0 0-1.036.428c-.292.269-.47.636-.496 1.028a11.44 11.44 0 0 0 0 1.283v46.939h-20.122c-1.885 0-2.281.601-2.416 1.185-.185.781-.076 1.439 1.069 2.081l.076.041h23.573l.093-.066c.4-.34.708-.77.899-1.253a3.103 3.103 0 0 0 .195-1.519v-32.271l-.008-15.128ZM133.579 61.129c0 1.226.681 1.992 1.727 1.992.706 0 1.561-.379 1.594-1.951.1-3.885.125-8.058.075-13.112 0-1.424-.531-1.968-2.051-2.058H53.012c-.44 0-.905 0-1.37.066a1.667 1.667 0 0 0-1.11.49 1.64 1.64 0 0 0-.476 1.107 7.67 7.67 0 0 0-.05 1.243V143.9c.133 1.827 1.121 2.099 1.661 2.099s1.586-.272 1.66-2.099V138.073l.94-.164c.618-.09 1.242-.14 1.867-.148 2.209-.066 2.64-.206 2.65-1.647.007-1.44-.524-1.646-2.6-1.703-.61 0-1.217-.049-1.818-.149l-.914-.172v-18.381h13.294v6.026c0 1.992 0 4.049.075 6.099a1.596 1.596 0 0 0 .473 1.136c.15.147.327.261.523.337.186.082.386.13.59.14a1.668 1.668 0 0 0 1.1-.472c.295-.287.471-.674.494-1.083.074-.676.102-1.355.083-2.034v-10.025l1.004-.091.499-.049c.305-.041.613-.065.921-.074h9.225c1.346 0 1.935-.371 2.259-1.408.119-.325.305-.623.548-.872.263-.252.581-.44.93-.552.963-.271 1.32-.823 1.345-2.173V93.609H99.75l.258.732c.432 1.178 1.129 2 1.661 2a.916.916 0 0 0 .564-.197 16.216 16.216 0 0 0 3.894-3.885.815.815 0 0 0 .158-.33.808.808 0 0 0 0-.378 3.315 3.315 0 0 0-1.993-1.556l-.739-.263V71.566h13.286v5.893c0 1.457.564 2.198 1.66 2.198.399 0 1.661 0 1.661-2.198v-6.115h4.716c.889 0 1.594 0 2.242-.05.648-.05 1.229-.304 1.221-.98a3.383 3.383 0 0 0-.831-1.966l-.066-.075h-.1a6.699 6.699 0 0 0-1.204-.131h-5.937v-18.75h13.286v5.58c.058 2.041.058 4.083.091 6.157Zm-29.892 6.947V49.39h13.169v18.644l-13.169.04Zm-3.537 3.473v18.586H87.014V71.508l13.136.041ZM86.964 68.01V49.391h13.145V68.01H86.964Zm-3.611 25.648v18.504H70.208V93.658h13.145Zm0-3.506H70.266V71.566h13.128l-.041 18.586Zm0-22.051h-7.988c-1.18 0-2.11 0-2.965-.058s-2.2-.889-2.225-1.934a819.635 819.635 0 0 1-.05-12.775V49.39h13.286l-.058 18.71ZM66.588 93.617v18.602H53.461v-18.61l13.127.008Zm0-22.06v18.578H53.461V71.55l13.127.009Zm-13.127-3.605v-18.56h13.194v18.56H53.46Z"/><path fill="#525252" d="M39.16 155.843c.056.336.235.64.502.853.268.213.605.321.946.302h.249a1.45 1.45 0 0 0 1.424-1.411c.05-.452.066-.907.05-1.361V37.906h19.504c2.426 0 2.765-.338 2.765-2.73V26.86h20.01c1.656 0 2.185-.511 2.26-2.161V21.48h13.32v2.343c0 2.772.274 3.028 2.972 3.028h19.108v7.746H75.147a6.317 6.317 0 0 0-1.656.215 1.378 1.378 0 0 0-1.045 1.114c-.03.178-.023.36.019.536-.008.346.117.682.348.94.242.26.572.422.927.454.334.051.672.08 1.01.082h69.872v5.957c0 2.02 0 4.124.066 6.154a1.652 1.652 0 0 0 1.656 1.732c.911 0 1.515-.701 1.656-1.848V37.321c0-2.343-.397-2.731-2.823-2.731h-16.508c-.414 0-.828 0-1.242-.05h-.662l-1.06-.049v-8.324c0-2.244-.405-2.64-2.715-2.64h-19.472v-2.664c0-2.475-.397-2.863-2.864-2.863h-14.81c-1.805 0-2.286.462-2.335 2.227v3.3h-19.87c-1.862 0-2.384.52-2.483 2.351v8.712H41.635c-2.12 0-2.633.528-2.633 2.632v117.186c-.014.483.039.966.158 1.435ZM191.989 100.294V80.969c0-1.965-.45-2.42-2.405-2.42h-19.538v-3.072c-.049-2.031-.499-2.477-2.389-2.477H157.856c-1.53 0-2.054.512-2.103 2.114-.049 1.602-.065 3.303 0 4.806.002.514.175 1.011.491 1.413.143.166.322.296.524.38.198.077.409.117.621.115.909 0 1.514-.71 1.637-1.858a15.69 15.69 0 0 0 0-1.652V76.42h7.584l.074 1.247v1.164c.041 2.7.327 2.982 3.043 2.982h18.818l-.164 41.002c-.434-.429-1.137-1.09-2.242-2.138-.466-.438-.957-.892-1.031-.975a26057.532 26057.532 0 0 0-25.837-26.096l-13.72-13.907a4.034 4.034 0 0 0-.377-.38 2.445 2.445 0 0 0-1.636-.768 1.39 1.39 0 0 0-.564.124 1.5 1.5 0 0 0-.491.363c-.146.13-.264.291-.344.47a1.56 1.56 0 0 0-.139.554c.028.31.111.612.245.892.139.317.346.6.606.826l45.865 46.296c.819.826 1.301.925 1.588.925.226-.002.449-.053.654-.149.663-.289 1.039-.743 1.039-2.18.006-8.809.003-17.601-.008-26.377ZM133.005 145.152v3.891l5.659-.105v13.105c-.015.65.051 1.299.198 1.933.075.289.244.546.482.731.238.185.531.288.834.293h.314c.34 0 .668-.118.927-.333.27-.224.445-.541.488-.886.071-.473.101-.951.091-1.43v-30.686c0-2.243-.422-2.665-2.68-2.665h-14.629c-2.184 0-2.689.536-2.689 2.714v30.654c-.006.497.05.994.166 1.478.065.319.24.607.496.813.239.179.528.281.828.292h.298c.372.003.731-.137 1.001-.39.267-.256.426-.601.447-.967.043-.431.06-.866.049-1.299v-29.931h13.238v12.698l-5.518.09ZM170 151.544V131.52c0-1.971-.538-2.512-2.481-2.52h-14.955c-2.043 0-2.547.485-2.564 2.464v19.838c0 2.205.471 2.682 2.655 2.698h14.797c1.936 0 2.548-.549 2.548-2.456Zm-16.543-.928v-18.272h13.061v18.272h-13.061ZM107.905 129H96.363c-1.832 0-2.346.501-2.363 2.329v20.325c0 1.82.498 2.33 2.33 2.346h15.315c1.849 0 2.355-.501 2.355-2.329v-20.309c0-1.82-.506-2.33-2.363-2.346l-3.732-.016Zm2.695 3.389V150.7H97.474v-18.311H110.6Z"/></svg>