<svg xmlns="http://www.w3.org/2000/svg" width="220" height="200" fill="none"><path fill="#525252" d="M200.953 74.607c-1.022-2.344-2.069-4.764-3.245-7.056-1.717-3.28-3.433-6.576-5.21-9.769-1.294-2.38-2.578-4.767-3.855-7.159a7.632 7.632 0 0 1-.858-3.288V32.081c-.043-9.974-7.005-16.988-16.945-17.065h-17.288a6.203 6.203 0 0 0-1.228.078 1.587 1.587 0 0 0-1.433 1.716 1.55 1.55 0 0 0 .297 1.169 1.565 1.565 0 0 0 1.042.608 9.318 9.318 0 0 0 1.983.138H171.278c6.773.085 12.018 4.704 12.567 10.979.251 3.917.306 7.845.163 11.768 0 1.717-.069 3.434-.069 5.202v.859H36.431v-.859c0-1.716 0-3.356-.043-5.021-.043-3.769-.095-7.657.111-11.469a11.417 11.417 0 0 1 7.331-10.3 16.653 16.653 0 0 1 6.318-1.15c20.215-.052 40.165-.052 60.535-.052h28.224c2.884.068 2.884-1.185 2.884-1.786a1.614 1.614 0 0 0-.386-1.202 3.476 3.476 0 0 0-2.421-.678H50.422c-1.047 0-1.896 0-2.66.078a16.01 16.01 0 0 0-14.748 13.4 45.91 45.91 0 0 0-.335 6.79v2.326c0 1.184 0 2.42.095 3.622.249 2.594.121 5.21-.378 7.769a26.104 26.104 0 0 1-3.434 7.099A88.82 88.82 0 0 0 27.246 59l-.172.3c-.43.859-.953 2.361.412 3.117.262.148.557.227.858.231a2.471 2.471 0 0 0 1.983-1.528l.567-1.038c1.219-2.198 2.48-4.473 3.622-6.756a3.125 3.125 0 0 1 3.142-1.931h18.748c.39.007.78.035 1.167.085l.567.052.858.077-.206 1.786c-.069.566-.12 1.081-.189 1.596l-.936 8a9061.758 9061.758 0 0 0-2.163 17.933c-.66 5.562-3.356 9.717-8.017 12.335a17.074 17.074 0 0 1-8.421 2.129 22.731 22.731 0 0 1-4.146-.403 15.984 15.984 0 0 1-11.967-9.443 12.954 12.954 0 0 1 .859-12.318 2.017 2.017 0 0 0 .378-1.622 1.803 1.803 0 0 0-.859-1.16 1.819 1.819 0 0 0-.91-.265 2.36 2.36 0 0 0-1.871 1.304c-3.983 6.49-2.859 15.228 2.721 21.255a20.31 20.31 0 0 0 8.799 5.493l.584.198v69.102a21.178 21.178 0 0 0 .566 5.15c1.94 7.588 8.335 12.301 16.722 12.301h120.503c.747 0 1.52 0 2.292-.086 7.434-.523 13.735-6.223 14.593-13.262.356-3.355.485-6.731.386-10.104v-3.914a2.476 2.476 0 0 0-.601-1.794 1.713 1.713 0 0 0-1.27-.489c-1.64 0-1.837 1.648-1.837 2.352v9.794c0 8.498-5.253 13.778-13.683 13.778H50.019c-8.404 0-13.631-5.228-13.631-13.641V98.857l.91.06c.612.034 1.213.052 1.802.052 7.64 0 13.391-3.125 17.572-9.546l.678-1.056.738 1.022s.919 1.279 1.193 1.648a18.972 18.972 0 0 0 8.687 6.653c.274.106.565.165.859.171a1.717 1.717 0 0 0 1.717-1.107 1.931 1.931 0 0 0-1.16-2.507c-8.111-4.086-11.073-9.622-9.905-18.533.506-3.88 1.073-7.811 1.614-11.623.497-3.485.984-6.975 1.459-10.472.292-2.198 1.923-2.215 2.781-2.215H88.57c.39.007.78.036 1.168.086l.566.06.781.069V79.74c.007.716-.044 1.43-.154 2.138a15.452 15.452 0 0 1-9.443 12.112c-1.33.575-1.794 1.124-1.768 2.094a1.657 1.657 0 0 0 1.785 1.717 3.047 3.047 0 0 0 1.16-.24 19.623 19.623 0 0 0 9.562-8.198l.712-1.124.73 1.115c4.19 6.413 9.7 9.537 16.937 9.563 7.013 0 12.687-3.193 16.876-9.502l.721-1.074.712 1.074c4.249 6.377 9.709 9.442 16.791 9.442 6.944 0 12.387-3.133 16.644-9.494l.721-1.082.713 1.1c4.163 6.429 9.923 9.553 17.606 9.553.566 0 1.15 0 1.717-.051l.91-.06v44.74c-.033.39-.015.782.051 1.167a1.72 1.72 0 0 0 1.717 1.52h.103c.431.018.852-.126 1.182-.404.329-.279.541-.671.595-1.099.073-.384.096-.776.068-1.167V98.771l.378-.352c.113-.116.247-.21.395-.275l.549-.206c.258-.103.524-.197.782-.309a19.169 19.169 0 0 0 11.94-13.734l.335-1.288.137-.515V77.68a305.03 305.03 0 0 0-1.296-3.073Zm-74.682 5.322a15.56 15.56 0 0 1-13.107 15.1 18.78 18.78 0 0 1-2.49.171A15.381 15.381 0 0 1 95.48 84.04a15.184 15.184 0 0 1-.635-4.154V53.533c.003-.287.023-.574.06-.858v-.395l.06-.79h31.032l.111.73c0 .094 0 .197.06.291.065.282.102.57.112.859v7.09c.06 6.421.06 12.997.06 19.47h-.069Zm30.148 10.842a15.048 15.048 0 0 1-10.507 4.506 16.357 16.357 0 0 1-5.958-1.184c-6.111-2.37-9.597-7.168-9.803-13.494-.206-6.524-.163-13.16-.12-19.572v-8.035c.007-.212.051-.42.129-.618 0-.06 0-.129.06-.206l.163-.592.61-.043h.472c.386 0 .772-.069 1.159-.069H155.363c1.768 0 2.618.756 2.833 2.533.463 3.794.952 7.596 1.442 11.39.446 3.52.858 7.031 1.33 10.542.816 6.326-.678 11.194-4.523 14.842h-.026Zm35.358 1.717a17.377 17.377 0 0 1-4.713 2.249 17.7 17.7 0 0 1-5.219.772c-7.777 0-14.49-4.816-16.31-11.691a25.206 25.206 0 0 1-.627-5.228c0-.987-.094-2-.214-2.97-.61-5.048-1.253-10.086-1.897-15.125l-.859-6.807a7.29 7.29 0 0 1-.06-.782l-.086-1.253.859-.086.498-.06c.352-.05.708-.079 1.064-.086h18.722a3.01 3.01 0 0 1 2.919 1.88 1165.11 1165.11 0 0 1 2.729 5.15c2.524 4.816 5.151 9.795 7.975 14.508 4.283 7.159.875 15.717-4.756 19.537l-.025-.008Z"/><path fill="#525252" d="M200.953 74.607c-1.022-2.344-2.069-4.764-3.245-7.056-1.717-3.28-3.433-6.576-5.21-9.769-1.294-2.38-2.578-4.767-3.855-7.159a7.632 7.632 0 0 1-.858-3.288V32.081c-.043-9.974-7.005-16.988-16.945-17.065h-17.288a6.203 6.203 0 0 0-1.228.078 1.587 1.587 0 0 0-1.433 1.716 1.55 1.55 0 0 0 .297 1.169 1.565 1.565 0 0 0 1.042.608 9.318 9.318 0 0 0 1.983.138H171.278c6.773.085 12.018 4.704 12.567 10.979.251 3.917.306 7.845.163 11.768 0 1.717-.069 3.434-.069 5.202v.859H36.431v-.859c0-1.716 0-3.356-.043-5.021-.043-3.769-.095-7.657.111-11.469a11.417 11.417 0 0 1 7.331-10.3 16.653 16.653 0 0 1 6.318-1.15c20.215-.052 40.165-.052 60.535-.052h28.224c2.884.068 2.884-1.185 2.884-1.786a1.614 1.614 0 0 0-.386-1.202 3.476 3.476 0 0 0-2.421-.678H50.422c-1.047 0-1.896 0-2.66.078a16.01 16.01 0 0 0-14.748 13.4 45.91 45.91 0 0 0-.335 6.79v2.326c0 1.184 0 2.42.095 3.622.249 2.594.121 5.21-.378 7.769a26.104 26.104 0 0 1-3.434 7.099A88.82 88.82 0 0 0 27.246 59l-.172.3c-.43.859-.953 2.361.412 3.117.262.148.557.227.858.231a2.471 2.471 0 0 0 1.983-1.528l.567-1.038c1.219-2.198 2.48-4.473 3.622-6.756a3.125 3.125 0 0 1 3.142-1.931h18.748c.39.007.78.035 1.167.085l.567.052.858.077-.206 1.786c-.069.566-.12 1.081-.189 1.596l-.936 8a9061.758 9061.758 0 0 0-2.163 17.933c-.66 5.562-3.356 9.717-8.017 12.335a17.074 17.074 0 0 1-8.421 2.129 22.731 22.731 0 0 1-4.146-.403 15.984 15.984 0 0 1-11.967-9.443 12.954 12.954 0 0 1 .859-12.318 2.017 2.017 0 0 0 .378-1.622 1.803 1.803 0 0 0-.859-1.16 1.819 1.819 0 0 0-.91-.265 2.36 2.36 0 0 0-1.871 1.304c-3.983 6.49-2.859 15.228 2.721 21.255a20.31 20.31 0 0 0 8.799 5.493l.584.198v69.102a21.178 21.178 0 0 0 .566 5.15c1.94 7.588 8.335 12.301 16.722 12.301h120.503c.747 0 1.52 0 2.292-.086 7.434-.523 13.735-6.223 14.593-13.262.356-3.355.485-6.731.386-10.104v-3.914a2.476 2.476 0 0 0-.601-1.794 1.713 1.713 0 0 0-1.27-.489c-1.64 0-1.837 1.648-1.837 2.352v9.794c0 8.498-5.253 13.778-13.683 13.778H50.019c-8.404 0-13.631-5.228-13.631-13.641V98.857l.91.06c.612.034 1.213.052 1.802.052 7.64 0 13.391-3.125 17.572-9.546l.678-1.056.738 1.022s.919 1.279 1.193 1.648a18.972 18.972 0 0 0 8.687 6.653c.274.106.565.165.859.171a1.717 1.717 0 0 0 1.717-1.107 1.931 1.931 0 0 0-1.16-2.507c-8.111-4.086-11.073-9.622-9.905-18.533.506-3.88 1.073-7.811 1.614-11.623.497-3.485.984-6.975 1.459-10.472.292-2.198 1.923-2.215 2.781-2.215H88.57c.39.007.78.036 1.168.086l.566.06.781.069V79.74c.007.716-.044 1.43-.154 2.138a15.452 15.452 0 0 1-9.443 12.112c-1.33.575-1.794 1.124-1.768 2.094a1.657 1.657 0 0 0 1.785 1.717 3.047 3.047 0 0 0 1.16-.24 19.623 19.623 0 0 0 9.562-8.198l.712-1.124.73 1.115c4.19 6.413 9.7 9.537 16.937 9.563 7.013 0 12.687-3.193 16.876-9.502l.721-1.074.712 1.074c4.249 6.377 9.709 9.442 16.791 9.442 6.944 0 12.387-3.133 16.644-9.494l.721-1.082.713 1.1c4.163 6.429 9.923 9.553 17.606 9.553.566 0 1.15 0 1.717-.051l.91-.06v44.74c-.033.39-.015.782.051 1.167a1.72 1.72 0 0 0 1.717 1.52h.103c.431.018.852-.126 1.182-.404.329-.279.541-.671.595-1.099.073-.384.096-.776.068-1.167V98.771l.378-.352c.113-.116.247-.21.395-.275l.549-.206c.258-.103.524-.197.782-.309a19.169 19.169 0 0 0 11.94-13.734l.335-1.288.137-.515V77.68a305.03 305.03 0 0 0-1.296-3.073Zm-74.682 5.322a15.56 15.56 0 0 1-13.107 15.1 18.78 18.78 0 0 1-2.49.171A15.381 15.381 0 0 1 95.48 84.04a15.184 15.184 0 0 1-.635-4.154V53.533c.003-.287.023-.574.06-.858v-.395l.06-.79h31.032l.111.73c0 .094 0 .197.06.291.065.282.102.57.112.859v7.09c.06 6.421.06 12.997.06 19.47h-.069Zm30.148 10.842a15.048 15.048 0 0 1-10.507 4.506 16.357 16.357 0 0 1-5.958-1.184c-6.111-2.37-9.597-7.168-9.803-13.494-.206-6.524-.163-13.16-.12-19.572v-8.035c.007-.212.051-.42.129-.618 0-.06 0-.129.06-.206l.163-.592.61-.043h.472c.386 0 .772-.069 1.159-.069H155.363c1.768 0 2.618.756 2.833 2.533.463 3.794.952 7.596 1.442 11.39.446 3.52.858 7.031 1.33 10.542.816 6.326-.678 11.194-4.523 14.842h-.026Zm35.358 1.717a17.377 17.377 0 0 1-4.713 2.249 17.7 17.7 0 0 1-5.219.772c-7.777 0-14.49-4.816-16.31-11.691a25.206 25.206 0 0 1-.627-5.228c0-.987-.094-2-.214-2.97-.61-5.048-1.253-10.086-1.897-15.125l-.859-6.807a7.29 7.29 0 0 1-.06-.782l-.086-1.253.859-.086.498-.06c.352-.05.708-.079 1.064-.086h18.722a3.01 3.01 0 0 1 2.919 1.88 1165.11 1165.11 0 0 1 2.729 5.15c2.524 4.816 5.151 9.795 7.975 14.508 4.283 7.159.875 15.717-4.756 19.537l-.025-.008Z"/><path fill="#525252" d="M144.573 117.064a2.326 2.326 0 0 0-1.717-.747H83.514a2.797 2.797 0 0 1-3.107-2.18 8.797 8.797 0 0 0-8.147-6.155c-.78 0-1.553-.052-2.334-.052-.782 0-1.666 0-2.498.052-1.262 0-2.035.704-2.052 1.777-.017 1.073.704 1.794 1.966 1.88.635 0 1.253.051 1.785.051h2.344c3.236.086 5.15 1.631 5.794 4.756a704.716 704.716 0 0 1 1.717 8.249c1.845 8.584 3.76 17.546 5.502 26.345 1.005 5.03 2.498 8.446 6.867 9.923l.696.24-.129.721c-.575 3.185-.12 5.949 1.279 7.786a6.669 6.669 0 0 0 4.816 2.507h.815a6.872 6.872 0 0 0 4.859-1.915c2.129-1.991 2.807-4.524 2.094-7.725l-.232-1.039h14.01l-.223 1.039c-.859 3.794.145 6.558 2.995 8.472a7.117 7.117 0 0 0 3.983 1.305 7.195 7.195 0 0 0 3.82-1.185c3.013-1.888 4.061-4.687 3.211-8.584l-.138-.781.773-.223.249-.077c.194-.065.392-.116.592-.155a1.756 1.756 0 0 0 1.302-.613 1.765 1.765 0 0 0 .415-1.378c0-1.031-.858-1.666-2.146-1.717-1.288-.052-2.575 0-3.846 0H95c-2.962 0-4.85-1.082-5.777-3.297a15.487 15.487 0 0 1-.764-2.824 31.948 31.948 0 0 0-.31-1.45l-.248-1.065h48.671c1.571 0 2.284-.506 2.576-1.794l.703-3.434c1.683-8.315 3.363-16.641 5.039-24.979a2.197 2.197 0 0 0-.317-1.734Zm-18.233 44.388h.215a3.524 3.524 0 0 1 3.281 3.631 3.528 3.528 0 0 1-3.504 3.417h-.215a3.53 3.53 0 0 1-2.218-6.046 3.532 3.532 0 0 1 2.441-1.002Zm-27.598 0h.155a3.538 3.538 0 0 1 2.472 1.088 3.538 3.538 0 0 1 .979 2.517c-.011.464-.112.92-.298 1.345a3.54 3.54 0 0 1-1.952 1.867 3.528 3.528 0 0 1-1.356.239h-.146a3.527 3.527 0 1 1 .146-7.056Zm-14.936-32.113c-.48-2.017-.858-4.043-1.34-6.18l-.634-3.039H97.48l1.39 10.704H85.592a2.111 2.111 0 0 1-1.786-1.485Zm8.447 15.966c-4.825 0-5.15-.283-6.164-5.073l-1.159-5.554H99.3l1.374 10.627h-8.421Zm26.267-.06h-14.078l-1.356-10.549h16.807l-1.373 10.549Zm1.854-14.593h-17.752l-1.356-10.481h20.422l-1.314 10.481Zm16.842 7.005c-.412 2.103-.798 4.086-1.245 6.095a2.166 2.166 0 0 1-1.794 1.476h-11.863l1.331-10.584H137.8l-.584 3.013Zm2.936-14.593a277.088 277.088 0 0 1-1.331 6.421c-.206.858-1.493 1.262-2.111 1.27H124.151l1.331-10.627h15.271l-.601 2.936Z"/><path fill="#525252" d="M144.573 117.064a2.326 2.326 0 0 0-1.717-.747H83.514a2.797 2.797 0 0 1-3.107-2.18 8.797 8.797 0 0 0-8.147-6.155c-.78 0-1.553-.052-2.334-.052-.782 0-1.666 0-2.498.052-1.262 0-2.035.704-2.052 1.777-.017 1.073.704 1.794 1.966 1.88.635 0 1.253.051 1.785.051h2.344c3.236.086 5.15 1.631 5.794 4.756a704.716 704.716 0 0 1 1.717 8.249c1.845 8.584 3.76 17.546 5.502 26.345 1.005 5.03 2.498 8.446 6.867 9.923l.696.24-.129.721c-.575 3.185-.12 5.949 1.279 7.786a6.669 6.669 0 0 0 4.816 2.507h.815a6.872 6.872 0 0 0 4.859-1.915c2.129-1.991 2.807-4.524 2.094-7.725l-.232-1.039h14.01l-.223 1.039c-.859 3.794.145 6.558 2.995 8.472a7.117 7.117 0 0 0 3.983 1.305 7.195 7.195 0 0 0 3.82-1.185c3.013-1.888 4.061-4.687 3.211-8.584l-.138-.781.773-.223.249-.077c.194-.065.392-.116.592-.155a1.756 1.756 0 0 0 1.302-.613 1.765 1.765 0 0 0 .415-1.378c0-1.031-.858-1.666-2.146-1.717-1.288-.052-2.575 0-3.846 0H95c-2.962 0-4.85-1.082-5.777-3.297a15.487 15.487 0 0 1-.764-2.824 31.948 31.948 0 0 0-.31-1.45l-.248-1.065h48.671c1.571 0 2.284-.506 2.576-1.794l.703-3.434c1.683-8.315 3.363-16.641 5.039-24.979a2.197 2.197 0 0 0-.317-1.734Zm-18.233 44.388h.215a3.524 3.524 0 0 1 3.281 3.631 3.528 3.528 0 0 1-3.504 3.417h-.215a3.53 3.53 0 0 1-2.218-6.046 3.532 3.532 0 0 1 2.441-1.002Zm-27.598 0h.155a3.538 3.538 0 0 1 2.472 1.088 3.538 3.538 0 0 1 .979 2.517c-.011.464-.112.92-.298 1.345a3.54 3.54 0 0 1-1.952 1.867 3.528 3.528 0 0 1-1.356.239h-.146a3.527 3.527 0 1 1 .146-7.056Zm-14.936-32.113c-.48-2.017-.858-4.043-1.34-6.18l-.634-3.039H97.48l1.39 10.704H85.592a2.111 2.111 0 0 1-1.786-1.485Zm8.447 15.966c-4.825 0-5.15-.283-6.164-5.073l-1.159-5.554H99.3l1.374 10.627h-8.421Zm26.267-.06h-14.078l-1.356-10.549h16.807l-1.373 10.549Zm1.854-14.593h-17.752l-1.356-10.481h20.422l-1.314 10.481Zm16.842 7.005c-.412 2.103-.798 4.086-1.245 6.095a2.166 2.166 0 0 1-1.794 1.476h-11.863l1.331-10.584H137.8l-.584 3.013Zm2.936-14.593a277.088 277.088 0 0 1-1.331 6.421c-.206.858-1.493 1.262-2.111 1.27H124.151l1.331-10.627h15.271l-.601 2.936ZM176.188 30.167a6.943 6.943 0 0 0-6.747-4.24h-44.354c-1.571 0-2.859 0-4.052.068a7.285 7.285 0 0 0-5.803 3.15 7.21 7.21 0 0 0-.858 6.473c1.09 3.185 3.88 4.944 7.863 4.953h46.44a17.65 17.65 0 0 0 1.888-.129 6.722 6.722 0 0 0 4.661-2.575 6.87 6.87 0 0 0 .962-7.7Zm-5.743 6.438c-.777.153-1.569.219-2.36.198h-45.333c-1.974 0-3.339-.42-4.172-1.288a3.201 3.201 0 0 1-.824-2.472c.112-3.073 2.936-3.434 5.047-3.434h45.908a9.027 9.027 0 0 1 1.571.112 3.333 3.333 0 0 1 2.867 3.339 3.307 3.307 0 0 1-2.704 3.545Z"/><path fill="#525252" d="M176.188 30.167a6.943 6.943 0 0 0-6.747-4.24h-44.354c-1.571 0-2.859 0-4.052.068a7.285 7.285 0 0 0-5.803 3.15 7.21 7.21 0 0 0-.858 6.473c1.09 3.185 3.88 4.944 7.863 4.953h46.44a17.65 17.65 0 0 0 1.888-.129 6.722 6.722 0 0 0 4.661-2.575 6.87 6.87 0 0 0 .962-7.7Zm-5.743 6.438c-.777.153-1.569.219-2.36.198h-45.333c-1.974 0-3.339-.42-4.172-1.288a3.201 3.201 0 0 1-.824-2.472c.112-3.073 2.936-3.434 5.047-3.434h45.908a9.027 9.027 0 0 1 1.571.112 3.333 3.333 0 0 1 2.867 3.339 3.307 3.307 0 0 1-2.704 3.545ZM72.801 25.927h-.171a7.297 7.297 0 0 0-.07 14.593h.087a7.28 7.28 0 0 0 .154-14.55v-.043Zm-.163 10.807a3.59 3.59 0 0 1-2.575-1.082 3.494 3.494 0 0 1-.996-2.575 3.528 3.528 0 0 1 3.545-3.433 3.589 3.589 0 0 1 2.576 1.081 3.434 3.434 0 0 1 .995 2.575 3.597 3.597 0 0 1-3.545 3.434Z"/><path fill="#525252" d="M72.801 25.927h-.171a7.297 7.297 0 0 0-.07 14.593h.087a7.28 7.28 0 0 0 .154-14.55v-.043Zm-.163 10.807a3.59 3.59 0 0 1-2.575-1.082 3.494 3.494 0 0 1-.996-2.575 3.528 3.528 0 0 1 3.545-3.433 3.589 3.589 0 0 1 2.576 1.081 3.434 3.434 0 0 1 .995 2.575 3.597 3.597 0 0 1-3.545 3.434ZM94.055 25.927a7.297 7.297 0 0 0-7.296 7.245 7.202 7.202 0 0 0 2.112 5.15 7.278 7.278 0 0 0 5.15 2.146 7.27 7.27 0 0 0 5.15-2.155 7.28 7.28 0 0 0-5.201-12.395l.085.009Zm0 10.798h-.291a3.528 3.528 0 0 1 .3-7.047h.292a3.528 3.528 0 0 1-.3 7.039v.008Z"/><path fill="#525252" d="M94.055 25.927a7.297 7.297 0 0 0-7.296 7.245 7.202 7.202 0 0 0 2.112 5.15 7.278 7.278 0 0 0 5.15 2.146 7.27 7.27 0 0 0 5.15-2.155 7.28 7.28 0 0 0-5.201-12.395l.085.009Zm0 10.798h-.291a3.528 3.528 0 0 1 .3-7.047h.292a3.528 3.528 0 0 1-.3 7.039v.008ZM56.354 28.021a7.373 7.373 0 0 0-5.245-2.24 7.288 7.288 0 0 0-7.245 7.159 7.374 7.374 0 0 0 2.052 5.253 7.134 7.134 0 0 0 5.09 2.155h.095a7.357 7.357 0 0 0 7.356-7.194 7.217 7.217 0 0 0-2.103-5.133Zm-5.228 8.584a3.51 3.51 0 0 1-2.575-1.064 3.58 3.58 0 0 1 2.575-6.009 3.554 3.554 0 0 1 2.576 1.133 3.51 3.51 0 0 1 1.013 2.575 3.554 3.554 0 0 1-3.589 3.4v-.035Z"/><path fill="#525252" d="M56.354 28.021a7.373 7.373 0 0 0-5.245-2.24 7.288 7.288 0 0 0-7.245 7.159 7.374 7.374 0 0 0 2.052 5.253 7.134 7.134 0 0 0 5.09 2.155h.095a7.357 7.357 0 0 0 7.356-7.194 7.217 7.217 0 0 0-2.103-5.133Zm-5.228 8.584a3.51 3.51 0 0 1-2.575-1.064 3.58 3.58 0 0 1 2.575-6.009 3.554 3.554 0 0 1 2.576 1.133 3.51 3.51 0 0 1 1.013 2.575 3.554 3.554 0 0 1-3.589 3.4v-.035Z"/></svg>