<svg xmlns="http://www.w3.org/2000/svg" width="220" height="200" fill="none"><path fill="#525252" d="M211 172.54c-.39-.41-1.32-.58-3.18-.58h-4.64V64.43c0-9-5.41-14.4-14.47-14.42h-6.93l.41-1.67c0-.24.1-.42.15-.6 1.83-6.16-.22-11.18-5.78-14.14-10.37-5.53-21-11.12-31.18-16.52l-6.7-3.54a3.999 3.999 0 0 0-1.81-.53 1.66 1.66 0 0 0-1.56.93 1.764 1.764 0 0 0-.19 1.38c.33.79.954 1.421 1.74 1.76l7.9 4.19c9.82 5.2 19.64 10.39 29.46 15.57 2.06 1.08 4.81 3 4.85 6.82 0 4-2.75 5.93-4.86 7-6.75 3.53-13.59 7.17-20.21 10.69-2.953 1.573-5.907 3.14-8.86 4.7-1.78 1-3.58 1.89-5.39 2.84l-3.27 1.71-15.24-17.32-2.87-3.28c-2.1-2.407-4.213-4.81-6.34-7.21a2.564 2.564 0 0 0-1.85-1 1.821 1.821 0 0 0-1.18.45c-.94.78-.92 2 .07 3.2l.49.57 15.68 17.86 4.56 5.23 3 3.49-1.12.59-4.55 2.41c-3.47 1.85-6.75 3.59-10.13 5.3a15.002 15.002 0 0 1-6.81 1.71 15.27 15.27 0 0 1-7.14-1.86c-12.8-6.773-25.607-13.56-38.42-20.36L45.48 50.23a7.19 7.19 0 0 1 .06-13l18.16-9.57A36565.95 36565.95 0 0 1 103 6.86 15.339 15.339 0 0 1 110.21 5c2.545.031 5.045.672 7.29 1.87 1.22.62 2.42 1.27 3.63 1.91 1.37.73 2.75 1.46 4.14 2.17.431.234.91.364 1.4.38a1.735 1.735 0 0 0 1.59-1 1.76 1.76 0 0 0 .17-1.53 2.75 2.75 0 0 0-1.38-1.41c-2.46-1.36-5-2.68-7.37-3.93A20.241 20.241 0 0 0 110.26 1a20.57 20.57 0 0 0-9.68 2.6 3543.55 3543.55 0 0 1-16.53 8.76l-8.31 4.4-11.06 5.87-20.83 11c-3.92 2.07-6 5.19-6.32 9.26a18 18 0 0 0 .34 3.92c.11.67.22 1.36.29 2l.13 1.19h-4.53c-.74 0-1.49 0-2.24.05a20.76 20.76 0 0 0-4.32.5c-6.2 1.6-9.86 6.7-9.86 13.6V172H14c-.46 0-.91 0-1.35-.05h-.69a3.839 3.839 0 0 0-3 1.15v9.85c.21.63.4 1.28.59 1.92a20.873 20.873 0 0 0 1.54 4.13c3.67 6.72 9.42 10 17.61 10h163.13c.71 0 1.43 0 2.14-.07a17.76 17.76 0 0 0 16.72-13.49c.516-2.635.754-5.316.71-8 0-.63 0-1.27.05-1.9.07-1.7-.07-2.6-.45-3ZM138 76a2.868 2.868 0 0 1 1.29-2.25c2.88-1.58 5.79-3.12 8.87-4.74l4.36-2.31-.11 1.78c-.13 2.14-.08 4.29 0 6.38.11 4.71.22 9.57-1.74 14.25A22.567 22.567 0 0 1 139.46 101l-1.45.72v-6.17C138 88.89 138 82.43 138 76Zm-2 41 .86 1.51c.43.75.86 1.48 1.28 2.2 1 1.63 1.88 3.17 2.69 4.8a4.008 4.008 0 0 1-.05 3.78 4.288 4.288 0 0 1-3.45 2.08h-2.1a4.543 4.543 0 0 1-4-2.05 4.466 4.466 0 0 1 .22-4.42c.79-1.45 1.62-2.85 2.5-4.34l1.21-2.07.84-1.49ZM68.1 72.37v-5.63l22.61 12 3.11 1.66c2.5 1.33 5.08 2.71 7.64 4a19.319 19.319 0 0 0 8.77 2.21 19.92 19.92 0 0 0 9.09-2.34c3-1.51 5.83-3 8.89-4.68l5.63-3v27l-.8.16c-1.35.28-2.71.59-4.08.9-3.06.69-6.23 1.4-9.43 1.81a75.301 75.301 0 0 1-9.55.62 72.685 72.685 0 0 1-27.15-5.3 22.871 22.871 0 0 1-14.71-21.27c-.03-2.68-.03-5.35-.02-8.14ZM32.15 53.85c.87-.05 1.73-.07 2.58-.07 7.75 0 14.25 1.9 19.89 5.8.41.28.84.54 1.28.79a15.234 15.234 0 0 1 2.68 1.88L60.43 64h-26c-2.74 0-3.15.41-3.15 3.14v91.66c0 2.72.44 3.17 3.13 3.18h13.95c.24.015.48.015.72 0a1.946 1.946 0 0 0 1.393-.589 1.948 1.948 0 0 0 .547-1.411 1.771 1.771 0 0 0-2-1.88c-1.74-.05-3.47-.06-5.2-.06h-8.39V68.11h28.68V78.23c-.67 13.27 7.18 24.2 20.49 28.53a83.717 83.717 0 0 0 25.86 4.24 78.088 78.088 0 0 0 20.54-2.74c.33-.09.67-.16 1.18-.28l2.7-.62-.44 1.62c-.17.62-.3 1.22-.43 1.79a16.108 16.108 0 0 1-1.11 3.59c-.95 1.92-2 3.78-3.12 5.58-.52.87-1 1.74-1.53 2.62-1.74 3-1.91 6.24-.47 8.76 1.44 2.52 4.31 4 7.83 4.06h.35c3.42 0 5.59-.78 7.25-2.62a7.997 7.997 0 0 0 1.11-9.4c-1.48-2.73-3.25-5.93-5.25-9.1a8.777 8.777 0 0 1-1-5.45c0-.57.06-1.11.05-1.65 0-1 1.15-1.64 1.65-1.88 11.27-5.23 16.71-13.9 16.65-26.53V68.1H185V158H62.39c-.49 0-1 0-1.53.06a1.717 1.717 0 0 0-1.74 1.81 1.748 1.748 0 0 0 1.55 2 8.39 8.39 0 0 0 1.66.11h123.52c3 0 3.34-.38 3.34-3.36V67.35c0-3-.38-3.36-3.34-3.36h-24.07l-.4-2 3.62-1.94c3.67-1.93 7.35-3.87 11-5.77a3 3 0 0 1 1.43-.28h11.79c6 .05 9.87 3.92 9.87 9.84v105.23c0 .37 0 .74-.05 1.16l-.08 1.57H21.32v-29.99c0-25.23 0-51.31-.09-77-.02-6.51 4.06-10.63 10.92-10.96ZM130.2 176.1l-.61 1.4c-1.66 3.77-4.2 5.72-7.54 5.79-3.91.09-7.89.14-11.83.14-3.88 0-7.83-.05-11.73-.13-3.34-.08-5.89-2-7.58-5.79l-.63-1.41h39.92Zm77.56 1.09c-.1.83-.17 1.65-.23 2.45a26.46 26.46 0 0 1-.75 5.17c-1.78 6.27-7.3 10.19-14.44 10.19H28.24a15.111 15.111 0 0 1-11.72-5c-2.89-3.34-4-8-3.29-13.24l.13-.85h70.05c2 0 3 .72 3.69 2.66 2 5.51 6 8.54 11.47 8.75 3.5.13 7.14.2 11.12.2 3.62 0 7.6-.06 12.17-.18a12.59 12.59 0 0 0 11.66-9c.47-1.44 1.17-2.4 3.1-2.4h68.27c.32 0 .63 0 1.08.06l.86.07 1 .07-.07 1.05Z"/><path fill="#525252" d="M211 172.54c-.39-.41-1.32-.58-3.18-.58h-4.64V64.43c0-9-5.41-14.4-14.47-14.42h-6.93l.41-1.67c0-.24.1-.42.15-.6 1.83-6.16-.22-11.18-5.78-14.14-10.37-5.53-21-11.12-31.18-16.52l-6.7-3.54a3.999 3.999 0 0 0-1.81-.53 1.66 1.66 0 0 0-1.56.93 1.764 1.764 0 0 0-.19 1.38c.33.79.954 1.421 1.74 1.76l7.9 4.19c9.82 5.2 19.64 10.39 29.46 15.57 2.06 1.08 4.81 3 4.85 6.82 0 4-2.75 5.93-4.86 7-6.75 3.53-13.59 7.17-20.21 10.69-2.953 1.573-5.907 3.14-8.86 4.7-1.78 1-3.58 1.89-5.39 2.84l-3.27 1.71-15.24-17.32-2.87-3.28c-2.1-2.407-4.213-4.81-6.34-7.21a2.564 2.564 0 0 0-1.85-1 1.821 1.821 0 0 0-1.18.45c-.94.78-.92 2 .07 3.2l.49.57 15.68 17.86 4.56 5.23 3 3.49-1.12.59-4.55 2.41c-3.47 1.85-6.75 3.59-10.13 5.3a15.002 15.002 0 0 1-6.81 1.71 15.27 15.27 0 0 1-7.14-1.86c-12.8-6.773-25.607-13.56-38.42-20.36L45.48 50.23a7.19 7.19 0 0 1 .06-13l18.16-9.57A36565.95 36565.95 0 0 1 103 6.86 15.339 15.339 0 0 1 110.21 5c2.545.031 5.045.672 7.29 1.87 1.22.62 2.42 1.27 3.63 1.91 1.37.73 2.75 1.46 4.14 2.17.431.234.91.364 1.4.38a1.735 1.735 0 0 0 1.59-1 1.76 1.76 0 0 0 .17-1.53 2.75 2.75 0 0 0-1.38-1.41c-2.46-1.36-5-2.68-7.37-3.93A20.241 20.241 0 0 0 110.26 1a20.57 20.57 0 0 0-9.68 2.6 3543.55 3543.55 0 0 1-16.53 8.76l-8.31 4.4-11.06 5.87-20.83 11c-3.92 2.07-6 5.19-6.32 9.26a18 18 0 0 0 .34 3.92c.11.67.22 1.36.29 2l.13 1.19h-4.53c-.74 0-1.49 0-2.24.05a20.76 20.76 0 0 0-4.32.5c-6.2 1.6-9.86 6.7-9.86 13.6V172H14c-.46 0-.91 0-1.35-.05h-.69a3.839 3.839 0 0 0-3 1.15v9.85c.21.63.4 1.28.59 1.92a20.873 20.873 0 0 0 1.54 4.13c3.67 6.72 9.42 10 17.61 10h163.13c.71 0 1.43 0 2.14-.07a17.76 17.76 0 0 0 16.72-13.49c.516-2.635.754-5.316.71-8 0-.63 0-1.27.05-1.9.07-1.7-.07-2.6-.45-3ZM138 76a2.868 2.868 0 0 1 1.29-2.25c2.88-1.58 5.79-3.12 8.87-4.74l4.36-2.31-.11 1.78c-.13 2.14-.08 4.29 0 6.38.11 4.71.22 9.57-1.74 14.25A22.567 22.567 0 0 1 139.46 101l-1.45.72v-6.17C138 88.89 138 82.43 138 76Zm-2 41 .86 1.51c.43.75.86 1.48 1.28 2.2 1 1.63 1.88 3.17 2.69 4.8a4.008 4.008 0 0 1-.05 3.78 4.288 4.288 0 0 1-3.45 2.08h-2.1a4.543 4.543 0 0 1-4-2.05 4.466 4.466 0 0 1 .22-4.42c.79-1.45 1.62-2.85 2.5-4.34l1.21-2.07.84-1.49ZM68.1 72.37v-5.63l22.61 12 3.11 1.66c2.5 1.33 5.08 2.71 7.64 4a19.319 19.319 0 0 0 8.77 2.21 19.92 19.92 0 0 0 9.09-2.34c3-1.51 5.83-3 8.89-4.68l5.63-3v27l-.8.16c-1.35.28-2.71.59-4.08.9-3.06.69-6.23 1.4-9.43 1.81a75.301 75.301 0 0 1-9.55.62 72.685 72.685 0 0 1-27.15-5.3 22.871 22.871 0 0 1-14.71-21.27c-.03-2.68-.03-5.35-.02-8.14ZM32.15 53.85c.87-.05 1.73-.07 2.58-.07 7.75 0 14.25 1.9 19.89 5.8.41.28.84.54 1.28.79a15.234 15.234 0 0 1 2.68 1.88L60.43 64h-26c-2.74 0-3.15.41-3.15 3.14v91.66c0 2.72.44 3.17 3.13 3.18h13.95c.24.015.48.015.72 0a1.946 1.946 0 0 0 1.393-.589 1.948 1.948 0 0 0 .547-1.411 1.771 1.771 0 0 0-2-1.88c-1.74-.05-3.47-.06-5.2-.06h-8.39V68.11h28.68V78.23c-.67 13.27 7.18 24.2 20.49 28.53a83.717 83.717 0 0 0 25.86 4.24 78.088 78.088 0 0 0 20.54-2.74c.33-.09.67-.16 1.18-.28l2.7-.62-.44 1.62c-.17.62-.3 1.22-.43 1.79a16.108 16.108 0 0 1-1.11 3.59c-.95 1.92-2 3.78-3.12 5.58-.52.87-1 1.74-1.53 2.62-1.74 3-1.91 6.24-.47 8.76 1.44 2.52 4.31 4 7.83 4.06h.35c3.42 0 5.59-.78 7.25-2.62a7.997 7.997 0 0 0 1.11-9.4c-1.48-2.73-3.25-5.93-5.25-9.1a8.777 8.777 0 0 1-1-5.45c0-.57.06-1.11.05-1.65 0-1 1.15-1.64 1.65-1.88 11.27-5.23 16.71-13.9 16.65-26.53V68.1H185V158H62.39c-.49 0-1 0-1.53.06a1.717 1.717 0 0 0-1.74 1.81 1.748 1.748 0 0 0 1.55 2 8.39 8.39 0 0 0 1.66.11h123.52c3 0 3.34-.38 3.34-3.36V67.35c0-3-.38-3.36-3.34-3.36h-24.07l-.4-2 3.62-1.94c3.67-1.93 7.35-3.87 11-5.77a3 3 0 0 1 1.43-.28h11.79c6 .05 9.87 3.92 9.87 9.84v105.23c0 .37 0 .74-.05 1.16l-.08 1.57H21.32v-29.99c0-25.23 0-51.31-.09-77-.02-6.51 4.06-10.63 10.92-10.96ZM130.2 176.1l-.61 1.4c-1.66 3.77-4.2 5.72-7.54 5.79-3.91.09-7.89.14-11.83.14-3.88 0-7.83-.05-11.73-.13-3.34-.08-5.89-2-7.58-5.79l-.63-1.41h39.92Zm77.56 1.09c-.1.83-.17 1.65-.23 2.45a26.46 26.46 0 0 1-.75 5.17c-1.78 6.27-7.3 10.19-14.44 10.19H28.24a15.111 15.111 0 0 1-11.72-5c-2.89-3.34-4-8-3.29-13.24l.13-.85h70.05c2 0 3 .72 3.69 2.66 2 5.51 6 8.54 11.47 8.75 3.5.13 7.14.2 11.12.2 3.62 0 7.6-.06 12.17-.18a12.59 12.59 0 0 0 11.66-9c.47-1.44 1.17-2.4 3.1-2.4h68.27c.32 0 .63 0 1.08.06l.86.07 1 .07-.07 1.05Z"/><path fill="#525252" d="M110 145.6a4.773 4.773 0 0 1-1.57 2.34 2.522 2.522 0 0 1-.66.06h-59.2a1.802 1.802 0 0 1-.74-.08c-1.11-1-1.49-1.8-1.47-2.07.02-.27.21-.69 1.82-1.88a2.29 2.29 0 0 1 .31 0h58.78c.456-.012.911.022 1.36.1.27.09 1.6.44 1.37 1.53Z"/><path fill="#525252" d="M110 145.6a4.773 4.773 0 0 1-1.57 2.34 2.522 2.522 0 0 1-.66.06h-59.2a1.802 1.802 0 0 1-.74-.08c-1.11-1-1.49-1.8-1.47-2.07.02-.27.21-.69 1.82-1.88a2.29 2.29 0 0 1 .31 0h58.78c.456-.012.911.022 1.36.1.27.09 1.6.44 1.37 1.53ZM91.3 133.31a1.748 1.748 0 0 1-.44 1.34 3.218 3.218 0 0 1-2.34.7H50.05c-1.24 0-2.73-.33-2.78-1.92a1.712 1.712 0 0 1 .45-1.31 3.273 3.273 0 0 1 2.35-.75h38.47c1.79 0 2.72.63 2.76 1.94Z"/><path fill="#525252" d="M91.3 133.31a1.748 1.748 0 0 1-.44 1.34 3.218 3.218 0 0 1-2.34.7H50.05c-1.24 0-2.73-.33-2.78-1.92a1.712 1.712 0 0 1 .45-1.31 3.273 3.273 0 0 1 2.35-.75h38.47c1.79 0 2.72.63 2.76 1.94Z"/></svg>