<svg xmlns="http://www.w3.org/2000/svg" width="220" height="200" fill="none"><g fill="#525252" clip-path="url(#a)"><path d="M154.2 49.38a46.663 46.663 0 0 0-7.305-20.08A46.753 46.753 0 0 0 107.563 8c-2.96.005-5.913.277-8.824.814C87.091 10.93 76.743 17.456 69.6 27.18c-7.142 9.725-10.255 21.573-8.714 33.298 2.336 17.768 11.974 30.537 28.646 37.948 5.328 2.369 11.242 3.571 17.584 3.571h.25c.61 0 1.332-.204 1.379-1.137.026-.566-.165-.99-1.198-1.363-1.22-.443-2.033-.962-2.507-1.586a20.252 20.252 0 0 1-2.562-4.474c-.701-1.755-1.267-3.53-1.866-5.411-.252-.79-.511-1.603-.783-2.422l-.18-.535h3.053c.571 0 1.035 0 1.46-.023a1.22 1.22 0 0 0 1.22-1.149c.046-.685-.407-1.22-1.139-1.311a5.552 5.552 0 0 0-.718-.037h-4.148l-.073-.311c-1.576-6.615-2.828-23.633-2.14-25.746l.09-.28h5.968c1.542 0 2.731 0 3.851-.012.761 0 1.23-.438 1.259-1.157a1.173 1.173 0 0 0-1.066-1.267 4.229 4.229 0 0 0-.555-.029h-8.232c-.26 0-.515-.018-.759-.034l-.315-.019-.317-.016-.061-.311a3.723 3.723 0 0 0-.04-.187 1.359 1.359 0 0 1-.047-.313c.073-8.69.78-16.654 2.163-24.34.203-1.1.966-1.1 1.423-1.1h7.914c1.807 0 3.613.003 5.418.01h.063c.23 0 .425 0 .588-.01h.327c.923 0 1.001.473 1.143 1.335.026.153.055.328.091.529 1.066 5.898 1.704 12.33 2.007 20.273.053 1.391.688 1.57 1.234 1.57h.031a1.162 1.162 0 0 0 .878-.336c.242-.266.348-.697.305-1.248-.482-6.32-.915-11.592-1.364-16.605-.102-1.12-.285-2.222-.482-3.39-.089-.543-.181-1.092-.266-1.65l-.071-.467h7.291c1.917 0 3.395 0 4.796-.032h.067c.972 0 1.554.37 2.007 1.277 3.18 6.377 5.116 13.44 5.752 20.993.057.663.32 1.452 1.249 1.452h.154c.753-.063 1.157-.628 1.086-1.511-.594-7.34-2.354-14.21-5.236-20.424a11.812 11.812 0 0 1-.311-.717c-.061-.143-.126-.3-.203-.474l-.244-.568h4.016c.886 0 1.604-.012 2.265-.042h.166c.928 0 1.582.355 2.186 1.19a44.635 44.635 0 0 1 8.318 21.03c.181 1.502.986 1.506 1.253 1.506.072 0 .145-.005.217-.013a1.089 1.089 0 0 0 .765-.406c.246-.277.335-.745.264-1.32ZM75.367 24.238c4.146-4.282 8.605-7.394 13.637-9.509l.439.667c-.16.157-.327.31-.494.46a8.47 8.47 0 0 0-.964.966c-.872 1.096-1.75 2.22-2.6 3.309-1.017 1.297-2.06 2.643-3.11 3.947-.37.451-.9.743-1.48.813-.652.03-1.347.045-2.254.045h-3.842l.668-.698Zm21.261 3.724c-.1.671-.203 1.336-.315 1.979-.234 1.423-.453 2.747-.563 4.106-.427 5.356-.813 11.01-1.279 18.33-.055.887-.305 1.4-1.409 1.4h-.03a853.873 853.873 0 0 0-6.913-.023h-9.557l.025-.429c.022-.407.04-.79.059-1.175.04-.83.079-1.613.144-2.406.645-7.773 2.643-14.955 5.923-21.353.248-.484.588-1.002 1.476-1.002h.022c2.719.028 5.49.032 8.156.038h3.22c.132.002.264.012.395.029l.27.026.431.037-.055.443Zm.143 54.598h-5.614c-2.115 0-4.615 0-7.13-.038-.55 0-1.107-.61-1.328-1.017a50.983 50.983 0 0 1-5.05-14.984c-.343-1.987-.556-4.02-.761-5.989-.074-.703-.147-1.407-.226-2.109a8.197 8.197 0 0 1-.02-1.163v-.97h17.76v.407c.134 9.454.874 17.76 2.265 25.39l.104.473ZM63.057 53.33c.019-.304.033-.597.047-.885.03-.61.06-1.202.12-1.794a44.983 44.983 0 0 1 8.304-21.863c.49-.684 1.163-1.381 2.44-1.381h.242c.903.055 1.816.06 2.51.06h2.644a.61.61 0 0 1 .336.115l.093.053.338.172-.149.348c-.161.378-.323.757-.486 1.135-.345.813-.703 1.643-1.04 2.47a59.463 59.463 0 0 0-4.27 20.32c-.04 1.054-.32 1.707-1.603 1.707h-.128c-1.11-.033-2.326-.047-3.822-.047h-2.52c-.872 0-1.752.01-2.643.01h-.439l.026-.42Zm7.64 26.66a44.03 44.03 0 0 1-7.585-22.341c-.012-.204 0-.407 0-.643V56.229h6.865c.28 0 .56 0 .843.01.283.01.553.013.83.013.407 0 .73-.013 1.035-.037.072-.01.145-.016.217-.018 1.206 0 1.243 1.016 1.257 1.444.3 8.453 2.18 16.392 5.583 23.59.061.13.108.256.175.428.035.096.075.204.128.34l.216.553h-4.782c-2.955.008-3.089-.063-4.783-2.562ZM88.897 95.33c-4.94-2.161-9.37-5.287-13.535-9.558l-.673-.7h3.66c.845 0 1.848 0 2.87.023a1.301 1.301 0 0 1 .946.62 46.772 46.772 0 0 0 7.186 8.948l-.454.667Zm8.641-9.137c.496 1.465.984 2.955 1.456 4.399.53 1.627 1.08 3.294 1.641 4.934.204.54.453 1.063.746 1.561.134.244.273.497.407.753l.278.555-.61.035h-.176c-4.002 0-13.42-7.525-16.006-12.773l-.303-.584h4.973c1.924 0 4.193 0 6.458.038.539.003 1.012.714 1.136 1.076v.006Zm-.177-61.618-.075.311H84.744l.431-.636c4.575-6.728 9.76-10.842 16.301-12.946l.994-.32-.516.908c-2.45 4.313-3.654 8.81-4.591 12.685v-.002Zm2.516.267.126-.505c.935-3.793 1.946-7.475 3.987-10.841a11.858 11.858 0 0 1 2.019-2.398 2.075 2.075 0 0 1 3.036 0 11.843 11.843 0 0 1 2.017 2.392c2.033 3.347 3.049 7.038 3.987 10.841l.126.504-15.298.007Zm25.924.083h-3.254c-1.026 0-2.378 0-3.743-.03-.449 0-1.12-.426-1.232-.88-.949-3.877-2.149-8.028-4.473-12.12l-.512-.902.98.32c6.506 2.067 11.695 6.19 16.347 12.977l.435.637-4.548-.002Zm13.263 0h-2.475c-.712 0-1.649 0-2.609-.022a1.384 1.384 0 0 1-1.059-.594 47.148 47.148 0 0 0-7.253-8.989l.448-.665a38.236 38.236 0 0 1 13.251 9.593l.609.679-.912-.002Z"/><path d="M154.2 49.38a46.663 46.663 0 0 0-7.305-20.08A46.753 46.753 0 0 0 107.563 8c-2.96.005-5.913.277-8.824.814C87.091 10.93 76.743 17.456 69.6 27.18c-7.142 9.725-10.255 21.573-8.714 33.298 2.336 17.768 11.974 30.537 28.646 37.948 5.328 2.369 11.242 3.571 17.584 3.571h.25c.61 0 1.332-.204 1.379-1.137.026-.566-.165-.99-1.198-1.363-1.22-.443-2.033-.962-2.507-1.586a20.252 20.252 0 0 1-2.562-4.474c-.701-1.755-1.267-3.53-1.866-5.411-.252-.79-.511-1.603-.783-2.422l-.18-.535h3.053c.571 0 1.035 0 1.46-.023a1.22 1.22 0 0 0 1.22-1.149c.046-.685-.407-1.22-1.139-1.311a5.552 5.552 0 0 0-.718-.037h-4.148l-.073-.311c-1.576-6.615-2.828-23.633-2.14-25.746l.09-.28h5.968c1.542 0 2.731 0 3.851-.012.761 0 1.23-.438 1.259-1.157a1.173 1.173 0 0 0-1.066-1.267 4.229 4.229 0 0 0-.555-.029h-8.232c-.26 0-.515-.018-.759-.034l-.315-.019-.317-.016-.061-.311a3.723 3.723 0 0 0-.04-.187 1.359 1.359 0 0 1-.047-.313c.073-8.69.78-16.654 2.163-24.34.203-1.1.966-1.1 1.423-1.1h7.914c1.807 0 3.613.003 5.418.01h.063c.23 0 .425 0 .588-.01h.327c.923 0 1.001.473 1.143 1.335.026.153.055.328.091.529 1.066 5.898 1.704 12.33 2.007 20.273.053 1.391.688 1.57 1.234 1.57h.031a1.162 1.162 0 0 0 .878-.336c.242-.266.348-.697.305-1.248-.482-6.32-.915-11.592-1.364-16.605-.102-1.12-.285-2.222-.482-3.39-.089-.543-.181-1.092-.266-1.65l-.071-.467h7.291c1.917 0 3.395 0 4.796-.032h.067c.972 0 1.554.37 2.007 1.277 3.18 6.377 5.116 13.44 5.752 20.993.057.663.32 1.452 1.249 1.452h.154c.753-.063 1.157-.628 1.086-1.511-.594-7.34-2.354-14.21-5.236-20.424a11.812 11.812 0 0 1-.311-.717c-.061-.143-.126-.3-.203-.474l-.244-.568h4.016c.886 0 1.604-.012 2.265-.042h.166c.928 0 1.582.355 2.186 1.19a44.635 44.635 0 0 1 8.318 21.03c.181 1.502.986 1.506 1.253 1.506.072 0 .145-.005.217-.013a1.089 1.089 0 0 0 .765-.406c.246-.277.335-.745.264-1.32ZM75.367 24.238c4.146-4.282 8.605-7.394 13.637-9.509l.439.667c-.16.157-.327.31-.494.46a8.47 8.47 0 0 0-.964.966c-.872 1.096-1.75 2.22-2.6 3.309-1.017 1.297-2.06 2.643-3.11 3.947-.37.451-.9.743-1.48.813-.652.03-1.347.045-2.254.045h-3.842l.668-.698Zm21.261 3.724c-.1.671-.203 1.336-.315 1.979-.234 1.423-.453 2.747-.563 4.106-.427 5.356-.813 11.01-1.279 18.33-.055.887-.305 1.4-1.409 1.4h-.03a853.873 853.873 0 0 0-6.913-.023h-9.557l.025-.429c.022-.407.04-.79.059-1.175.04-.83.079-1.613.144-2.406.645-7.773 2.643-14.955 5.923-21.353.248-.484.588-1.002 1.476-1.002h.022c2.719.028 5.49.032 8.156.038h3.22c.132.002.264.012.395.029l.27.026.431.037-.055.443Zm.143 54.598h-5.614c-2.115 0-4.615 0-7.13-.038-.55 0-1.107-.61-1.328-1.017a50.983 50.983 0 0 1-5.05-14.984c-.343-1.987-.556-4.02-.761-5.989-.074-.703-.147-1.407-.226-2.109a8.197 8.197 0 0 1-.02-1.163v-.97h17.76v.407c.134 9.454.874 17.76 2.265 25.39l.104.473ZM63.057 53.33c.019-.304.033-.597.047-.885.03-.61.06-1.202.12-1.794a44.983 44.983 0 0 1 8.304-21.863c.49-.684 1.163-1.381 2.44-1.381h.242c.903.055 1.816.06 2.51.06h2.644a.61.61 0 0 1 .336.115l.093.053.338.172-.149.348c-.161.378-.323.757-.486 1.135-.345.813-.703 1.643-1.04 2.47a59.463 59.463 0 0 0-4.27 20.32c-.04 1.054-.32 1.707-1.603 1.707h-.128c-1.11-.033-2.326-.047-3.822-.047h-2.52c-.872 0-1.752.01-2.643.01h-.439l.026-.42Zm7.64 26.66a44.03 44.03 0 0 1-7.585-22.341c-.012-.204 0-.407 0-.643V56.229h6.865c.28 0 .56 0 .843.01.283.01.553.013.83.013.407 0 .73-.013 1.035-.037.072-.01.145-.016.217-.018 1.206 0 1.243 1.016 1.257 1.444.3 8.453 2.18 16.392 5.583 23.59.061.13.108.256.175.428.035.096.075.204.128.34l.216.553h-4.782c-2.955.008-3.089-.063-4.783-2.562ZM88.897 95.33c-4.94-2.161-9.37-5.287-13.535-9.558l-.673-.7h3.66c.845 0 1.848 0 2.87.023a1.301 1.301 0 0 1 .946.62 46.772 46.772 0 0 0 7.186 8.948l-.454.667Zm8.641-9.137c.496 1.465.984 2.955 1.456 4.399.53 1.627 1.08 3.294 1.641 4.934.204.54.453 1.063.746 1.561.134.244.273.497.407.753l.278.555-.61.035h-.176c-4.002 0-13.42-7.525-16.006-12.773l-.303-.584h4.973c1.924 0 4.193 0 6.458.038.539.003 1.012.714 1.136 1.076v.006Zm-.177-61.618-.075.311H84.744l.431-.636c4.575-6.728 9.76-10.842 16.301-12.946l.994-.32-.516.908c-2.45 4.313-3.654 8.81-4.591 12.685v-.002Zm2.516.267.126-.505c.935-3.793 1.946-7.475 3.987-10.841a11.858 11.858 0 0 1 2.019-2.398 2.075 2.075 0 0 1 3.036 0 11.843 11.843 0 0 1 2.017 2.392c2.033 3.347 3.049 7.038 3.987 10.841l.126.504-15.298.007Zm25.924.083h-3.254c-1.026 0-2.378 0-3.743-.03-.449 0-1.12-.426-1.232-.88-.949-3.877-2.149-8.028-4.473-12.12l-.512-.902.98.32c6.506 2.067 11.695 6.19 16.347 12.977l.435.637-4.548-.002Zm13.263 0h-2.475c-.712 0-1.649 0-2.609-.022a1.384 1.384 0 0 1-1.059-.594 47.148 47.148 0 0 0-7.253-8.989l.448-.665a38.236 38.236 0 0 1 13.251 9.593l.609.679-.912-.002Z"/><path d="M147.708 62.259a23.284 23.284 0 0 0-32.934.023 23.296 23.296 0 0 0 .024 32.94A23.405 23.405 0 0 0 131.415 102a23.181 23.181 0 0 0 23.084-23.204 23.264 23.264 0 0 0-6.791-16.537ZM131.18 99.537h-.065c-11.399-.025-20.654-9.38-20.632-20.834a20.817 20.817 0 0 1 20.788-20.743h.01a20.79 20.79 0 0 1 20.76 20.911c-.025 11.397-9.382 20.666-20.861 20.666Z"/><path d="M147.708 62.259a23.284 23.284 0 0 0-32.934.023 23.296 23.296 0 0 0 .024 32.94A23.405 23.405 0 0 0 131.415 102a23.181 23.181 0 0 0 23.084-23.204 23.264 23.264 0 0 0-6.791-16.537ZM131.18 99.537h-.065c-11.399-.025-20.654-9.38-20.632-20.834a20.817 20.817 0 0 1 20.788-20.743h.01a20.79 20.79 0 0 1 20.76 20.911c-.025 11.397-9.382 20.666-20.861 20.666Z"/><path d="M133.652 89.656c-.933.364-1.289.933-1.155 1.846.013.129.013.258 0 .386v.153c-.024.956-.478 1.505-1.246 1.505a1.2 1.2 0 0 1-.899-.364 1.451 1.451 0 0 1-.331-1.115c.091-1.346-.35-2.066-1.627-2.643-2.033-.94-3.233-2.709-3.444-5.119-.041-.476-.017-1.598 1.108-1.706.051-.003.103-.003.154 0 .891 0 1.153.813 1.22 1.478.204 2.11 1.771 3.582 3.827 3.582h.215a3.8 3.8 0 0 0 3.601-3.824c0-2.153-1.626-3.727-3.922-3.829-3.377-.146-5.868-2.503-6.199-5.865-.265-2.688 1.364-5.287 3.959-6.326.61-.242 1.219-.63 1.091-1.678a4.126 4.126 0 0 1 .037-1.104c.108-.674.539-1.06 1.185-1.06h.09a1.36 1.36 0 0 1 .974.407.73.73 0 0 1 .143.27c.027.1.033.203.017.305-.254 1.98.869 2.727 2.143 3.378 2.123 1.086 2.788 3.165 2.969 4.714.061.508.077 1.706-1.063 1.853a1.767 1.767 0 0 1-.204.012c-.258 0-1.031 0-1.238-1.65-.24-1.889-1.686-3.298-3.515-3.426h-.275a3.85 3.85 0 0 0-3.799 4.391c.08.541.277 1.058.578 1.515a3.815 3.815 0 0 0 2.725 1.722c.232.029.468.05.701.071.489.027.975.095 1.452.204a6.302 6.302 0 0 1 4.657 5.699 6.31 6.31 0 0 1-3.919 6.23l-.01-.012Z"/><path d="M133.652 89.656c-.933.364-1.289.933-1.155 1.846.013.129.013.258 0 .386v.153c-.024.956-.478 1.505-1.246 1.505a1.2 1.2 0 0 1-.899-.364 1.451 1.451 0 0 1-.331-1.115c.091-1.346-.35-2.066-1.627-2.643-2.033-.94-3.233-2.709-3.444-5.119-.041-.476-.017-1.598 1.108-1.706.051-.003.103-.003.154 0 .891 0 1.153.813 1.22 1.478.204 2.11 1.771 3.582 3.827 3.582h.215a3.8 3.8 0 0 0 3.601-3.824c0-2.153-1.626-3.727-3.922-3.829-3.377-.146-5.868-2.503-6.199-5.865-.265-2.688 1.364-5.287 3.959-6.326.61-.242 1.219-.63 1.091-1.678a4.126 4.126 0 0 1 .037-1.104c.108-.674.539-1.06 1.185-1.06h.09a1.36 1.36 0 0 1 .974.407.73.73 0 0 1 .143.27c.027.1.033.203.017.305-.254 1.98.869 2.727 2.143 3.378 2.123 1.086 2.788 3.165 2.969 4.714.061.508.077 1.706-1.063 1.853a1.767 1.767 0 0 1-.204.012c-.258 0-1.031 0-1.238-1.65-.24-1.889-1.686-3.298-3.515-3.426h-.275a3.85 3.85 0 0 0-3.799 4.391c.08.541.277 1.058.578 1.515a3.815 3.815 0 0 0 2.725 1.722c.232.029.468.05.701.071.489.027.975.095 1.452.204a6.302 6.302 0 0 1 4.657 5.699 6.31 6.31 0 0 1-3.919 6.23l-.01-.012Z"/><g clip-path="url(#b)"><path d="M85.998 154.848c0-2.772-1.611-4.366-4.412-4.37H67.592v-32.546c0-3.112-1.825-4.914-5.01-4.916H45.682c-4.956 0-10.85 0-16.92-.014a5.35 5.35 0 0 0-2.158.4 5.267 5.267 0 0 0-1.805 1.232 2484.52 2484.52 0 0 1-15.927 15.68c-1.26 1.225-1.823 2.575-1.819 4.368.023 12.373.02 24.961.018 37.111v12.653H1.368c-1.095 0-1.368.257-1.368 1.331v7.903c0 1.394.182 1.571 1.633 1.571h15.321c6.145 0 13.424 0 20.828.02a4.912 4.912 0 0 0 2.668-.71c1.058-.642 2.133-1.23 3.267-1.854l1.466-.814.69-.384v3.62c.032.854.345 1.676.892 2.339a4.005 4.005 0 0 0 2.14 1.341c.226.056.45.098.724.142l.308.056H81.88a1.09 1.09 0 0 1 .261-.085c2.704-.47 3.858-1.815 3.86-4.477 0-13.202 0-26.401-.002-39.597Zm-79.28 38.519h-4.82v-7.035h4.82v7.035Zm19.118-76.764.052 1.016v.063c0 .108.025.312.025.517v10.617c0 1.92-.868 2.776-2.8 2.779H10.588l15.247-14.992Zm12.167 76.788H8.647v-7.061h29.356v7.061Zm1.946-.655v-5.771l5.13 2.886-5.13 2.885Zm6.807-54.209a299.44 299.44 0 0 0-3.492-.02c-1.122 0-2.24 0-3.308.022-.629 0-.969.222-.969 1.267v23.272c0 .908.307 1.214 1.224 1.223h5.599v5.833H17.32c-1.611 0-1.611.582-1.611.888a.712.712 0 0 0 .196.559c.225.222.723.36 1.403.36h28.54v5.844H16.94c-.15-.001-.301.006-.45.02a.825.825 0 0 0-.54.242.787.787 0 0 0-.225.538.75.75 0 0 0 .094.568.772.772 0 0 0 .472.339c.338.089.689.127 1.039.111h28.503v8.573l-.691-.386c-.255-.142-.51-.273-.76-.407-.56-.273-1.099-.586-1.613-.936-1.969-1.419-4.21-2.042-7.268-2.042h-.45c-3.11.059-6.497.086-10.658.086-2.324 0-4.645-.005-6.964-.015-2.32-.011-4.64-.016-6.96-.016H8.956v-51.053h14.102c2.979 0 4.689-1.678 4.695-4.595.007-2.916 0-5.8 0-8.701v-5.199l.433-.024.34-.02c.21-.015.408-.029.609-.029h33.458c2.158 0 3.165.972 3.168 3.063v31.338c.003.164-.004.328-.02.491.001.087-.003.175-.014.262l-.018.444H59.72V133.85c0-1.361-.191-1.554-1.577-1.554h-5.775c-1.113 0-1.352.222-1.352 1.319v16.703l-3.303.444v-11.281c-.05-.837-.57-.943-.957-.954Zm-.942 1.846v22.06h-4.93v-22.055l4.93-.005Zm12.009-6.215v16.282H52.92v-16.277l4.903-.005Zm26.336 60.216c0 1.976-.73 2.713-2.704 2.713H50.427c-1.98 0-2.717-.73-2.717-2.686v-39.449c0-1.886.777-2.663 2.674-2.663h31.124c1.86 0 2.652.779 2.652 2.601v39.484Z"/><path d="M85.998 154.848c0-2.772-1.611-4.366-4.412-4.37H67.592v-32.546c0-3.112-1.825-4.914-5.01-4.916H45.682c-4.956 0-10.85 0-16.92-.014a5.35 5.35 0 0 0-2.158.4 5.267 5.267 0 0 0-1.805 1.232 2484.52 2484.52 0 0 1-15.927 15.68c-1.26 1.225-1.823 2.575-1.819 4.368.023 12.373.02 24.961.018 37.111v12.653H1.368c-1.095 0-1.368.257-1.368 1.331v7.903c0 1.394.182 1.571 1.633 1.571h15.321c6.145 0 13.424 0 20.828.02a4.912 4.912 0 0 0 2.668-.71c1.058-.642 2.133-1.23 3.267-1.854l1.466-.814.69-.384v3.62c.032.854.345 1.676.892 2.339a4.005 4.005 0 0 0 2.14 1.341c.226.056.45.098.724.142l.308.056H81.88a1.09 1.09 0 0 1 .261-.085c2.704-.47 3.858-1.815 3.86-4.477 0-13.202 0-26.401-.002-39.597Zm-79.28 38.519h-4.82v-7.035h4.82v7.035Zm19.118-76.764.052 1.016v.063c0 .108.025.312.025.517v10.617c0 1.92-.868 2.776-2.8 2.779H10.588l15.247-14.992Zm12.167 76.788H8.647v-7.061h29.356v7.061Zm1.946-.655v-5.771l5.13 2.886-5.13 2.885Zm6.807-54.209a299.44 299.44 0 0 0-3.492-.02c-1.122 0-2.24 0-3.308.022-.629 0-.969.222-.969 1.267v23.272c0 .908.307 1.214 1.224 1.223h5.599v5.833H17.32c-1.611 0-1.611.582-1.611.888a.712.712 0 0 0 .196.559c.225.222.723.36 1.403.36h28.54v5.844H16.94c-.15-.001-.301.006-.45.02a.825.825 0 0 0-.54.242.787.787 0 0 0-.225.538.75.75 0 0 0 .094.568.772.772 0 0 0 .472.339c.338.089.689.127 1.039.111h28.503v8.573l-.691-.386c-.255-.142-.51-.273-.76-.407-.56-.273-1.099-.586-1.613-.936-1.969-1.419-4.21-2.042-7.268-2.042h-.45c-3.11.059-6.497.086-10.658.086-2.324 0-4.645-.005-6.964-.015-2.32-.011-4.64-.016-6.96-.016H8.956v-51.053h14.102c2.979 0 4.689-1.678 4.695-4.595.007-2.916 0-5.8 0-8.701v-5.199l.433-.024.34-.02c.21-.015.408-.029.609-.029h33.458c2.158 0 3.165.972 3.168 3.063v31.338c.003.164-.004.328-.02.491.001.087-.003.175-.014.262l-.018.444H59.72V133.85c0-1.361-.191-1.554-1.577-1.554h-5.775c-1.113 0-1.352.222-1.352 1.319v16.703l-3.303.444v-11.281c-.05-.837-.57-.943-.957-.954Zm-.942 1.846v22.06h-4.93v-22.055l4.93-.005Zm12.009-6.215v16.282H52.92v-16.277l4.903-.005Zm26.336 60.216c0 1.976-.73 2.713-2.704 2.713H50.427c-1.98 0-2.717-.73-2.717-2.686v-39.449c0-1.886.777-2.663 2.674-2.663h31.124c1.86 0 2.652.779 2.652 2.601v39.484Z"/><path d="M52.826 124.847A302.113 302.113 0 0 1 51 130.136c-.106.304-.37.812-.922.812a1.022 1.022 0 0 1-.358-.071c-.737-.268-.534-1.109-.462-1.347.13-.408.268-.817.421-1.283l.631-1.856-2.532 1.432-2.911 1.645-24.365 13.858-.248.142a1.976 1.976 0 0 1-.901.277.776.776 0 0 1-.428-.113.779.779 0 0 1-.28-.322c-.344-.637.18-1.11.692-1.398l16.583-9.45 5.536-3.143 6.218-3.54c.13-.077.256-.16.376-.251l.268-.189.877-.603-1.061-.222-.762-.154a92.092 92.092 0 0 1-1.363-.281c-.387-.083-1.011-.34-.856-1.11a.862.862 0 0 1 .908-.682c.09.001.178.009.266.025 2.028.388 3.882.757 5.648 1.109.426.087.71.245.843.471.133.226.142.551.007.955Z"/><path d="M52.826 124.847A302.113 302.113 0 0 1 51 130.136c-.106.304-.37.812-.922.812a1.022 1.022 0 0 1-.358-.071c-.737-.268-.534-1.109-.462-1.347.13-.408.268-.817.421-1.283l.631-1.856-2.532 1.432-2.911 1.645-24.365 13.858-.248.142a1.976 1.976 0 0 1-.901.277.776.776 0 0 1-.428-.113.779.779 0 0 1-.28-.322c-.344-.637.18-1.11.692-1.398l16.583-9.45 5.536-3.143 6.218-3.54c.13-.077.256-.16.376-.251l.268-.189.877-.603-1.061-.222-.762-.154a92.092 92.092 0 0 1-1.363-.281c-.387-.083-1.011-.34-.856-1.11a.862.862 0 0 1 .908-.682c.09.001.178.009.266.025 2.028.388 3.882.757 5.648 1.109.426.087.71.245.843.471.133.226.142.551.007.955ZM35.682 145.949c0-.988-.261-1.241-1.255-1.245h-6.038c-1.172 0-1.408.222-1.408 1.361v16.892c0 1.083.252 1.331 1.351 1.331h5.942c1.151 0 1.397-.222 1.399-1.36v-10.884c.014-2.033.027-4.064.009-6.095Zm-1.886 16.459h-4.905v-15.853h4.905v15.853Z"/><path d="M35.682 145.949c0-.988-.261-1.241-1.255-1.245h-6.038c-1.172 0-1.408.222-1.408 1.361v16.892c0 1.083.252 1.331 1.351 1.331h5.942c1.151 0 1.397-.222 1.399-1.36v-10.884c.014-2.033.027-4.064.009-6.095Zm-1.886 16.459h-4.905v-15.853h4.905v15.853ZM23.702 152.082c0-.87-.29-1.152-1.176-1.158h-6.371c-.886 0-1.152.273-1.152 1.154v11.032c0 .888.286 1.176 1.152 1.183 1.051.009 2.11.013 3.179.013 1.068 0 2.129-.007 3.183-.02.872 0 1.18-.315 1.185-1.176.02-3.59.02-7.31 0-11.028Zm-1.895 10.346H16.87v-9.647h4.939v9.647Z"/><path d="M23.702 152.082c0-.87-.29-1.152-1.176-1.158h-6.371c-.886 0-1.152.273-1.152 1.154v11.032c0 .888.286 1.176 1.152 1.183 1.051.009 2.11.013 3.179.013 1.068 0 2.129-.007 3.183-.02.872 0 1.18-.315 1.185-1.176.02-3.59.02-7.31 0-11.028Zm-1.895 10.346H16.87v-9.647h4.939v9.647ZM80.243 157.205c0-.954-.09-1.043-1.06-1.045H52.63c-.902 0-1.014.104-1.019 1.003v5.856c0 1.052.088 1.136 1.154 1.136h26.379c1.014 0 1.097-.082 1.1-1.096.006-2.133.006-4.047 0-5.854Zm-1.203 5.752H52.778v-1.603c0-.95 0-1.931.016-2.897 0-.566.539-.956.901-1.083.16-.055.327-.083.496-.082h24.85v5.665Z"/><path d="M80.243 157.205c0-.954-.09-1.043-1.06-1.045H52.63c-.902 0-1.014.104-1.019 1.003v5.856c0 1.052.088 1.136 1.154 1.136h26.379c1.014 0 1.097-.082 1.1-1.096.006-2.133.006-4.047 0-5.854Zm-1.203 5.752H52.778v-1.603c0-.95 0-1.931.016-2.897 0-.566.539-.956.901-1.083.16-.055.327-.083.496-.082h24.85v5.665Z"/><path d="M80.243 157.205c0-.954-.09-1.043-1.06-1.045H52.63c-.902 0-1.014.104-1.019 1.003v5.856c0 1.052.088 1.136 1.154 1.136h26.379c1.014 0 1.097-.082 1.1-1.096.006-2.133.006-4.047 0-5.854Zm-1.203 5.752H52.778v-1.603c0-.95 0-1.931.016-2.897 0-.566.539-.956.901-1.083.16-.055.327-.083.496-.082h24.85v5.665Z"/><path d="M80.243 157.205c0-.954-.09-1.043-1.06-1.045H52.63c-.902 0-1.014.104-1.019 1.003v5.856c0 1.052.088 1.136 1.154 1.136h26.379c1.014 0 1.097-.082 1.1-1.096.006-2.133.006-4.047 0-5.854Zm-1.203 5.752H52.778v-1.603c0-.95 0-1.931.016-2.897 0-.566.539-.956.901-1.083.16-.055.327-.083.496-.082h24.85v5.665ZM79.917 193.797Zm.322-16.246v-.222c-.027-.537-.198-.626-.901-.63h-5.426c-.723 0-.915.068-.955.577v15.322c-.004.157.007.314.034.469a.788.788 0 0 0 .022.086.403.403 0 0 0 .311.304c.186.045.377.065.568.058h5.416c.798 0 .938-.138.94-.921.004-5.48.004-10.404-.01-15.052v.009Zm-1.217 14.785h-4.86V177.92h4.86v14.416Z"/><path d="M80.239 177.542v-.222c-.034-.513-.21-.597-.901-.604h-5.426c-.71 0-.901.067-.955.551v15.331c-.004.157.007.314.034.469a.788.788 0 0 0 .022.086.403.403 0 0 0 .311.304c.186.045.377.065.568.058h5.416c.798 0 .938-.137.94-.921.004-5.48.004-10.404-.01-15.052Zm-1.217 14.788h-4.86v-14.41h4.86v14.41Z"/><path d="M80.239 177.542v-.222c-.027-.537-.198-.626-.901-.63h-5.426c-.723 0-.915.069-.955.577v15.331c-.004.157.007.314.034.469a.788.788 0 0 0 .022.086.403.403 0 0 0 .311.304c.186.046.377.065.568.058h5.416c.798 0 .938-.137.94-.921.004-5.48.004-10.404-.01-15.052Zm-1.217 14.786h-4.86V177.92h4.86v14.408Z"/><path d="M80.239 177.542v-.222c-.027-.537-.198-.626-.901-.63h-5.426c-.723 0-.915.069-.955.577v15.331c-.004.157.007.314.034.469a.788.788 0 0 0 .022.086.439.439 0 0 0 .311.304c.186.046.377.065.568.058h5.416c.798 0 .938-.137.94-.921.004-5.48.004-10.404-.01-15.052Zm-1.217 14.786h-4.86V177.9h4.86v14.428ZM58.922 167.811c0-.479-.114-.697-.788-.708h-5.752c-.636 0-.75.222-.757.666a157.183 157.183 0 0 0 0 5.835c0 .493.162.655.676.666 1.016.016 2.027.025 2.987.025s1.94 0 2.93-.022c.531 0 .695-.167.702-.709.023-1.951.023-3.886.002-5.753Zm-1.207 5.278h-4.896v-4.787h4.896v4.787Z"/><path d="M58.922 167.811c0-.479-.114-.697-.788-.708h-5.752c-.636 0-.75.222-.757.666a157.183 157.183 0 0 0 0 5.835c0 .493.162.655.676.666 1.016.016 2.027.025 2.987.025s1.94 0 2.93-.022c.531 0 .695-.167.702-.709.023-1.951.023-3.886.002-5.753Zm-1.207 5.278h-4.896v-4.787h4.896v4.787Z"/><path d="M58.922 167.811c0-.479-.114-.697-.788-.708h-5.752c-.636 0-.75.222-.757.666a157.183 157.183 0 0 0 0 5.835c0 .493.162.655.676.666 1.016.016 2.027.025 2.987.025s1.94 0 2.93-.022c.531 0 .695-.167.702-.709.023-1.951.023-3.886.002-5.753Zm-1.207 5.278h-4.896v-4.787h4.896v4.787Z"/><path d="M58.922 167.811c0-.479-.114-.697-.788-.708h-5.752c-.636 0-.75.222-.757.666a157.183 157.183 0 0 0 0 5.835c0 .493.162.655.676.666 1.016.016 2.027.025 2.987.025s1.94 0 2.93-.022c.531 0 .695-.167.702-.709.023-1.951.023-3.886.002-5.753Zm-1.207 5.278h-4.896v-4.787h4.896v4.787ZM69.59 167.886c0-.614-.168-.774-.813-.783h-5.664c-.7 0-.822.2-.831.764-.02 1.882-.02 3.789 0 5.669 0 .557.16.73.676.739.919.015 1.917.022 2.965.022 1.01 0 1.96 0 2.954-.022.536 0 .7-.178.71-.722.033-1.991.033-3.795.004-5.667Zm-6.13 5.203v-4.794h4.912l.011 4.794H63.46Z"/><path d="M69.59 167.886c0-.614-.168-.774-.813-.783h-5.664c-.7 0-.822.2-.831.764-.02 1.882-.02 3.789 0 5.669 0 .557.16.73.676.739.919.015 1.917.022 2.965.022 1.01 0 1.96 0 2.954-.022.536 0 .7-.178.71-.722.033-1.991.033-3.795.004-5.667Zm-6.13 5.203v-4.794h4.912l.011 4.794H63.46Z"/><path d="M69.59 167.886c0-.614-.168-.774-.813-.783h-5.664c-.7 0-.822.2-.831.764-.02 1.882-.02 3.789 0 5.669 0 .557.16.73.676.739.919.015 1.917.022 2.965.022 1.01 0 1.96 0 2.954-.022.536 0 .7-.178.71-.722.033-1.991.033-3.795.004-5.667Zm-6.13 5.203v-4.794h4.912l.011 4.794H63.46Z"/><path d="M69.59 167.886c0-.614-.168-.774-.813-.783h-5.664c-.7 0-.822.2-.831.764-.02 1.882-.02 3.789 0 5.669 0 .557.16.73.676.739.919.015 1.917.022 2.965.022 1.01 0 1.96 0 2.954-.022.536 0 .7-.178.71-.722.033-1.991.033-3.795.004-5.667Zm-6.13 5.203v-4.794h4.912l.011 4.794H63.46ZM58.925 187.042c0-.554-.176-.719-.775-.73h-5.752c-.647.014-.764.222-.771.666a147.705 147.705 0 0 0 0 5.829c0 .506.18.688.656.695 1.097.02 2.081.031 3.005.031.924 0 1.929-.011 2.988-.031.392 0 .635-.127.642-.702.023-1.782.025-3.72.007-5.758Zm-1.215 5.274h-4.873v-4.83h4.873v4.83Z"/><path d="M58.925 187.042c0-.554-.176-.719-.775-.73h-5.752c-.647.014-.764.222-.771.666a147.705 147.705 0 0 0 0 5.829c0 .506.18.688.656.695 1.097.02 2.081.031 3.005.031.924 0 1.929-.011 2.988-.031.392 0 .635-.127.642-.702.023-1.782.025-3.72.007-5.758Zm-1.215 5.274h-4.873v-4.83h4.873v4.83Z"/><path d="M58.925 187.042c0-.554-.176-.719-.775-.73h-5.752c-.647.014-.764.222-.771.666a147.705 147.705 0 0 0 0 5.829c0 .506.18.688.656.695 1.097.02 2.081.031 3.005.031.924 0 1.929-.011 2.988-.031.392 0 .635-.127.642-.702.023-1.782.025-3.72.007-5.758Zm-1.215 5.274h-4.873v-4.83h4.873v4.83Z"/><path d="M58.925 187.042c0-.554-.176-.719-.775-.73h-5.752c-.647.014-.764.222-.771.666a147.705 147.705 0 0 0 0 5.829c0 .506.18.688.656.695 1.097.02 2.081.031 3.005.031.924 0 1.929-.011 2.988-.031.392 0 .635-.127.642-.702.023-1.782.025-3.72.007-5.758Zm-1.215 5.274h-4.873v-4.83h4.873v4.83ZM69.586 187.005c0-.504-.189-.666-.739-.691h-4.675c-.38 0-.775 0-1.165.012-.545 0-.73.186-.736.697a222.4 222.4 0 0 0 0 5.757c0 .542.175.728.696.735.978.02 1.976.029 2.965.029.989 0 1.974 0 2.954-.027.513 0 .691-.197.698-.743.036-2.053.036-3.936.002-5.769Zm-1.223 5.296H63.5v-4.819h4.862v4.819Z"/><path d="M69.586 187.005c0-.504-.189-.666-.739-.691h-4.675c-.38 0-.775 0-1.165.012-.545 0-.73.186-.736.697a222.4 222.4 0 0 0 0 5.757c0 .542.175.728.696.735.978.02 1.976.029 2.965.029.989 0 1.974 0 2.954-.027.513 0 .691-.197.698-.743.036-2.053.036-3.936.002-5.769Zm-1.223 5.296H63.5v-4.819h4.862v4.819Z"/><path d="M69.586 187.005c0-.504-.189-.666-.739-.691h-4.675c-.38 0-.775 0-1.165.012-.545 0-.73.186-.736.697a222.4 222.4 0 0 0 0 5.757c0 .542.175.728.696.735.978.02 1.976.029 2.965.029.989 0 1.974 0 2.954-.027.513 0 .691-.197.698-.743.036-2.053.036-3.936.002-5.769Zm-1.223 5.296H63.5v-4.819h4.862v4.819Z"/><path d="M69.586 187.005c0-.504-.189-.666-.739-.691h-4.675c-.38 0-.775 0-1.165.012-.545 0-.73.186-.736.697a222.4 222.4 0 0 0 0 5.757c0 .542.175.728.696.735.978.02 1.976.029 2.965.029.989 0 1.974 0 2.954-.027.513 0 .691-.197.698-.743.036-2.053.036-3.936.002-5.769Zm-1.223 5.296H63.5v-4.819h4.862v4.819ZM80.223 167.696c-.011-.429-.18-.582-.644-.582h-2.995c-1.009 0-1.964 0-2.949.013-.532 0-.687.16-.698.711a58.467 58.467 0 0 0 0 1.984v3.758c0 .551.169.713.7.719.92.016 1.902.022 2.918.022 1.016 0 2.008 0 3.001-.022.545 0 .651-.204.658-.584.045-1.931.047-3.951.01-6.019Zm-1.192 5.402h-4.866v-4.803h4.866v4.803Z"/><path d="M80.223 167.696c-.011-.429-.18-.582-.644-.582h-2.995c-1.009 0-1.964 0-2.949.013-.532 0-.687.16-.698.711a58.467 58.467 0 0 0 0 1.984v3.758c0 .551.169.713.7.719.92.016 1.902.022 2.918.022 1.016 0 2.008 0 3.001-.022.545 0 .651-.204.658-.584.045-1.931.047-3.951.01-6.019Zm-1.192 5.402h-4.866v-4.803h4.866v4.803Z"/><path d="M80.223 167.696c-.011-.429-.18-.582-.644-.582h-2.995c-1.009 0-1.964 0-2.949.013-.532 0-.687.16-.698.711a58.467 58.467 0 0 0 0 1.984v3.758c0 .551.169.713.7.719.92.016 1.902.022 2.918.022 1.016 0 2.008 0 3.001-.022.545 0 .651-.204.658-.584.045-1.931.047-3.951.01-6.019Zm-1.192 5.402h-4.866v-4.803h4.866v4.803Z"/><path d="M80.223 167.696c-.011-.429-.18-.582-.644-.582h-2.995c-1.009 0-1.964 0-2.949.013-.532 0-.687.16-.698.711a58.467 58.467 0 0 0 0 1.984v3.758c0 .551.169.713.7.719.92.016 1.902.022 2.918.022 1.016 0 2.008 0 3.001-.022.545 0 .651-.204.658-.584.045-1.931.047-3.951.01-6.019Zm-1.192 5.402h-4.866v-4.803h4.866v4.803ZM69.589 177.451c0-.528-.124-.706-.789-.721h-5.745c-.62.015-.773.157-.778.732-.022 1.814-.022 3.72 0 5.669 0 .584.165.755.74.76a350.434 350.434 0 0 0 5.846 0c.534 0 .717-.176.726-.695a174.61 174.61 0 0 0 0-5.745Zm-1.213 5.248h-4.878v-4.793h4.878v4.793Z"/><path d="M69.589 177.451c0-.528-.124-.706-.789-.721h-5.745c-.62.015-.773.157-.778.732-.022 1.814-.022 3.72 0 5.669 0 .584.165.755.74.76a350.434 350.434 0 0 0 5.846 0c.534 0 .717-.176.726-.695a174.61 174.61 0 0 0 0-5.745Zm-1.213 5.248h-4.878v-4.793h4.878v4.793Z"/><path d="M69.589 177.451c0-.528-.124-.706-.789-.721h-5.745c-.62.015-.773.157-.778.732-.022 1.814-.022 3.72 0 5.669 0 .584.165.755.74.76a350.434 350.434 0 0 0 5.846 0c.534 0 .717-.176.726-.695a174.61 174.61 0 0 0 0-5.745Zm-1.213 5.248h-4.878v-4.793h4.878v4.793Z"/><path d="M69.589 177.451c0-.528-.124-.706-.789-.721h-5.745c-.62.015-.773.157-.778.732-.022 1.814-.022 3.72 0 5.669 0 .584.165.755.74.76a350.434 350.434 0 0 0 5.846 0c.534 0 .717-.176.726-.695a174.61 174.61 0 0 0 0-5.745Zm-1.213 5.248h-4.878v-4.793h4.878v4.793ZM58.925 177.447c0-.54-.16-.699-.696-.715H53.47c-.45 0-.816 0-1.158.013-.538.016-.69.156-.698.653a167.42 167.42 0 0 0 0 5.827c0 .519.182.679.736.683a322.919 322.919 0 0 0 5.847 0c.54 0 .707-.162.716-.692.028-1.698.032-3.525.012-5.769Zm-1.197 5.263h-4.902v-4.773h4.902v4.773Z"/><path d="M58.925 177.447c0-.54-.16-.699-.696-.715H53.47c-.45 0-.816 0-1.158.013-.538.016-.69.156-.698.653a167.42 167.42 0 0 0 0 5.827c0 .519.182.679.736.683a322.919 322.919 0 0 0 5.847 0c.54 0 .707-.162.716-.692.028-1.698.032-3.525.012-5.769Zm-1.197 5.263h-4.902v-4.773h4.902v4.773Z"/><path d="M58.925 177.447c0-.54-.16-.699-.696-.715H53.47c-.45 0-.816 0-1.158.013-.538.016-.69.156-.698.653a167.42 167.42 0 0 0 0 5.827c0 .519.182.679.736.683a322.919 322.919 0 0 0 5.847 0c.54 0 .707-.162.716-.692.028-1.698.032-3.525.012-5.769Zm-1.197 5.263h-4.902v-4.773h4.902v4.773Z"/><path d="M58.925 177.447c0-.54-.16-.699-.696-.715H53.47c-.45 0-.816 0-1.158.013-.538.016-.69.156-.698.653a167.42 167.42 0 0 0 0 5.827c0 .519.182.679.736.683a322.919 322.919 0 0 0 5.847 0c.54 0 .707-.162.716-.692.028-1.698.032-3.525.012-5.769Zm-1.197 5.263h-4.902v-4.773h4.902v4.773Z"/></g><g clip-path="url(#c)"><path d="M216.991 186.131c0-1.165-.407-1.57-1.58-1.601h-3.575v-17.145c0-12.85-.028-26.136.052-39.204.016-2.376-.78-4.488-2.236-5.944a7.441 7.441 0 0 0-5.408-2.106h-.475a88.187 88.187 0 0 1-4.297.089c-.99 0-1.984 0-2.974-.019-.99-.018-1.974-.018-2.962-.018h-26.159a11.873 11.873 0 0 1 1.73 2.422h34.443c.54 0 .975 0 1.376.024a4.477 4.477 0 0 1 2.913 1.134 4.42 4.42 0 0 1 1.446 2.756c.067.486.097.976.089 1.466v56.438H107.617V127.997c0-3.679 1.712-5.374 5.392-5.377h34.887a11.892 11.892 0 0 1 1.73-2.425h-24.568c-1.85-.018-3.655-.021-5.037-.021H112.435a7.018 7.018 0 0 0-3.128.628 6.97 6.97 0 0 0-2.52 1.947c-1.129 1.333-1.629 2.958-1.629 5.276.012 13.923.012 27.846 0 41.77v14.729h-2.274c-.373 0-.681 0-.965-.024h-.228c-.809 0-1.336.279-1.691.892v7.777c1.169 3.387 3.486 4.825 7.712 4.825h.083c9.918-.046 20.496-.064 34.298-.064H210.642c3.773 0 6.318-2.542 6.339-6.315.019-1.496.025-3.486.01-5.484Zm-69.543.888h22.097v2.91h-22.097v-2.91Zm67.025 5.396c-.123 1.649-1.505 2.943-3.291 3.065-.176 0-.361.019-.617.019H107.04c-3.394 0-4.578-1.205-4.578-4.599v-3.881h42.441V189.674c.034 1.974.843 2.784 2.777 2.784h21.578c1.959 0 2.777-.804 2.817-2.759v-2.63h42.426v.613c0 .475 0 .95.016 1.425.018 1.082.037 2.201-.044 3.308Z"/><path d="M171.523 122.62a14.27 14.27 0 0 0-2.662-4.052A14.346 14.346 0 0 0 158.346 114a14.382 14.382 0 0 0-11.826 6.195 14.181 14.181 0 0 0-1.134 14.183 14.265 14.265 0 0 0 3.895 4.937 14.427 14.427 0 0 0 17.715.326 14.286 14.286 0 0 0 4.077-4.79 14.187 14.187 0 0 0 .45-12.231Zm-13.175 17.59a12.085 12.085 0 0 1-6.566-1.945 11.968 11.968 0 0 1-4.432-5.19 11.878 11.878 0 0 1-.864-6.753 11.927 11.927 0 0 1 2.987-6.127c.396-.423.822-.819 1.274-1.183a12.15 12.15 0 0 1 2.609-1.64 12.097 12.097 0 0 1 11.496.824 11.982 11.982 0 0 1 4.052 4.326 11.9 11.9 0 0 1-2.049 14.183 12.024 12.024 0 0 1-3.903 2.593 12.092 12.092 0 0 1-4.604.912Z"/><path d="m151.11 127.013.028.395v.141c0 .098.018.184.018.273 0 1.324-.176 1.515-1.496 1.564h-.025a.306.306 0 0 0-.117.039 17.74 17.74 0 0 0-.518 1h1.879a.856.856 0 0 1 .87.588c1.132 2.86 3.263 4.537 6.336 4.979a7.209 7.209 0 0 0 5.183-1.165c-.232-.463-.476-.92-.732-1.401l-.027-.058a6.482 6.482 0 0 1-3.394.965 7.362 7.362 0 0 1-1.317-.125c-1.669-.307-3.871-1.84-4.106-3.29l-.077-.487h5.63c.03.003.06.003.089 0 .158-.334.309-.681.457-1.045h-6.87l-.019-.402-.018-.307a7.73 7.73 0 0 1-.028-.659c0-.809.21-1.005 1.021-1.005H160.642a.515.515 0 0 0 .111 0c.161-.331.309-.678.46-1.039h-7.678l.163-.543c.309-1.021 1.45-2.201 2.669-2.743a6.412 6.412 0 0 1 3.089-.607 6.42 6.42 0 0 1 3.006.931c.019-.039.037-.082.053-.125.197-.466.382-.92.595-1.352l.022-.052-.053-.034a7.41 7.41 0 0 0-3.887-1.119 8.343 8.343 0 0 0-1.946.242 7.595 7.595 0 0 0-3.352 1.691 7.526 7.526 0 0 0-2.121 3.085.897.897 0 0 1-.879.607h-.08c-.157 0-.324-.015-.512-.015s-.46 0-.688.015h-.059c-.185.341-.364.693-.549 1.058h2.104ZM149.864 146.569a14.389 14.389 0 0 0-21.029-.003 14.21 14.21 0 0 0-3.631 7.309 14.176 14.176 0 0 0 .992 8.092 14.28 14.28 0 0 0 5.291 6.228 14.407 14.407 0 0 0 7.861 2.33c2.792 0 5.524-.809 7.86-2.33a14.283 14.283 0 0 0 5.292-6.228 14.176 14.176 0 0 0 .992-8.092 14.224 14.224 0 0 0-3.631-7.309l.003.003Zm-10.513 21.642a12.077 12.077 0 0 1-7.556-2.646 11.945 11.945 0 0 1-4.208-6.774 11.884 11.884 0 0 1 1.004-7.897 11.997 11.997 0 0 1 5.772-5.521 12.085 12.085 0 0 1 5.852-1.043c2.008.144 3.948.787 5.641 1.869a11.988 11.988 0 0 1 4.051 4.326 11.894 11.894 0 0 1-2.049 14.181 12.073 12.073 0 0 1-8.507 3.505ZM188.177 146.448a14.384 14.384 0 0 0-1.9-1.707 14.477 14.477 0 0 0-10.361-2.789 14.434 14.434 0 0 0-9.427 5.1 14.264 14.264 0 0 0-3.265 10.161 14.293 14.293 0 0 0 4.708 9.586 14.47 14.47 0 0 0 10.07 3.693 14.458 14.458 0 0 0 9.847-4.248 14.277 14.277 0 0 0 4.16-9.832 14.267 14.267 0 0 0-3.832-9.964Zm-10.513 21.643a12.089 12.089 0 0 1-7.556-2.646 11.948 11.948 0 0 1-4.208-6.774 11.888 11.888 0 0 1 1.004-7.898 12 12 0 0 1 5.772-5.52 12.08 12.08 0 0 1 6.537-.98 12.038 12.038 0 0 1 6.067 2.608 11.942 11.942 0 0 1 3.963 6.049c.662 2.374.57 4.893-.264 7.213a11.96 11.96 0 0 1-4.393 5.748 12.087 12.087 0 0 1-6.922 2.187v.013Z"/><path d="M143.633 161.577v1.732h-9.517v-1.839c1.851-.877 2.249-2.425 2.307-4.788v-.157h-2.267v-1.732h2.206v-.156c-.053-2.909.573-4.825 1.912-5.852a4.031 4.031 0 0 1 2.524-.788 8.42 8.42 0 0 1 2.606.479l-.564 1.618a6.635 6.635 0 0 0-2.021-.386 2.359 2.359 0 0 0-1.468.432c-.867.662-1.28 2.173-1.234 4.488v.15h3.085v1.732h-3.023v.15c-.031 1.533-.201 3.302-1.2 4.675l-.179.242h6.833ZM176.936 163.339v-4.08h-3.468v-1.254h3.462v-1.257h-3.458v-1.259h2.727l-3.48-6.251h1.971c.03-.003.06.004.085.02a.131.131 0 0 1 .057.066c.96 1.862 1.922 3.721 2.884 5.579l.05.089.617-1.205 2.298-4.451a.15.15 0 0 1 .163-.098h1.956l-3.48 6.238h2.731v1.257h-3.452v1.263h3.458v1.254h-3.455v4.098l-1.666-.009Z"/></g></g><defs><clipPath id="a"><path fill="#fff" d="M0 0h220v200H0z"/></clipPath><clipPath id="b"><path fill="#fff" d="M0 113h86v86H0z"/></clipPath><clipPath id="c"><path fill="#fff" d="M100 114h117v84H100z"/></clipPath></defs></svg>