<svg xmlns="http://www.w3.org/2000/svg" width="220" height="200" fill="none"><path fill="#525252" d="M140.497 172.424c-.545 4.555-4.652 8.25-9.347 8.418-3.991.141-8.003.158-11.048.158H99.826c-3.334 0-7.734 0-12.212-.107-7.894-.165-14.63-3.437-20.075-9.734-1.905-2.205-3.814-4.478-5.662-6.673a2273.193 2273.193 0 0 0-4.083-4.84c-4.083-4.81-9.418-7.595-15.811-8.273a6.835 6.835 0 0 0-.796-.047c-1.61 0-2.79.711-3.614 2.178-1.303 2.323-3.3 3.608-5.94 3.82-.75.06-1.495.09-2.223.09a23.762 23.762 0 0 1-3.297-.221c-1.184-.165-1.36-1.098-1.334-1.85.013-.45.2-.878.523-1.197a1.803 1.803 0 0 1 1.213-.518c.537-.05 1.092-.057 1.61-.057h1.632c3.519-.057 5.022-1.52 5.03-4.897v-29.832c0-4.296-3.063-4.773-4.363-4.776H13.925v26.348c0 1.829-.636 2.014-.847 2.088-.221.062-.45.091-.68.083a6.457 6.457 0 0 1-1.835-.315c-.112-.128-.285-.376-.408-.55l-.17-.242V111.73c.46-1.007 1.201-1.564 3.15-1.564h.134c2.534.033 5.192.05 8.125.05 2.508 0 5.223 0 8.54-.037h.14c3.477 0 5.937 1.299 7.734 4.091.762 1.189 2.382 1.83 3.59 1.853 2.014.037 4.14.054 6.896.054h6.258c9.939 0 18.183 3.296 25.213 10.069 3.497 3.377 7.084 6.777 10.547 10.07 3.206 3.037 6.52 6.182 9.756 9.294 4.137 3.98 4.763 9.24 1.561 13.395a9.971 9.971 0 0 1-3.496 2.885 10.113 10.113 0 0 1-4.431 1.056 9.2 9.2 0 0 1-5.856-2.078c-3.257-2.641-6.428-5.545-9.493-8.351-1.341-1.232-2.722-2.504-4.114-3.742l-1.038-.92c-.96-.846-1.864-1.648-2.722-2.497-.401-.389-1.613-1.756-.439-3.021a1.753 1.753 0 0 1 1.313-.617c.644.04 1.25.312 1.702.765 2.453 2.175 4.927 4.41 7.322 6.575a976.766 976.766 0 0 0 8.537 7.649c1.116.98 2.82 2.155 4.6 2.159 1.702 0 4.022-.967 5.033-2.582 1.01-1.614.806-3.745.565-5.219-.208-1.272-1.168-2.138-1.872-2.769l-.34-.305a1435.55 1435.55 0 0 0-8.214-7.831c-3.872-3.692-7.873-7.495-11.79-11.257-6.124-5.884-13.562-8.868-22.116-8.868H38.897v27.053l1.769.235 1.252.154c.885.108 1.8.218 2.674.373 6.666 1.178 12.103 4.363 16.619 9.764a1135.88 1135.88 0 0 0 4.82 5.706c1.434 1.702 2.858 3.394 4.271 5.075 4.852 5.783 11.184 8.726 18.823 8.726H129.231c5.158 0 6.72-2.843 7.193-4.531a6.178 6.178 0 0 0-.96-5.441 6.684 6.684 0 0 0-2.362-1.884 6.771 6.771 0 0 0-2.963-.663c-1.667-.03-3.497-.044-5.76-.044h-8.023c-.514.015-1.028-.01-1.538-.074-1.361-.221-1.998-.913-1.913-2.057.109-1.45 1.334-1.678 2.042-1.705 2.266-.041 4.478-.064 6.574-.064 1.895 0 3.766.017 5.563.054h.898c1.916.026 3.726.05 5.339.486 4.954 1.329 7.822 5.854 7.176 11.224Z"/><path fill="#525252" d="M140.497 172.424c-.545 4.555-4.652 8.25-9.347 8.418-3.991.141-8.003.158-11.048.158H99.826c-3.334 0-7.734 0-12.212-.107-7.894-.165-14.63-3.437-20.075-9.734-1.905-2.205-3.814-4.478-5.662-6.673a2273.193 2273.193 0 0 0-4.083-4.84c-4.083-4.81-9.418-7.595-15.811-8.273a6.835 6.835 0 0 0-.796-.047c-1.61 0-2.79.711-3.614 2.178-1.303 2.323-3.3 3.608-5.94 3.82-.75.06-1.495.09-2.223.09a23.762 23.762 0 0 1-3.297-.221c-1.184-.165-1.36-1.098-1.334-1.85.013-.45.2-.878.523-1.197a1.803 1.803 0 0 1 1.213-.518c.537-.05 1.092-.057 1.61-.057h1.632c3.519-.057 5.022-1.52 5.03-4.897v-29.832c0-4.296-3.063-4.773-4.363-4.776H13.925v26.348c0 1.829-.636 2.014-.847 2.088-.221.062-.45.091-.68.083a6.457 6.457 0 0 1-1.835-.315c-.112-.128-.285-.376-.408-.55l-.17-.242V111.73c.46-1.007 1.201-1.564 3.15-1.564h.134c2.534.033 5.192.05 8.125.05 2.508 0 5.223 0 8.54-.037h.14c3.477 0 5.937 1.299 7.734 4.091.762 1.189 2.382 1.83 3.59 1.853 2.014.037 4.14.054 6.896.054h6.258c9.939 0 18.183 3.296 25.213 10.069 3.497 3.377 7.084 6.777 10.547 10.07 3.206 3.037 6.52 6.182 9.756 9.294 4.137 3.98 4.763 9.24 1.561 13.395a9.971 9.971 0 0 1-3.496 2.885 10.113 10.113 0 0 1-4.431 1.056 9.2 9.2 0 0 1-5.856-2.078c-3.257-2.641-6.428-5.545-9.493-8.351-1.341-1.232-2.722-2.504-4.114-3.742l-1.038-.92c-.96-.846-1.864-1.648-2.722-2.497-.401-.389-1.613-1.756-.439-3.021a1.753 1.753 0 0 1 1.313-.617c.644.04 1.25.312 1.702.765 2.453 2.175 4.927 4.41 7.322 6.575a976.766 976.766 0 0 0 8.537 7.649c1.116.98 2.82 2.155 4.6 2.159 1.702 0 4.022-.967 5.033-2.582 1.01-1.614.806-3.745.565-5.219-.208-1.272-1.168-2.138-1.872-2.769l-.34-.305a1435.55 1435.55 0 0 0-8.214-7.831c-3.872-3.692-7.873-7.495-11.79-11.257-6.124-5.884-13.562-8.868-22.116-8.868H38.897v27.053l1.769.235 1.252.154c.885.108 1.8.218 2.674.373 6.666 1.178 12.103 4.363 16.619 9.764a1135.88 1135.88 0 0 0 4.82 5.706c1.434 1.702 2.858 3.394 4.271 5.075 4.852 5.783 11.184 8.726 18.823 8.726H129.231c5.158 0 6.72-2.843 7.193-4.531a6.178 6.178 0 0 0-.96-5.441 6.684 6.684 0 0 0-2.362-1.884 6.771 6.771 0 0 0-2.963-.663c-1.667-.03-3.497-.044-5.76-.044h-8.023c-.514.015-1.028-.01-1.538-.074-1.361-.221-1.998-.913-1.913-2.057.109-1.45 1.334-1.678 2.042-1.705 2.266-.041 4.478-.064 6.574-.064 1.895 0 3.766.017 5.563.054h.898c1.916.026 3.726.05 5.339.486 4.954 1.329 7.822 5.854 7.176 11.224ZM13.85 155.468c0 .953-.4 1.496-1.285 1.755a2.739 2.739 0 0 1-.752.121c-.388 0-.902-.104-1.464-.927a5.441 5.441 0 0 1-.34-.574v-.808c.126-.182.255-.36.388-.537.579-.793 1.1-.87 1.443-.87.23.004.46.041.68.111.912.265 1.334.819 1.33 1.729Z"/><path fill="#525252" d="M13.85 155.468c0 .953-.4 1.496-1.285 1.755a2.739 2.739 0 0 1-.752.121c-.388 0-.902-.104-1.464-.927a5.441 5.441 0 0 1-.34-.574v-.808c.126-.182.255-.36.388-.537.579-.793 1.1-.87 1.443-.87.23.004.46.041.68.111.912.265 1.334.819 1.33 1.729ZM210.998 81.129v.352c0 2.894-.443 3.33-3.369 3.333h-10.112c-2.45 0-4.458 0-6.319.027h-.183c-3.556 0-6.05-1.316-7.85-4.135-.776-1.218-2.419-1.796-3.62-1.816-2.12-.037-4.189-.043-5.931-.043h-7.513c-9.418-.06-17.503-3.196-24.025-9.318a1703.542 1703.542 0 0 1-21.3-20.276c-2.311-2.236-3.522-5.035-3.403-7.861a9.839 9.839 0 0 1 3.096-6.58 10.102 10.102 0 0 1 6.816-2.727 9.057 9.057 0 0 1 5.74 1.977c2.902 2.349 5.726 4.91 8.459 7.4a423.658 423.658 0 0 0 3.531 3.202c1.266 1.128 2.518 2.266 3.774 3.404l1.089 1.007c1 .906 1.565 1.792 1.592 2.49a1.507 1.507 0 0 1-.514 1.138 1.523 1.523 0 0 1-1.15.584c-.68 0-1.63-.496-2.63-1.396-2.901-2.611-5.8-5.227-8.697-7.847l-6.213-5.65-.071-.063c-.486-.46-1.007-.88-1.559-1.259a6.273 6.273 0 0 0-3.446-1.05 5.854 5.854 0 0 0-2.335.48 5.78 5.78 0 0 0-1.939 1.37c-1.953 2.083-2.106 5.067-.385 7.43.474.623 1.003 1.201 1.583 1.729 2.268 2.166 4.536 4.328 6.805 6.488 4.287 4.071 8.717 8.284 13.038 12.452 6.186 5.971 13.692 8.999 22.307 8.999h15.918V47.917l-1.77-.235-1.334-.165c-.932-.114-1.813-.221-2.681-.372-6.628-1.175-12.021-4.323-16.482-9.623-1.361-1.607-2.715-3.21-4.062-4.81a4074.183 4074.183 0 0 1-5.159-6.119c-4.855-5.78-11.184-8.71-18.819-8.71h-.065c-5.947.014-11.896.02-17.846.02-7.397 0-14.794-.007-22.192-.023-1.34 0-5.263 0-6.961 3.914a5.88 5.88 0 0 0 .46 5.669 6.7 6.7 0 0 0 2.412 2.161 6.804 6.804 0 0 0 3.16.789c1.824.034 3.77.047 6.305.047h8.939a9.82 9.82 0 0 1 2.126.198c.426.08.808.31 1.075.646.267.336.402.757.378 1.183-.03.826-.605 1.722-1.483 1.732-1.32.017-2.641.04-3.964.064-2.229.037-4.532.077-6.785.077-3.365 0-6.124-.09-8.68-.282-4.763-.356-8.564-5.081-8.336-10.32.228-5.24 4.226-9.385 9.289-9.583 3.818-.155 7.537-.175 10.67-.175h20.354c5.04 0 8.895.03 12.501.097 8.024.148 14.88 3.481 20.375 9.909a752.625 752.625 0 0 1 6.056 7.155c1.135 1.343 2.276 2.697 3.423 4.062a23.355 23.355 0 0 0 7.122 5.786 23.644 23.644 0 0 0 8.836 2.622c.241.026.483.039.725.04 1.579 0 2.77-.708 3.641-2.162 1.473-2.467 5.015-4.255 8.425-4.255a7.666 7.666 0 0 1 2.953.54c.878.366 1.201.923 1.123 1.93-.015.4-.174.78-.449 1.075a1.707 1.707 0 0 1-1.048.53c-.697.073-1.399.105-2.1.096h-1.453c-2.875 0-4.661 1.736-4.658 4.518v30.624c0 2.656 1.702 4.364 4.349 4.364H207.071V53.818a6.96 6.96 0 0 1 .232-2.081c.275-.813.806-1.175 1.701-1.175s1.456.369 1.728 1.181c.18.682.257 1.387.228 2.091.048 9.096.041 18.347.038 27.295Z"/><path fill="#525252" d="M210.998 81.129v.352c0 2.894-.443 3.33-3.369 3.333h-10.112c-2.45 0-4.458 0-6.319.027h-.183c-3.556 0-6.05-1.316-7.85-4.135-.776-1.218-2.419-1.796-3.62-1.816-2.12-.037-4.189-.043-5.931-.043h-7.513c-9.418-.06-17.503-3.196-24.025-9.318a1703.542 1703.542 0 0 1-21.3-20.276c-2.311-2.236-3.522-5.035-3.403-7.861a9.839 9.839 0 0 1 3.096-6.58 10.102 10.102 0 0 1 6.816-2.727 9.057 9.057 0 0 1 5.74 1.977c2.902 2.349 5.726 4.91 8.459 7.4a423.658 423.658 0 0 0 3.531 3.202c1.266 1.128 2.518 2.266 3.774 3.404l1.089 1.007c1 .906 1.565 1.792 1.592 2.49a1.507 1.507 0 0 1-.514 1.138 1.523 1.523 0 0 1-1.15.584c-.68 0-1.63-.496-2.63-1.396-2.901-2.611-5.8-5.227-8.697-7.847l-6.213-5.65-.071-.063c-.486-.46-1.007-.88-1.559-1.259a6.273 6.273 0 0 0-3.446-1.05 5.854 5.854 0 0 0-2.335.48 5.78 5.78 0 0 0-1.939 1.37c-1.953 2.083-2.106 5.067-.385 7.43.474.623 1.003 1.201 1.583 1.729 2.268 2.166 4.536 4.328 6.805 6.488 4.287 4.071 8.717 8.284 13.038 12.452 6.186 5.971 13.692 8.999 22.307 8.999h15.918V47.917l-1.77-.235-1.334-.165c-.932-.114-1.813-.221-2.681-.372-6.628-1.175-12.021-4.323-16.482-9.623-1.361-1.607-2.715-3.21-4.062-4.81a4074.183 4074.183 0 0 1-5.159-6.119c-4.855-5.78-11.184-8.71-18.819-8.71h-.065c-5.947.014-11.896.02-17.846.02-7.397 0-14.794-.007-22.192-.023-1.34 0-5.263 0-6.961 3.914a5.88 5.88 0 0 0 .46 5.669 6.7 6.7 0 0 0 2.412 2.161 6.804 6.804 0 0 0 3.16.789c1.824.034 3.77.047 6.305.047h8.939a9.82 9.82 0 0 1 2.126.198c.426.08.808.31 1.075.646.267.336.402.757.378 1.183-.03.826-.605 1.722-1.483 1.732-1.32.017-2.641.04-3.964.064-2.229.037-4.532.077-6.785.077-3.365 0-6.124-.09-8.68-.282-4.763-.356-8.564-5.081-8.336-10.32.228-5.24 4.226-9.385 9.289-9.583 3.818-.155 7.537-.175 10.67-.175h20.354c5.04 0 8.895.03 12.501.097 8.024.148 14.88 3.481 20.375 9.909a752.625 752.625 0 0 1 6.056 7.155c1.135 1.343 2.276 2.697 3.423 4.062a23.355 23.355 0 0 0 7.122 5.786 23.644 23.644 0 0 0 8.836 2.622c.241.026.483.039.725.04 1.579 0 2.77-.708 3.641-2.162 1.473-2.467 5.015-4.255 8.425-4.255a7.666 7.666 0 0 1 2.953.54c.878.366 1.201.923 1.123 1.93-.015.4-.174.78-.449 1.075a1.707 1.707 0 0 1-1.048.53c-.697.073-1.399.105-2.1.096h-1.453c-2.875 0-4.661 1.736-4.658 4.518v30.624c0 2.656 1.702 4.364 4.349 4.364H207.071V53.818a6.96 6.96 0 0 1 .232-2.081c.275-.813.806-1.175 1.701-1.175s1.456.369 1.728 1.181c.18.682.257 1.387.228 2.091.048 9.096.041 18.347.038 27.295ZM140.579 92.729a16.107 16.107 0 0 0-5.294-10.27 16.526 16.526 0 0 0-10.879-4.19c-1.671 0-3.33.27-4.913.8-1.769.586-3.505 1.58-5.342 2.63a81.578 81.578 0 0 1-2.889 1.598l-1.228.635-1.235-1.03c-.262-.219-.681-.572-1.11-.93a15.804 15.804 0 0 0-10.245-3.652c-6.063 0-11.548 3.037-14.314 7.92-4.274 7.56-2.627 15.934 4.195 21.338 4.903 3.883 9.925 7.79 14.781 11.569 2.13 1.658 4.259 3.317 6.386 4.975 1.076.842 1.804 1.235 2.29 1.235.487 0 1.195-.386 2.249-1.212a7737.01 7737.01 0 0 0 21.287-16.725c4.818-3.803 6.873-8.62 6.261-14.691Zm-6.683 9.811-.072.087a4.83 4.83 0 0 1-.782.816 7733.52 7733.52 0 0 1-18.762 14.768l-3.518 2.769-1.273-1.007a3520.289 3520.289 0 0 1-6.029-4.699c-4.706-3.655-9.575-7.434-14.263-11.261-4.23-3.45-5.594-8.425-3.743-13.64 1.773-4.985 5.737-7.908 11.16-8.227.296-.017.592-.024.878-.024 4.804 0 8.605 2.35 10.997 6.774.919 1.708 1.453 2.014 2.239 2.014h.041c.806 0 1.385-.316 2.293-2.048 2.29-4.363 6.223-6.753 11.075-6.753h.341c5.178.12 9.187 2.752 11.259 7.414 2.028 4.555 1.388 9.06-1.841 13.017Z"/><path fill="#525252" d="M140.579 92.729a16.107 16.107 0 0 0-5.294-10.27 16.526 16.526 0 0 0-10.879-4.19c-1.671 0-3.33.27-4.913.8-1.769.586-3.505 1.58-5.342 2.63a81.578 81.578 0 0 1-2.889 1.598l-1.228.635-1.235-1.03c-.262-.219-.681-.572-1.11-.93a15.804 15.804 0 0 0-10.245-3.652c-6.063 0-11.548 3.037-14.314 7.92-4.274 7.56-2.627 15.934 4.195 21.338 4.903 3.883 9.925 7.79 14.781 11.569 2.13 1.658 4.259 3.317 6.386 4.975 1.076.842 1.804 1.235 2.29 1.235.487 0 1.195-.386 2.249-1.212a7737.01 7737.01 0 0 0 21.287-16.725c4.818-3.803 6.873-8.62 6.261-14.691Zm-6.683 9.811-.072.087a4.83 4.83 0 0 1-.782.816 7733.52 7733.52 0 0 1-18.762 14.768l-3.518 2.769-1.273-1.007a3520.289 3520.289 0 0 1-6.029-4.699c-4.706-3.655-9.575-7.434-14.263-11.261-4.23-3.45-5.594-8.425-3.743-13.64 1.773-4.985 5.737-7.908 11.16-8.227.296-.017.592-.024.878-.024 4.804 0 8.605 2.35 10.997 6.774.919 1.708 1.453 2.014 2.239 2.014h.041c.806 0 1.385-.316 2.293-2.048 2.29-4.363 6.223-6.753 11.075-6.753h.341c5.178.12 9.187 2.752 11.259 7.414 2.028 4.555 1.388 9.06-1.841 13.017ZM161.753 124.427a1.81 1.81 0 0 1-.537 1.352 1.867 1.867 0 0 1-1.365.541 2.02 2.02 0 0 1-1.364-.61 1.967 1.967 0 0 1-.559-1.37c.045-.488.265-.944.621-1.286a2.096 2.096 0 0 1 1.319-.58h.047a1.91 1.91 0 0 1 1.72 1.227c.087.232.127.479.118.726Z"/><path fill="#525252" d="M161.753 124.427a1.81 1.81 0 0 1-.537 1.352 1.867 1.867 0 0 1-1.365.541 2.02 2.02 0 0 1-1.364-.61 1.967 1.967 0 0 1-.559-1.37c.045-.488.265-.944.621-1.286a2.096 2.096 0 0 1 1.319-.58h.047a1.91 1.91 0 0 1 1.72 1.227c.087.232.127.479.118.726ZM98.822 43.359a2.019 2.019 0 0 1-.592 1.318 2.071 2.071 0 0 1-1.33.598 2.03 2.03 0 0 1-1.37-.609 1.976 1.976 0 0 1-.563-1.374c.034-.49.252-.95.611-1.29.36-.339.835-.534 1.332-.546h.034a1.926 1.926 0 0 1 1.34.567 1.874 1.874 0 0 1 .538 1.336Z"/><path fill="#525252" d="M98.822 43.359a2.019 2.019 0 0 1-.592 1.318 2.071 2.071 0 0 1-1.33.598 2.03 2.03 0 0 1-1.37-.609 1.976 1.976 0 0 1-.563-1.374c.034-.49.252-.95.611-1.29.36-.339.835-.534 1.332-.546h.034a1.926 1.926 0 0 1 1.34.567 1.874 1.874 0 0 1 .538 1.336ZM62.398 72.218c-.004.51-.211.997-.577 1.358-.365.361-.859.566-1.376.572h-.088a1.963 1.963 0 0 1-1.304-.652 1.854 1.854 0 0 1-.55-1.292c.038-.492.254-.954.609-1.302a2.102 2.102 0 0 1 1.323-.594c.51.018.994.225 1.358.578.363.354.58.829.605 1.332Z"/><path fill="#525252" d="M62.398 72.218c-.004.51-.211.997-.577 1.358-.365.361-.859.566-1.376.572h-.088a1.963 1.963 0 0 1-1.304-.652 1.854 1.854 0 0 1-.55-1.292c.038-.492.254-.954.609-1.302a2.102 2.102 0 0 1 1.323-.594c.51.018.994.225 1.358.578.363.354.58.829.605 1.332ZM168.826 101.889a2.027 2.027 0 0 1-.608 1.294 2.086 2.086 0 0 1-1.317.589h-.021a1.996 1.996 0 0 1-1.325-.59 1.94 1.94 0 0 1-.56-1.324 1.913 1.913 0 0 1 .542-1.342c.351-.361.83-.573 1.336-.591h.072c.504.039.976.262 1.324.624.348.363.546.84.557 1.34Z"/><path fill="#525252" d="M168.826 101.889a2.027 2.027 0 0 1-.608 1.294 2.086 2.086 0 0 1-1.317.589h-.021a1.996 1.996 0 0 1-1.325-.59 1.94 1.94 0 0 1-.56-1.324 1.913 1.913 0 0 1 .542-1.342c.351-.361.83-.573 1.336-.591h.072c.504.039.976.262 1.324.624.348.363.546.84.557 1.34ZM135.553 147.976a2.1 2.1 0 0 1-.634 1.35 2.152 2.152 0 0 1-1.38.6h-.065c-.922 0-1.749-.873-1.769-1.873a1.836 1.836 0 0 1 .508-1.352 1.89 1.89 0 0 1 1.332-.591h.069a1.98 1.98 0 0 1 1.391.587 1.77 1.77 0 0 1 .548 1.279Z"/><path fill="#525252" d="M135.553 147.976a2.1 2.1 0 0 1-.634 1.35 2.152 2.152 0 0 1-1.38.6h-.065c-.922 0-1.749-.873-1.769-1.873a1.836 1.836 0 0 1 .508-1.352 1.89 1.89 0 0 1 1.332-.591h.069a1.98 1.98 0 0 1 1.391.587 1.77 1.77 0 0 1 .548 1.279ZM124.059 151.671a1.996 1.996 0 0 1-.592 1.287 2.05 2.05 0 0 1-1.303.586h-.034a2.056 2.056 0 0 1-1.34-.596 2.004 2.004 0 0 1-.586-1.33 1.836 1.836 0 0 1 .572-1.319c.365-.362.86-.566 1.378-.568h.068a1.93 1.93 0 0 1 1.321.599c.344.363.529.845.516 1.341Z"/><path fill="#525252" d="M124.059 151.671a1.996 1.996 0 0 1-.592 1.287 2.05 2.05 0 0 1-1.303.586h-.034a2.056 2.056 0 0 1-1.34-.596 2.004 2.004 0 0 1-.586-1.33 1.836 1.836 0 0 1 .572-1.319c.365-.362.86-.566 1.378-.568h.068a1.93 1.93 0 0 1 1.321.599c.344.363.529.845.516 1.341ZM87.577 47.49c-.02.493-.23.96-.59 1.304-.357.344-.836.54-1.336.546a1.884 1.884 0 0 1-1.065-.287c-.317-.2-.566-.49-.713-.832a1.817 1.817 0 0 1 .417-2.04 1.92 1.92 0 0 1 1.361-.59h.058c.494.034.957.247 1.302.597.345.351.546.815.566 1.303Z"/><path fill="#525252" d="M87.577 47.49c-.02.493-.23.96-.59 1.304-.357.344-.836.54-1.336.546a1.884 1.884 0 0 1-1.065-.287c-.317-.2-.566-.49-.713-.832a1.817 1.817 0 0 1 .417-2.04 1.92 1.92 0 0 1 1.361-.59h.058c.494.034.957.247 1.302.597.345.351.546.815.566 1.303ZM168.898 90.03c-.03.49-.239.952-.589 1.3-.35.347-.817.557-1.313.59h-.021a1.939 1.939 0 0 1-1.361-.618 1.884 1.884 0 0 1-.512-.966 1.868 1.868 0 0 1 .113-1.085c.146-.343.39-.636.703-.842a1.934 1.934 0 0 1 1.057-.319h.062c.502.03.974.246 1.32.606.346.361.539.838.541 1.334Z"/><path fill="#525252" d="M168.898 90.03c-.03.49-.239.952-.589 1.3-.35.347-.817.557-1.313.59h-.021a1.939 1.939 0 0 1-1.361-.618 1.884 1.884 0 0 1-.512-.966 1.868 1.868 0 0 1 .113-1.085c.146-.343.39-.636.703-.842a1.934 1.934 0 0 1 1.057-.319h.062c.502.03.974.246 1.32.606.346.361.539.838.541 1.334ZM56.396 95.015a1.99 1.99 0 0 1-.585 1.433 1.826 1.826 0 0 1-1.303.567h-.02a2.112 2.112 0 0 1-1.34-.616 2.058 2.058 0 0 1-.597-1.334c.027-.49.237-.954.59-1.3a2.02 2.02 0 0 1 1.322-.573c.506-.005.994.184 1.361.527a1.834 1.834 0 0 1 .572 1.296Z"/><path fill="#525252" d="M56.396 95.015a1.99 1.99 0 0 1-.585 1.433 1.826 1.826 0 0 1-1.303.567h-.02a2.112 2.112 0 0 1-1.34-.616 2.058 2.058 0 0 1-.597-1.334c.027-.49.237-.954.59-1.3a2.02 2.02 0 0 1 1.322-.573c.506-.005.994.184 1.361.527a1.834 1.834 0 0 1 .572 1.296ZM154.839 134.127a1.987 1.987 0 0 1-.646 1.28 2.034 2.034 0 0 1-1.348.523 1.423 1.423 0 0 1-.16 0 1.9 1.9 0 0 1-1.244-.646 1.847 1.847 0 0 1 .151-2.57 1.901 1.901 0 0 1 1.311-.5h.146c.518.041.999.282 1.337.671a1.724 1.724 0 0 1 .453 1.242Z"/><path fill="#525252" d="M154.839 134.127a1.987 1.987 0 0 1-.646 1.28 2.034 2.034 0 0 1-1.348.523 1.423 1.423 0 0 1-.16 0 1.9 1.9 0 0 1-1.244-.646 1.847 1.847 0 0 1 .151-2.57 1.901 1.901 0 0 1 1.311-.5h.146c.518.041.999.282 1.337.671a1.724 1.724 0 0 1 .453 1.242ZM77.414 53.871c-.008.487-.2.954-.538 1.309a1.994 1.994 0 0 1-1.29.611h-.071a1.859 1.859 0 0 1-1.37-.544 1.81 1.81 0 0 1-.522-1.362 1.756 1.756 0 0 1 .526-1.324 1.804 1.804 0 0 1 1.342-.519h.038a1.852 1.852 0 0 1 1.338.518 1.803 1.803 0 0 1 .547 1.311Z"/><path fill="#525252" d="M77.414 53.871c-.008.487-.2.954-.538 1.309a1.994 1.994 0 0 1-1.29.611h-.071a1.859 1.859 0 0 1-1.37-.544 1.81 1.81 0 0 1-.522-1.362 1.756 1.756 0 0 1 .526-1.324 1.804 1.804 0 0 1 1.342-.519h.038a1.852 1.852 0 0 1 1.338.518 1.803 1.803 0 0 1 .547 1.311ZM58.08 83.307a1.979 1.979 0 0 1-.54 1.407 1.797 1.797 0 0 1-1.314.523h-.058a1.864 1.864 0 0 1-1.31-.587 1.813 1.813 0 0 1-.483-1.336 1.863 1.863 0 0 1 .523-1.31c.34-.354.807-.563 1.3-.583a1.89 1.89 0 0 1 1.346.55 1.84 1.84 0 0 1 .536 1.336Z"/><path fill="#525252" d="M58.08 83.307a1.979 1.979 0 0 1-.54 1.407 1.797 1.797 0 0 1-1.314.523h-.058a1.864 1.864 0 0 1-1.31-.587 1.813 1.813 0 0 1-.483-1.336 1.863 1.863 0 0 1 .523-1.31c.34-.354.807-.563 1.3-.583a1.89 1.89 0 0 1 1.346.55 1.84 1.84 0 0 1 .536 1.336ZM57.192 106.883c.017.99-.864 1.953-1.817 1.977h-.047a1.921 1.921 0 0 1-1.338-.581 1.925 1.925 0 0 1-.581-1.366c0-.496.2-.971.555-1.322a1.91 1.91 0 0 1 1.34-.547 1.831 1.831 0 0 1 1.754 1.124c.093.227.139.47.134.715Z"/><path fill="#525252" d="M57.192 106.883c.017.99-.864 1.953-1.817 1.977h-.047a1.921 1.921 0 0 1-1.338-.581 1.925 1.925 0 0 1-.581-1.366c0-.496.2-.971.555-1.322a1.91 1.91 0 0 1 1.34-.547 1.831 1.831 0 0 1 1.754 1.124c.093.227.139.47.134.715ZM166.533 113.512a1.853 1.853 0 0 1-1.185 1.73 1.898 1.898 0 0 1-.734.129h-.088a1.96 1.96 0 0 1-1.334-.634 1.74 1.74 0 0 1-.494-1.262c.007-.489.209-.955.563-1.297.354-.342.83-.532 1.326-.529h.061a1.868 1.868 0 0 1 1.346.535c.176.174.314.381.407.609.093.229.138.473.132.719Z"/><path fill="#525252" d="M166.533 113.512a1.853 1.853 0 0 1-1.185 1.73 1.898 1.898 0 0 1-.734.129h-.088a1.96 1.96 0 0 1-1.334-.634 1.74 1.74 0 0 1-.494-1.262c.007-.489.209-.955.563-1.297.354-.342.83-.532 1.326-.529h.061a1.868 1.868 0 0 1 1.346.535c.176.174.314.381.407.609.093.229.138.473.132.719ZM68.863 62.293a1.864 1.864 0 0 1-.563 1.346 1.913 1.913 0 0 1-1.366.55h-.085a2.004 2.004 0 0 1-1.237-.618 1.953 1.953 0 0 1-.53-1.265 1.85 1.85 0 0 1 .553-1.368 1.902 1.902 0 0 1 1.384-.552h.047a1.85 1.85 0 0 1 1.311.575 1.797 1.797 0 0 1 .486 1.332Z"/><path fill="#525252" d="M68.863 62.293a1.864 1.864 0 0 1-.563 1.346 1.913 1.913 0 0 1-1.366.55h-.085a2.004 2.004 0 0 1-1.237-.618 1.953 1.953 0 0 1-.53-1.265 1.85 1.85 0 0 1 .553-1.368 1.902 1.902 0 0 1 1.384-.552h.047a1.85 1.85 0 0 1 1.311.575 1.797 1.797 0 0 1 .486 1.332ZM145.887 142.015a1.888 1.888 0 0 1-.548 1.369 1.988 1.988 0 0 1-1.385.615h-.017a1.912 1.912 0 0 1-1.299-.596 1.857 1.857 0 0 1-.508-1.321 1.737 1.737 0 0 1 .491-1.332 1.799 1.799 0 0 1 1.326-.544h.044a1.844 1.844 0 0 1 1.338.507 1.804 1.804 0 0 1 .558 1.302Z"/><path fill="#525252" d="M145.887 142.015a1.888 1.888 0 0 1-.548 1.369 1.988 1.988 0 0 1-1.385.615h-.017a1.912 1.912 0 0 1-1.299-.596 1.857 1.857 0 0 1-.508-1.321 1.737 1.737 0 0 1 .491-1.332 1.799 1.799 0 0 1 1.326-.544h.044a1.844 1.844 0 0 1 1.338.507 1.804 1.804 0 0 1 .558 1.302ZM210.96 39.53a1.95 1.95 0 0 1-.601 1.292 2.005 2.005 0 0 1-1.328.553h-.017a1.957 1.957 0 0 1-1.361-.597 1.797 1.797 0 0 1-.541-1.269c.024-.49.239-.951.6-1.288a1.942 1.942 0 0 1 2.667.019c.356.341.564.806.581 1.296v-.007Z"/><path fill="#525252" d="M210.96 39.53a1.95 1.95 0 0 1-.601 1.292 2.005 2.005 0 0 1-1.328.553h-.017a1.957 1.957 0 0 1-1.361-.597 1.797 1.797 0 0 1-.541-1.269c.024-.49.239-.951.6-1.288a1.942 1.942 0 0 1 2.667.019c.356.341.564.806.581 1.296v-.007Z"/></svg>