<svg xmlns="http://www.w3.org/2000/svg" width="220" height="200" fill="none"><path fill="#525252" d="M115.839 182.442c-.178-.272-.281-.436-.392-.595-1.838-2.625-3.653-5.267-5.53-7.865a7.647 7.647 0 0 1-1.466-4.676c.015-3.217 0-6.432 0-9.649 0-.271.015-.543.037-.812.148-1.81 1.034-2.797 2.82-3.148l.597-.117v-2.749c0-2.28 1.33-3.605 3.621-3.605h8.286c.012-.257.03-.466.032-.668v-6.18c0-2.107 1.398-3.507 3.513-3.517 5.046-.007 10.086-.007 15.121 0 2.187 0 3.574 1.395 3.576 3.571v6.759h1.648c.01-.192.029-.382.03-.574v-6.125c0-2.256 1.371-3.629 3.628-3.631h14.958c2.27 0 3.626 1.36 3.626 3.621v6.723c.23.01.42.026.612.026h7.86c2.067 0 3.453 1.365 3.478 3.426.012 1.066 0 2.131 0 3.245h2.836c.012-.202.035-.411.035-.618v-10.3c0-2.241 1.569-3.85 3.823-3.862 3.602-.022 7.205-.022 10.809 0 2.225.014 3.801 1.624 3.804 3.829v10.626c0 .319.04.501.412.623 2.652.82 3.648 3.288 2.254 5.733-.525.917-1.26 1.721-1.929 2.553-4.415 5.491-8.835 10.98-13.263 16.465-.382.474-.802.918-1.305 1.491h6.924c1.157 0 1.85.54 1.85 1.45 0 .91-.691 1.473-1.832 1.473h-88.095a1.48 1.48 0 0 1-1.033-.423 1.462 1.462 0 0 1-.008-2.074 1.46 1.46 0 0 1 1.063-.419c1.85-.015 3.712 0 5.567 0l2.033-.007Zm36.242-.083h29.309c1.071 0 2.142-.067 3.212-.144a2.608 2.608 0 0 0 1.808-.904c.673-.753 1.394-1.478 2.03-2.266 4.854-6 9.696-12.007 14.527-18.024.225-.282.396-.603.505-.947.168-.551-.01-.885-.572-1.023a5.755 5.755 0 0 0-1.346-.167c-7.477-.008-14.954-.013-22.431-.015a1.127 1.127 0 0 0-.939.42c-1.254 1.43-2.522 2.84-3.782 4.275a1.78 1.78 0 0 1-1.43.648c-9.06-.007-18.12-.007-27.179 0a1.58 1.58 0 0 1-1.513-.872c-.732-1.291-1.506-2.559-2.217-3.86-.363-.668-.841-.961-1.613-.959-9.351.014-18.701.017-28.052.012-.957 0-1.009.05-1.009 1.02v9.486a5.73 5.73 0 0 0 1.135 3.54c1.43 1.96 2.787 3.972 4.193 5.95.775 1.09 1.586 2.156 2.384 3.23a1.425 1.425 0 0 0 1.267.61c.562-.02 1.127 0 1.682 0l30.031-.01Zm48.184-26.447v-10.701c0-.923-.239-1.169-1.156-1.169h-10.208c-.962 0-1.189.22-1.189 1.179v10.083c0 .192.016.386.027.6l12.526.008Zm-33.3-6.681c.017-.228.037-.387.037-.546v-6.18c0-.636-.077-.708-.73-.708h-14.84c-.673 0-.728.06-.728.703v6.18c0 .167.023.348.039.553h3.76c2.107 0 3.488 1.373 3.49 3.461v8.536h1.72v-8.538c0-2.094 1.371-3.456 3.482-3.457 1.236-.01 2.472-.009 3.77-.009v.005Zm-23.881 0c.013-.243.028-.419.028-.596v-6.066c0-.703-.07-.772-.783-.772h-14.783c-.673 0-.759.077-.759.74v6.122c0 .167.02.349.034.572H130.674c1.978.009 3.385 1.357 3.427 3.306.022.989 0 1.977 0 2.989h1.699v-2.852c0-2.055 1.392-3.438 3.451-3.443 1.258-.006 2.513-.005 3.833-.005v.005Zm35.857 6.743v-3.1c0-.668-.055-.718-.711-.72h-14.842c-.688 0-.733.049-.733.75v7.75c0 .192.017.384.027.583.084.02.17.034.257.042h9.223a.921.921 0 0 0 .578-.309c.941-1.029 1.862-2.076 2.787-3.122.902-1.034 1.815-2.028 3.418-1.879l-.004.005Zm-23.89 5.256v-8.329c0-.712-.043-.752-.788-.752h-14.671a1.057 1.057 0 0 0-.43.017c-.155.078-.382.232-.387.359-.032 1.002-.017 2.004-.017 3.08.905 0 1.739.015 2.573 0 1.316-.032 2.244.524 2.859 1.684.658 1.225 1.373 2.421 2.093 3.612a.803.803 0 0 0 .57.364c2.618.024 5.235.015 7.854.014.115-.01.23-.026.344-.049Zm-40.194-5.71h16.286v-2.572c0-.775-.022-.799-.794-.799h-15.005c-.336 0-.492.179-.492.501l.001 2.876.004-.006ZM144.809 117.962c.01-.186.027-.346.027-.502 0-2.926.009-5.854-.013-8.78a.953.953 0 0 0-.325-.648c-.622-.501-.841-1.281-.471-1.924.382-.668 1.178-.915 1.944-.566 1.788.81 3.566 1.638 5.347 2.458l40.771 18.795c.148.069.298.131.481.211.113-.134.216-.276.337-.401a1.401 1.401 0 0 1 1.542-.404c.589.195 1.039.629.972 1.231-.099.888.42 1.142 1.075 1.403a1.362 1.362 0 0 1 .911 1.296 1.27 1.27 0 0 1-.745 1.283c-.336.155-.725.167-1.154.257v4.676c.875 0 1.743-.035 2.606.015.393.025.774.147 1.108.354.488.321.632 1.003.446 1.562a1.408 1.408 0 0 1-1.312.981c-2.911.013-5.821.018-8.732 0a1.428 1.428 0 0 1-1.293-.917 1.414 1.414 0 0 1-.09-.547 1.44 1.44 0 0 1 .415-1.004 1.456 1.456 0 0 1 1.002-.434c.923-.026 1.849 0 2.805 0 .026-.152.044-.305.054-.459v-5.258a.614.614 0 0 0-.412-.658c-8.492-3.914-16.984-7.831-25.476-11.752l-18.211-8.391c-.176-.082-.356-.152-.585-.247v8.425h6.051c2.144 0 3.532 1.374 3.532 3.487v8.184c0 2.078-1.386 3.478-3.486 3.481-5.076.012-10.152.012-15.227 0-2.067 0-3.471-1.376-3.492-3.432a424.54 424.54 0 0 1 0-8.293c.022-2.084 1.44-3.424 3.547-3.427h5.895a.93.93 0 0 0 .156-.055Zm1.504 12.271h7.416c.673 0 .742-.067.742-.752v-7.8c0-.668-.07-.743-.755-.743h-14.781c-.695 0-.762.062-.762.73v7.85c0 .646.066.708.721.708l7.419.007ZM146.567 190.083h20.412c.218-.007.436-.001.654.017.331.04.639.192.871.43a1.444 1.444 0 0 1 .16 1.815 1.452 1.452 0 0 1-.782.574 3.34 3.34 0 0 1-.863.082h-40.878a3.307 3.307 0 0 1-.914-.097 1.439 1.439 0 0 1 .275-2.802 5.27 5.27 0 0 1 .653-.019h20.412ZM197.343 190.083h17.74c.2 0 .4 0 .598.012.34.036.656.189.894.433.237.243.381.562.406.9a1.443 1.443 0 0 1-1.091 1.506 3.129 3.129 0 0 1-.703.062h-35.698a3.103 3.103 0 0 1-.809-.083 1.459 1.459 0 0 1-.774-.568 1.442 1.442 0 0 1 .988-2.245 5.1 5.1 0 0 1 .654-.022l17.795.005ZM108.96 190.083h6.928c1.135 0 1.85 1.002 1.451 1.988-.234.588-.77.925-1.524.929h-13.696c-.695 0-1.256-.219-1.558-.876-.454-1.002.259-2.036 1.413-2.042 2.163-.014 4.327 0 6.49 0l.496.001ZM207.106 182.442h2.948c.947 0 1.618.625 1.613 1.475 0 .817-.673 1.443-1.584 1.446-2.039.008-4.076.008-6.113 0-.912 0-1.56-.636-1.551-1.47.008-.833.659-1.439 1.577-1.448 1.036-.003 2.074-.003 3.11-.003Z"/><path fill="#525252" d="M138.395 165.526c0 .334.012.685 0 1.027-.037.907-.673 1.554-1.487 1.549-.814-.005-1.433-.618-1.47-1.504-.03-.719-.03-1.443 0-2.163.034-.873.673-1.503 1.479-1.493.805.01 1.429.622 1.476 1.503.019.361 0 .722 0 1.083l.002-.002ZM125.803 165.554c0 .38.021.759 0 1.136a1.464 1.464 0 0 1-.442.99 1.487 1.487 0 0 1-1.004.422 1.467 1.467 0 0 1-1.022-.386 1.445 1.445 0 0 1-.465-.982 20.555 20.555 0 0 1 0-2.432c.025-.375.194-.725.473-.978a1.477 1.477 0 0 1 2.027.048c.267.264.422.619.433.993.021.396 0 .794 0 1.189ZM119.529 165.546c0 .334.011.685 0 1.027-.037.894-.673 1.544-1.504 1.529-.831-.015-1.423-.638-1.448-1.52a37.14 37.14 0 0 1 0-2.163 1.457 1.457 0 0 1 .415-1.029 1.477 1.477 0 0 1 1.021-.446c.786-.02 1.433.573 1.504 1.413.032.392 0 .792 0 1.189h.012ZM132.098 165.513c0 .36.012.721 0 1.082-.035.865-.664 1.503-1.466 1.503-.802 0-1.453-.624-1.48-1.488a37.21 37.21 0 0 1 0-2.216c-.003-.387.15-.76.424-1.035a1.476 1.476 0 0 1 2.079-.013c.277.272.434.642.437 1.029.023.376 0 .757 0 1.134l.006.004Z"/><g fill="#525252" clip-path="url(#a)"><path d="M26.717 135.911v2.879H4v-2.879h.702c3.403 0 6.809-.008 10.212.009.452 0 .651-.102.716-.576a4.725 4.725 0 0 1 1.427-2.764c.892-.882 1.923-1.429 3.234-1.439 3.32-.019 6.642-.105 9.962-.109 12.936-.016 25.867.008 38.807-.032 2.337-.007 4.2 2.161 3.91 4.28-.17 1.244-.405 2.479-.607 3.717-.032.193-.046.39-.078.67.803.041 1.538.109 2.275.112 6.003.022 12.006.036 18.01.04a1.65 1.65 0 0 1 1.208.461 6.956 6.956 0 0 1 1.825 2.489c2.21 5.28 4.432 10.553 6.664 15.82.675 1.594.905 3.226.602 4.933-.991 5.582-1.965 11.168-2.98 16.746-.267 1.466-2.079 3.009-3.714 3.16-1.311.121-2.636.103-3.962.121-1.238.019-2.476-.008-3.714.007-1.428.017-1.075-.219-1.499 1.058-1.1 3.32-3.266 5.746-6.456 7.233-2.715 1.265-5.557 1.636-8.369.331-3.242-1.503-4.777-4.148-4.895-7.626-.008-.264-.01-.526-.018-.79a1.088 1.088 0 0 0-.073-.209h-.683c-8.871.032-17.743.058-26.617.08-.627 0-.879.191-1.068.774-1.362 4.195-4.252 6.922-8.509 8.185-3.657 1.084-7.454-.099-9.532-2.81-.929-1.216-1.419-2.594-1.584-4.092a8.798 8.798 0 0 1-.1-1.337c.026-.595-.235-.729-.802-.729-2.784-.031-5.571-.116-8.354-.151a1.989 1.989 0 0 1-1.34-.486c-1.198-1.005-1.83-2.2-1.545-3.795.816-4.564 1.61-9.133 2.407-13.701.029-.157.053-.315.093-.547H4.006v-2.916H26.71v2.91h-.743c-4.25 0-8.5.002-12.751.008-.216 0-.588.092-.62.207a4.685 4.685 0 0 0-.123 1.419c0 .079.512.174.79.181 1.896.049 3.794.102 5.694.105 14.875.017 29.75.032 44.624.045.57 0 .767-.167.867-.714 1.08-6.102 2.19-12.197 3.284-18.297.76-4.245 1.51-8.491 2.253-12.739.124-.69-.072-.972-.808-1.027-.99-.067-1.981-.113-2.972-.114-15.268-.026-30.537-.047-45.805-.061-.474 0-1.783 1.003-1.811 1.443-.01.121.239.356.398.384.467.08.94.12 1.415.121 1.857.016 3.714.012 5.571.016l.744-.004Zm66.768 9.254c-.385-.778-.69-1.439-1.045-2.066-.072-.129-.332-.22-.505-.221-6.334-.043-12.668-.075-19.002-.096-.19 0-.466.047-.556.172-.371.516-.886 1.033-.99 1.614-1.217 6.489-2.37 12.991-3.54 19.488l-1.05 5.834H11.63c-.541 3.375-1.061 6.652-1.594 9.925-.09.559.185.72.685.729 2.785.027 5.57.039 8.354.103.619.015.92-.183 1.218-.721 2.12-3.828 5.365-6.097 9.822-6.476a8.433 8.433 0 0 1 5.638 1.532 8.155 8.155 0 0 1 3.216 4.796l.205.851H46.134c7.138-.006 14.277-.017 21.417-.035.26 0 .675-.122.757-.305.866-1.891 2.301-3.321 3.92-4.552 2.335-1.777 5.017-2.653 7.984-2.237 3.316.464 6.678 3.06 7.047 6.759.018.106.046.21.083.31a.73.73 0 0 0 .165.049c2.723 0 5.447.011 8.17 0a.82.82 0 0 0 .495-.187c.534-.467.917-1.014 1.04-1.741.841-4.889 1.709-9.775 2.552-14.664.146-.843.222-1.701.337-2.614h-.9c-5.653 0-11.306.016-16.96-.011-2.328-.011-4.658-.139-6.988-.169-1.793-.023-2.711-1.557-2.432-3.085.286-1.553.463-3.124.754-4.676.372-1.97.743-3.943 1.238-5.885.372-1.477 1.284-2.094 2.823-2.177.659-.035 1.32-.065 1.98-.07 4.271-.037 8.542-.069 12.813-.097.303-.007.606-.045 1.056-.077Zm-65.692 44.834c.732-.099 1.51-.074 2.185-.319 2.984-1.082 5.065-3.097 5.98-6.115 1.264-4.166-1.992-7.864-6.3-7.145-3.554.596-5.943 2.667-7.195 5.964-.495 1.317-.607 2.693-.137 4.052.59 1.7 2.142 3.69 5.467 3.563Zm42.587-5.559c-.027 2.176.354 3.119 1.72 4.267 1.035.868 2.257 1.239 3.591 1.267 4.035.084 7.841-2.955 8.61-6.855.674-3.415-1.097-6.106-4.424-6.648-5.253-.853-9.828 4.349-9.503 7.969h.006Zm15.979-36.137.577 10.107h11.991a2.332 2.332 0 0 0-.085-.377c-1.306-3.127-2.624-6.249-3.917-9.382-.154-.374-.4-.392-.725-.391h-7.304c-.178.005-.359.03-.537.043Zm-2.444 10.05c-.175-3.219-.342-6.41-.54-9.602-.008-.143-.293-.384-.453-.387-1.566-.031-3.133-.015-4.704-.027-.472 0-.682.179-.763.654-.423 2.535-.882 5.064-1.325 7.597-.096.551-.17 1.104-.27 1.764l8.055.001Z"/><path d="M30.088 145.283H7.612v-2.866h22.476v2.866ZM7.583 158.412v-2.846h22.493v2.846H7.583ZM11.395 149.072h22.688v2.666H11.395v-2.666Z"/></g><g fill="#525252" clip-path="url(#b)"><path d="M138 55.283c1.341.393 2.675.719 3.963 1.176 3.05 1.072 5.755 2.69 7.711 5.36.395.54.739 1.114 1.028 1.716a2.73 2.73 0 0 1 .148 2.138 2.729 2.729 0 0 1-1.433 1.59c-5.73 2.833-11.455 5.674-17.211 8.451a8.144 8.144 0 0 0-3.174 2.634c-7.007 9.552-16.274 15.724-27.8 18.516a45.946 45.946 0 0 1-13.608 1.175 2.567 2.567 0 0 0-1.236.244c-6.407 3.131-12.779 6.335-19.211 9.415-4.19 2.005-8.324 1.63-12.334-.682-7.246-4.18-14.503-8.34-21.77-12.48-1.193-.683-1.384-1.477-.609-2.628.939-1.396 1.87-2.788 2.813-4.184 1.806-2.662 4.834-3.783 7.925-2.902a966.32 966.32 0 0 1 9.72 2.835 2.726 2.726 0 0 0 2.142-.18c1.039-.54 2.1-1.04 3.192-1.576-10.233-9.582-15.71-21.3-15.94-35.32-.166-10.116 2.692-19.39 8.434-27.717C62.65 5.612 83.57-1.583 102.844 3.703c11.366 3.112 20.422 9.605 27.068 19.326 6.647 9.722 9.253 20.552 8.088 32.254ZM92.848 71.914c.272.187.473.328.681.466 1.735 1.138 3.427 2.34 5.22 3.397 1.206.714 1.165 2.112-.163 2.753-6.308 3.035-12.582 6.155-18.868 9.254-.786.386-1.266.313-1.894-.333a571.81 571.81 0 0 1-5.007-5.185c-.23-.238-.399-.32-.73-.154-5.195 2.573-10.409 5.104-15.592 7.694a5.854 5.854 0 0 1-4.55.397 561.672 561.672 0 0 0-9.51-2.788c-1.713-.489-3.288-.107-4.434 1.248-1.028 1.218-1.852 2.612-2.784 3.948.16.11.259.187.366.249 6.973 3.993 13.946 7.985 20.918 11.975 3.226 1.84 6.516 1.904 9.853.268l20.3-9.978 11.324-5.576 15.165-7.453 17.973-8.844 13.173-6.472c1.285-.643 2.585-1.276 3.913-1.93a8.92 8.92 0 0 0-2.095-2.84c-2.244-2.075-4.975-3.165-7.897-3.84-4.07-.944-8.195-1.02-12.331-.506-3.387.429-6.657 1.26-9.74 2.788-6.265 3.099-12.543 6.17-18.808 9.251l-4.483 2.211Zm-19.31-41.368a105.255 105.255 0 0 0 33.44.013 2.842 2.842 0 0 0-.023-.332c-1.125-5.304-2.635-10.479-5.089-15.338-1.442-2.854-3.153-5.522-5.59-7.654-3.574-3.127-7.498-3.356-11.208-.611-2.369 1.754-4.052 4.1-5.487 6.633-2.508 4.418-4.098 9.19-5.314 14.102-.253 1.021-.476 2.068-.729 3.183v.004Zm35.342 18.145c.142-3.35-.88-14.255-1.445-15.473a107.772 107.772 0 0 1-34.383-.02 99.998 99.998 0 0 0-1.377 15.493h37.205Zm-37.252 2.756c.115 2.23.214 4.394.353 6.556.055.2.186.37.364.476 3.59 2.364 7.186 4.72 10.787 7.066.21.132.453.198.7.19 4.906-.277 9.824-.24 14.724.112a1.78 1.78 0 0 0 .874-.186c2.823-1.375 5.638-2.773 8.461-4.15a.72.72 0 0 0 .497-.675c.141-2.293.317-4.581.45-6.863.047-.823 0-1.651 0-2.515l-37.21-.011ZM59.252 64.27c.12.137.177.215.237.27C65.938 71.224 72.383 77.91 78.825 84.6c.33.343.57.345.961.152a3994.91 3994.91 0 0 1 14.238-7.01c.495-.245.985-.495 1.54-.772-.214-.152-.35-.26-.495-.356L79.026 66.105a7736.495 7736.495 0 0 1-15.323-10.06 1.018 1.018 0 0 0-1.217-.06c-1.058.583-2.142 1.106-3.228 1.655l-4.301 2.2c.739.77 1.429 1.502 2.142 2.21.088.085.366.057.512 0 .979-.462 1.943-.957 2.92-1.425.83-.398 1.604-.169 1.946.554.343.722.043 1.473-.764 1.872l-2.461 1.22Zm69.399-38.085c-5.717 3.292-11.952 5.166-18.41 6.517a108.03 108.03 0 0 1 1.383 15.97h23.834c.462-5.71-3.496-18.749-6.816-22.487h.009Zm-76.774-.034a45.075 45.075 0 0 0-6.81 22.526h23.89c.065-5.355.528-10.697 1.386-15.983-6.47-1.351-12.702-3.228-18.475-6.543h.009Zm57.903 3.88c6.087-1.25 11.961-3.024 17.429-6.142a45.58 45.58 0 0 0-12.545-11.982 44.885 44.885 0 0 0-16.22-6.412c.174.186.23.25.292.31a25.762 25.762 0 0 1 4.269 5.441c2.68 4.455 4.412 9.29 5.713 14.296.379 1.467.698 2.947 1.062 4.488ZM81.954 5.568c-5.048.793-12.078 3.29-18.403 7.952A45.066 45.066 0 0 0 53.4 23.849c2.839 2.086 15.117 6.354 17.438 6.07.054-.252.114-.516.17-.78a68.799 68.799 0 0 1 3.373-11.417c1.3-3.25 2.858-6.363 5.004-9.142.81-1.038 1.7-2.001 2.568-3.011ZM45.023 51.442c.3 8.15 2.53 15.656 6.706 22.432l9.078-4.042c-.037-.04-.118-.135-.204-.225a7473.86 7473.86 0 0 1-8.72-9.059c-.83-.858-.662-1.844.4-2.387 3.362-1.715 6.729-3.414 10.083-5.147a1.631 1.631 0 0 1 1.823.114c.89.613 1.805 1.197 2.712 1.789.715.47 1.435.932 2.23 1.447-.063-1.715-.119-3.311-.176-4.932l-23.932.01Zm25.425 28.465a.907.907 0 0 0-.09-.184c-2.378-2.471-4.76-4.937-7.148-7.4a.669.669 0 0 0-.57-.09 48.684 48.684 0 0 0-8.413 3.541c-.292.16-.572.344-.857.51.021.056.046.11.073.164a44.467 44.467 0 0 0 7.26 7.924.698.698 0 0 0 .605.01 599.13 599.13 0 0 0 6.126-3.002l3.014-1.473Zm65.02-28.469h-23.829c-.145 2.803-.289 5.576-.441 8.553 7.51-4.557 15.559-5.937 24.105-5.072.058-.695.127-1.338.161-1.986.026-.48.004-.963.004-1.495ZM92.675 95.17a41.422 41.422 0 0 0 17.606-4.416 43.235 43.235 0 0 0 14.236-11.24L92.674 95.17Zm1.098-26.728-.04-.14h-6.23c.823.647 1.681 1.246 2.571 1.796a.365.365 0 0 0 .3 0c1.137-.546 2.27-1.098 3.4-1.656ZM101.996 118.002h19.811c.646 0 1.05.397 1.162 1.131.036.206.041.421.014.63a1.907 1.907 0 0 1-.166.582c-.084.174-.192.32-.318.427a.806.806 0 0 1-.41.196c-.248.03-.497.039-.746.026H82.466a2.582 2.582 0 0 1-.655-.048c-.24-.073-.454-.27-.603-.555a1.998 1.998 0 0 1-.206-.997c.016-.357.12-.694.292-.949s.402-.411.646-.439c.138-.014.276 0 .415 0l19.641-.004ZM115.002 111.002h15.716c.95 0 1.499.931 1.201 2.029-.06.25-.169.47-.315.636a.863.863 0 0 1-.508.297c-.199.03-.398.042-.598.033H99.281a1.448 1.448 0 0 1-.466-.057c-.239-.077-.451-.269-.6-.544a1.916 1.916 0 0 1-.214-.96 1.86 1.86 0 0 1 .289-.952c.172-.26.405-.424.656-.466.156-.018.313-.022.469-.014l15.587-.002ZM127.995 104h12.657c1.022 0 1.628 1.079 1.219 2.139-.09.237-.23.439-.405.587a1.045 1.045 0 0 1-.588.254 3.022 3.022 0 0 1-.485.017h-24.784a2.366 2.366 0 0 1-.719-.081c-.279-.083-.522-.291-.685-.583a1.72 1.72 0 0 1-.196-1 1.66 1.66 0 0 1 .351-.902c.198-.242.457-.392.733-.424.145-.009.29-.009.435 0l12.467-.007ZM137.678 100.489h-11.745c-.943 0-1.561-.456-1.691-1.224a1.474 1.474 0 0 1 1.191-1.693c.213-.031.429-.043.644-.035h23.547c.928.026 1.595.633 1.6 1.46.004.826-.66 1.489-1.626 1.492-3.972.006-7.946.006-11.92 0Z"/></g><defs><clipPath id="a"><path fill="#fff" d="M4 131h99v62H4z"/></clipPath><clipPath id="b"><path fill="#fff" d="M32 2h129v119H32z"/></clipPath></defs></svg>