<svg xmlns="http://www.w3.org/2000/svg" width="220" height="200" fill="none"><path fill="#525252" d="M161.668 27.697a7.252 7.252 0 0 0-4.347-4.339 11.203 11.203 0 0 0-1.624-.505 24.13 24.13 0 0 0-3.016-.453 32.917 32.917 0 0 0-5.323 0c-10.309.799-20.654 3.744-32.533 9.28a5.714 5.714 0 0 1-2.946.692 3.542 3.542 0 0 1-1.064-.257 9.281 9.281 0 0 1-.515-.258l-.665-.363.222-.728c1.277-4.152-1.367-7.328-3.496-9.874a6.604 6.604 0 0 0-2.502-2.023 4.267 4.267 0 0 0-1.304-.293 7.097 7.097 0 0 0-3.673.825c-.967.462-1.925.95-2.927 1.447a48.361 48.361 0 0 1-5.084 2.404 7.301 7.301 0 0 1-3.105.461 4.597 4.597 0 0 1-1.03-.213c-3.832-1.286-7.727-2.661-11.532-3.992l-.134-.044a462.377 462.377 0 0 0-11.817-4.144 5.751 5.751 0 0 0-1.304-.292 7.4 7.4 0 0 0-3.14.408 152.662 152.662 0 0 0-11.986 5.252 4.49 4.49 0 0 0-2.351 2.661c-.142.843.958 2.174 1.774 2.777 2.502 1.775 5.137 3.442 7.683 5.075.94.594 1.89 1.198 2.83 1.774L80.411 48.35l-5.829 3.451c-4.435 2.662-8.72 5.164-13.006 7.736l-.08.054c-2.59 1.57-3.77 2.262-4.977 2.155a3.03 3.03 0 0 1-.816-.195 17.61 17.61 0 0 1-3.788-2.75c-.95-.79-1.703-1.464-2.333-2.023a10.941 10.941 0 0 0-2.502-1.925 2.113 2.113 0 0 0-.621-.15c-.887-.08-2.04.452-3.992 1.321-.808.364-1.775.799-2.964 1.304a3.55 3.55 0 0 0-2.076 1.775 3.546 3.546 0 0 0 .293 2.794l.382.888c1.26 2.856 2.581 5.81 3.735 8.783a3.903 3.903 0 0 1-.071 2.839c-.94 1.863-1.18 3.548-.71 4.782a3.628 3.628 0 0 0 2.138 2.058 7.178 7.178 0 0 0 2.005.443l.586.045c2.88.004 5.752-.294 8.57-.888 17.743-3.282 35.797-8.712 55.236-16.599 10.726-4.365 20.236-8.605 29.064-12.961a113.616 113.616 0 0 0 16.111-10.123 23.308 23.308 0 0 0 5.953-6.85 7.973 7.973 0 0 0 1.2-3.204 7.975 7.975 0 0 0-.251-3.413Zm-70.93 0 2.156-1.03c2.235-1.055 4.542-2.147 6.733-3.38a3.983 3.983 0 0 1 2.316-.639c.236.015.467.073.683.17a3.986 3.986 0 0 1 1.775 1.773c.328.542.656 1.083.975 1.633l.364.612a2.341 2.341 0 0 1 .444 1.916 2.56 2.56 0 0 1-1.526 1.348c-1.899.844-3.788 1.775-5.687 2.751-1.145.568-2.307 1.153-3.469 1.712-.574.258-1.167.472-1.774.64l-.541.168h-.675a6.861 6.861 0 0 1-1.96-.444 3.922 3.922 0 0 1-2.44-3.043c-.47-1.774.346-3.132 2.626-4.223v.036Zm66.139 5.633a25.921 25.921 0 0 1-4.986 5.323c-9.04 7.408-19.571 12.305-29.596 16.502l-1.26.523c-9.856 4.126-20.059 8.393-30.412 11.622-9.36 2.866-19.057 5.235-28.461 7.523a1324.89 1324.89 0 0 0-10.23 2.529 21.207 21.207 0 0 1-4.036.48l-1.428.088a2.064 2.064 0 0 1-.4 0h-.274l-1.296-.186.612-1.163c.123-.276.298-.526.515-.736 1.162-1.065 1.322-2.262.541-4.001-1.153-2.547-2.244-5.137-3.318-7.639l-1.34-3.132.621-.425c1.597-1.118 2.44-1.633 3.327-1.553.204.019.404.066.595.142.972.518 1.868 1.17 2.661 1.934.515.444 1.03.887 1.588 1.34 1.242 1.047 2.662 2.218 3.984 3.424.346.34.752.614 1.197.808.222.089.455.146.692.168a3.442 3.442 0 0 0 2.068-.603c6.414-3.895 12.97-7.799 19.296-11.507l6.804-4.028c1.287-.763 1.926-1.472 1.943-2.156 0-.887-1.029-1.694-1.774-2.2l-21.46-13.92L52.18 25.47l-1.268-.887-1.402-.94 2.59-1.11c2.901-1.25 5.9-2.555 8.872-3.78l.275-.114.302.07c.133 0 .364.125.55.196l.23.088c5.714 2.023 11.454 4.02 17.238 6.113l5.323 1.88-.062.71a1.829 1.829 0 0 1-.106.595c-1.242 3.487-.497 6.432 2.236 8.748a9.874 9.874 0 0 0 2.661 1.605 7.712 7.712 0 0 0 2.28.55 8.978 8.978 0 0 0 4.436-.79 68.975 68.975 0 0 0 6.343-3.122 5.327 5.327 0 0 1 3.159-.834 4.22 4.22 0 0 1 1.242.293c.168.07.346.168.532.257.375.206.763.387 1.162.541.821.34 1.688.556 2.573.639 2.19.11 4.368-.391 6.29-1.446a86.686 86.686 0 0 1 30.83-8.65 21.931 21.931 0 0 1 3.655 0c.594.053 1.206.133 1.819.23a8.4 8.4 0 0 1 1.774.488 3.598 3.598 0 0 1 2.262 2.263c.373 1.189 0 2.644-1.1 4.232v.035ZM81.724 109.282a3.06 3.06 0 0 1-.834-.187 1.41 1.41 0 0 1-.408-.239c-.754-.639-.887-2.458-.674-3.469a1183.617 1183.617 0 0 1 6.52-28.044c.231-.95 1.544-2.528 2.2-2.466.19.024.374.072.551.142.94.372 1.171 1.34.745 3.131-1.384 5.9-2.723 11.924-4.01 17.744l-1.162 5.19c-.142.621-.257 1.242-.4 1.934l-.328 1.712 2.733-1.135a450.97 450.97 0 0 0 7.985-3.389 2.469 2.469 0 0 0 1.135-1.03 2884.55 2884.55 0 0 0 9.049-17.903l.417-.834-.842-.417c-.435-.221-.888-.425-1.287-.63a28.068 28.068 0 0 1-4.436-2.501c-.656-.48-1.189-2.564-.683-3.247a1.508 1.508 0 0 1 1.358-.763c.158.018.313.057.46.115a5.15 5.15 0 0 1 1.589 1.25 6.1 6.1 0 0 0 2.076 1.482c.375.151.769.247 1.171.284a5.162 5.162 0 0 0 2.883-.674c3.088-1.632 6.211-3.096 9.413-4.587 1.074-.496 1.677-1.047 1.854-1.694a2.648 2.648 0 0 0-.621-2.183 2.985 2.985 0 0 1-.763-2.138 1.546 1.546 0 0 1 .888-.994 1.772 1.772 0 0 1 1.073-.283c.126.008.249.038.364.088.631.375 1.13.936 1.428 1.606l.124.204a6.706 6.706 0 0 1 .888 5.572 5.67 5.67 0 0 1-3.682 3.353c-.531.21-1.047.456-1.544.737a9.92 9.92 0 0 1-1.774.825c-4.143 1.313-6.21 4.285-7.985 8.34-2.262 5.145-4.826 10.255-7.301 15.206l-1.092 2.182a4.301 4.301 0 0 1-1.925 1.641c-4.196 1.943-8.481 3.939-12.873 5.714a5.507 5.507 0 0 1-2.28.355ZM62.109 85.55c-.754 5.26-3.957 8.366-9.236 8.951a1.593 1.593 0 0 1-.408 0h-.124a9.473 9.473 0 0 0-.825-.514c-.754-.488-1.5-.967-1.721-1.606a23.268 23.268 0 0 1-1.588-7.346.585.585 0 0 1 .257-.532c.242-.138.523-.191.798-.151.23.025.457.08.675.16a2.662 2.662 0 0 1 1.384 1.277c.443.967.816 1.952 1.215 2.999l.532 1.437.817-.204c3.087-.799 4.436-2.342 4.542-5.172a3.096 3.096 0 0 1 2.147-2.147h.257c.174.012.344.05.506.115.825.275 1.011 1.1.772 2.733ZM128.738 100.755l-.355 23.954h3.354v-16.041a21.324 21.324 0 0 0-.071-3.362c-.311-2.333.665-3.815 3.069-4.667a26.798 26.798 0 0 1 8.996-1.57c2.394 0 4.778.298 7.098.887a18.608 18.608 0 0 1 4.897 2.405l.781.479c1.304.789 1.481 1.863.594 3.602a42.72 42.72 0 0 1-14.754 16.155c-3.105 2.094-6.529 5.146-5.402 10.274l.204.931-.95.133c-.452.071-.887.116-1.366.169h-.098c-1.774.195-3.548.39-4.613 1.366-1.064.976-1.331 2.768-1.623 4.516-.098.577-.204 1.18-.329 1.774l-.204.674h-.683c-.612 0-1.295.045-1.987.098-3.096.24-4.605 1.774-4.622 4.746v33.039a4.23 4.23 0 0 0 3.007 4.383c.954.203 1.926.304 2.901.301h.683l.151.666a2.065 2.065 0 0 0 2.01 1.582 2.068 2.068 0 0 0 2.009-1.582l.16-.657h.772c1.925-.053 3.877-.089 5.828-.089 1.642 0 3.31 0 4.96.071h.692l.151.675a2.079 2.079 0 0 0 2.129 1.668 2.052 2.052 0 0 0 1.996-1.544l.177-.674h.684c.887.025 1.776.001 2.661-.071 2.804-.506 4.223-2.067 4.232-4.649 0-11.72 0-22.623-.098-33.314 0-2.839-1.499-4.32-4.524-4.542-.719-.053-1.437-.08-2.209-.115l-1.074-.054v-4.95l16.36-11.844v51.669c0 4.108 1.863 7.151 5.323 8.81a9.361 9.361 0 0 0 4.019.967 9.765 9.765 0 0 0 6.352-2.661l.461-.382.604-.488.559.532a9.752 9.752 0 0 0 6.671 2.972 9.587 9.587 0 0 0 4.072-.975c3.718-1.775 5.323-4.791 5.323-9.822-.071-5.438-.062-10.921-.053-16.306v-12.287c0-1.677.461-2.36 1.97-2.839a7.321 7.321 0 0 0 5.509-7.435v-2.661c.044-8.251.098-16.777-.222-25.152-.266-7.097-4.365-12.083-11.533-14.195a41.018 41.018 0 0 0-11.596-1.535 66.35 66.35 0 0 0-7.629.47c-5 .44-9.682 2.641-13.21 6.211l-.542.559-.621-.47a24.143 24.143 0 0 0-14.957-5.102c-4.083.081-8.123.849-11.951 2.272l-.887.31m.683 40.216a2.019 2.019 0 0 1 1.553-.497h.364c.887.053 1.774.08 2.812.08 1.038 0 2.298 0 3.442-.062h1.287c1.073 0 1.428.115 1.676.31l.089.062.062.089c.32.399.346.994.266 2.812-.011.206-.035.41-.071.613l-.115.745h-11.729v-.887c.027-.494.027-.988 0-1.482a2.249 2.249 0 0 1 .364-1.792v.009Zm17.442 7.922a2.239 2.239 0 0 1 1.668.497 2.277 2.277 0 0 1 .47 1.695V179.119a2.543 2.543 0 0 1-.488 1.881 2.1 2.1 0 0 1-1.552.47h-23.874a2.107 2.107 0 0 1-1.544-.479 2.512 2.512 0 0 1-.488-1.863v-30.732a1.768 1.768 0 0 1 .431-1.722 1.773 1.773 0 0 1 1.707-.487h11.906c3.922.027 7.825.009 11.764-.018v.009Zm51.368-12.269v3.602c0 2.422-1.677 3.974-4.436 4.16-2.52.16-2.99 1.358-2.981 3.496.071 10.273 0 20.724 0 30.821v1.002c0 3.664-1.89 5.989-5.039 6.21h-.586c-2.848 0-4.666-1.694-5.571-5.181a3.497 3.497 0 0 0-1.251-1.481 7.221 7.221 0 0 1-.665-.595c-.178.204-.382.399-.621.63-.48.368-.851.858-1.074 1.42-1.073 4.311-3.62 5.216-5.571 5.216h-.568c-3.15-.257-5.039-2.581-5.057-6.21v-27.547l-.053-.887v-26.136c.066-.45.042-.909-.071-1.349v-.115c-.311-.887-.684-1.988-1.376-2.413a.402.402 0 0 0-.195 0 4.902 4.902 0 0 0-2.182 1.206 345.79 345.79 0 0 0-4.684 4.099c-2.981 2.661-6.051 5.323-9.245 7.816-1.961 1.517-4.888 1.961-6.467 2.085h-.382a3.054 3.054 0 0 1-2.892-1.562 3.299 3.299 0 0 1 .514-3.46 20.135 20.135 0 0 1 5.075-4.604 44.992 44.992 0 0 0 14.736-16.856c2.662-5.049 6.477-7.985 11.782-9.014a47.023 47.023 0 0 1 8.818-.887 42.509 42.509 0 0 1 10.647 1.348c5.855 1.517 9.058 5.323 9.262 10.912.266 8.1.195 16.325.133 24.265v.009ZM181.037 62.02h-.08a14.435 14.435 0 0 0-.07 28.86h.115a14.434 14.434 0 0 0 0-28.86h.035Zm-.15 25.134a10.76 10.76 0 0 1-7.639-3.247 10.445 10.445 0 0 1-3.07-7.47 10.898 10.898 0 0 1 10.859-10.761h.16a10.572 10.572 0 0 1 7.514 3.238 10.739 10.739 0 0 1-1.825 16.496 10.744 10.744 0 0 1-5.982 1.744h-.017Z"/><path fill="#525252" d="M181.037 62.02h-.08a14.435 14.435 0 0 0-.07 28.86h.115a14.434 14.434 0 0 0 0-28.86h.035Zm-.15 25.134a10.76 10.76 0 0 1-7.639-3.247 10.445 10.445 0 0 1-3.07-7.47 10.898 10.898 0 0 1 10.859-10.761h.16a10.572 10.572 0 0 1 7.514 3.238 10.739 10.739 0 0 1-1.825 16.496 10.744 10.744 0 0 1-5.982 1.744h-.017ZM144.352 70.227h-.106a11.534 11.534 0 0 0-8.162 19.642 11.487 11.487 0 0 0 17.685-1.791 11.486 11.486 0 0 0 1.913-6.398 11.536 11.536 0 0 0-11.33-11.453Zm0 19.323h-.15a7.911 7.911 0 0 1-7.896-7.79 7.903 7.903 0 0 1 6.982-7.816l1.774-.053v.098a7.833 7.833 0 0 1-.71 15.57v-.01Z"/><path fill="#525252" d="M144.352 70.227h-.106a11.534 11.534 0 0 0-8.162 19.642 11.487 11.487 0 0 0 17.685-1.791 11.486 11.486 0 0 0 1.913-6.398 11.536 11.536 0 0 0-11.33-11.453Zm0 19.323h-.15a7.911 7.911 0 0 1-7.896-7.79 7.903 7.903 0 0 1 6.982-7.816l1.774-.053v.098a7.833 7.833 0 0 1-.71 15.57v-.01ZM143.998 107.568a1.03 1.03 0 0 1-1.029 1.029h-6.211a1.027 1.027 0 0 1-.727-1.756c.193-.193.454-.302.727-.302h6.211a1.03 1.03 0 0 1 1.029 1.029Z"/><path fill="#525252" d="M143.998 107.568a1.03 1.03 0 0 1-1.029 1.029h-6.211a1.027 1.027 0 0 1-.727-1.756c.193-.193.454-.302.727-.302h6.211a1.03 1.03 0 0 1 1.029 1.029ZM148.913 152.779l-1.5 2.928a17.112 17.112 0 0 0-8.943-2.609 20.091 20.091 0 0 0-9.12 2.396l-.222-.24a9.424 9.424 0 0 1-.745-.887c-.23-.319-.443-.674-.639-1.011l-.266-.435c1.721-1.908 6.095-3.194 10.904-3.194 4.427.027 8.268 1.127 10.531 3.052Z"/><path fill="#525252" d="m148.913 152.779-1.5 2.928a17.112 17.112 0 0 0-8.943-2.609 20.091 20.091 0 0 0-9.12 2.396l-.222-.24a9.424 9.424 0 0 1-.745-.887c-.23-.319-.443-.674-.639-1.011l-.266-.435c1.721-1.908 6.095-3.194 10.904-3.194 4.427.027 8.268 1.127 10.531 3.052ZM147.688 173.22h-18.693v3.22h18.693v-3.22Z"/><path fill="#525252" d="M147.688 173.22h-18.693v3.22h18.693v-3.22ZM98.79 155.818h-2.985c0-9.818-3.934-19.233-10.937-26.176C77.865 122.7 68.367 118.8 58.463 118.8c-9.903 0-19.401 3.9-26.404 10.842-7.003 6.943-10.937 16.358-10.937 26.176h-3.683a1.477 1.477 0 0 0-1.036.426 1.443 1.443 0 0 0 0 2.054 1.465 1.465 0 0 0 1.036.425H98.79a1.475 1.475 0 0 0 1.036-.425 1.438 1.438 0 0 0 .429-1.027 1.434 1.434 0 0 0-.43-1.027 1.465 1.465 0 0 0-1.035-.426Zm-40.335-33.422c8.987-.005 17.613 3.5 24.011 9.756a33.727 33.727 0 0 1 10.171 23.666H24.305a33.718 33.718 0 0 1 10.158-23.657c6.391-6.256 15.01-9.764 23.992-9.765Z"/><path fill="#525252" d="M58.877 148.077H33.398c-.804 0-1.455.596-1.455 1.331s.651 1.33 1.455 1.33h25.48c.803 0 1.455-.595 1.455-1.33 0-.735-.652-1.331-1.456-1.331ZM62.652 118.8h-.06a1.237 1.237 0 0 1-.873-.44 1.395 1.395 0 0 1-.325-.966 3.486 3.486 0 0 0-.748-2.184 3.01 3.01 0 0 0-1.068-.648 2.887 2.887 0 0 0-1.222-.146 2.488 2.488 0 0 0-1.121.131c-.36.129-.69.339-.967.615a3.089 3.089 0 0 0-.472 2.113c.032.34-.06.68-.256.951-.196.27-.482.452-.8.506a1.206 1.206 0 0 1-.91-.212 1.346 1.346 0 0 1-.526-.816 5.952 5.952 0 0 1 .085-2.249 5.77 5.77 0 0 1 .91-2.032 4.978 4.978 0 0 1 1.826-1.343 4.727 4.727 0 0 1 2.194-.365c.759-.043 1.519.082 2.23.368a5.431 5.431 0 0 1 1.9 1.292 6.197 6.197 0 0 1 1.43 4.154c-.015.338-.15.656-.378.892a1.223 1.223 0 0 1-.85.379ZM46.5 188a8.64 8.64 0 0 1-2.057-.248h-.087l-16.278-5.406v.509a1.45 1.45 0 0 1-.441 1.044 1.517 1.517 0 0 1-1.065.432h-9.98a1.526 1.526 0 0 1-1.073-.441 1.464 1.464 0 0 1-.432-1.058v-18.198c0-.391.158-.766.44-1.043a1.52 1.52 0 0 1 1.065-.432h9.98c.4 0 .783.155 1.065.432.282.277.441.652.441 1.043v.919h7.97c2.648-.02 5.198.985 7.094 2.797a9.527 9.527 0 0 1 1.672 2.124h7.74a4.395 4.395 0 0 1 2.859 1.042 4.235 4.235 0 0 1 1.454 2.627l8.845-4.032.126-.054c.41-.121.834-.183 1.261-.186.2-.011.4-.011.6 0l.504.07v.054a4.018 4.018 0 0 1 1.491.855c.428.388.764.864.984 1.392.37.872.4 1.846.086 2.738a3.88 3.88 0 0 1-1.789 2.105l-.52.294-17.58 9.385A8.07 8.07 0 0 1 46.502 188Zm-1.3-3.09c.402.102.815.151 1.23.147.994.01 1.97-.258 2.814-.773l.126-.069 17.745-9.47.425-.224a.956.956 0 0 0 .434-.494.902.902 0 0 0 0-.641c-.236-.541-.394-.564-.646-.595h-.213a1.615 1.615 0 0 0-.26 0l-12.684 5.816a1.592 1.592 0 0 1-.45.124 4.436 4.436 0 0 1-1.205.185H39.233v-2.943h13.283c.184-.001.366-.038.535-.108.237-.093.44-.254.58-.462a1.21 1.21 0 0 0 .209-.704 1.242 1.242 0 0 0-.393-.918 1.31 1.31 0 0 0-.948-.357h-9.625l-.386-.896a4.556 4.556 0 0 0-.205-.37l-.086-.155a9.258 9.258 0 0 0-.347-.548 7.043 7.043 0 0 0-2.52-2.162 7.205 7.205 0 0 0-3.25-.789h-8.01v10.721l17.13 5.685Zm-20.133-3.538v-15.27H18.09v15.255l6.977.015Z"/><path fill="#525252" d="M16.879 163.159a.897.897 0 0 0-.64.266.884.884 0 0 0-.265.633v18.424a.906.906 0 0 0 .905.907h9.88a.914.914 0 0 0 .64-.266.93.93 0 0 0 .265-.641v-1.329l16.865 5.722h.07a7.54 7.54 0 0 0 5.908-.93l17.474-9.513.43-.242a3.354 3.354 0 0 0 1.633-3.475 3.348 3.348 0 0 0-2.695-2.732 3.694 3.694 0 0 0-1.56.117h-.094l-9.576 4.511c.02-.122.033-.245.039-.368a3.715 3.715 0 0 0-1.1-2.608 3.704 3.704 0 0 0-2.615-1.074H44.42l-.101-.211a9.134 9.134 0 0 0-1.561-2.102 9.357 9.357 0 0 0-6.58-2.666h-8.513v-1.524a.907.907 0 0 0-.906-.899h-9.88Zm.897 1.806h8.078v16.61h-8.078v-16.61Zm9.88 2.423h8.484a7.576 7.576 0 0 1 6.243 3.236c.136.198.26.401.375.61.114.19.218.385.312.586l.234.547h9.139a1.872 1.872 0 0 1 1.912 1.876 1.845 1.845 0 0 1-1.155 1.728 1.934 1.934 0 0 1-.78.148H39.877v1.806h12.565a3.754 3.754 0 0 0 1.077-.18.825.825 0 0 0 .312-.078l12.604-5.855c.23-.044.465-.044.694 0 .383.055.78.164 1.093.954.133.344.133.726 0 1.071-.13.338-.38.617-.702.781l-.422.235-17.489 9.544-.078.039a5.968 5.968 0 0 1-4.487.704l-17.38-5.894-.008-11.858Z"/></svg>